<?xml version="1.0" ?><svg id="Layer_1" style="enable-background:new 0 0 128 128;" version="1.1" viewBox="0 0 128 128" xml:space="preserve" xmlns="http://www.w3.org/2000/svg" xmlns:xlink="http://www.w3.org/1999/xlink"><g><path d="M127.7490005,67.8047028c-0.537117-0.9653015-1.7529144-1.3150024-2.7197189-0.7778015l-7.6112823,4.2246017   c-0.9659195,0.5360947-1.3145142,1.7533951-0.7784195,2.7192001c0.3663025,0.6581955,1.047905,1.0298004,1.7510071,1.0298004   c0.3281937,0,0.6611938-0.0811005,0.9687958-0.2520065l7.6112976-4.2245941   C127.9364853,69.9878006,128.2851868,68.7705002,127.7490005,67.8047028z"/><path d="M107.3856812,65.142601c0.2041016,0.0659027,0.4112015,0.0970993,0.6143188,0.0970993   c0.8446808,0,1.6298828-0.5390015,1.9032822-1.3862l2.4326019-7.5390015c0.3388977-1.0513-0.2381973-2.178299-1.2890015-2.5175972   c-1.051796-0.339901-2.1786957,0.2377968-2.517601,1.2889977L106.0966797,62.625   C105.757782,63.6763,106.3349991,64.8031998,107.3856812,65.142601z"/><path d="M113.4706802,68.3798981c0.3486023,0.2441025,0.7490005,0.3613052,1.1445007,0.3613052   c0.6309052,0,1.2509995-0.2974014,1.6407013-0.8530045L125.875,54.1469994   c0.632782-0.9048004,0.4130859-2.1519012-0.492218-2.7856979c-0.9042969-0.6328011-2.1513977-0.4121017-2.7850952,0.4916992   l-9.6192017,13.7411995C112.3456802,66.4990005,112.5653839,67.7461014,113.4706802,68.3798981z"/><path d="M2,112h45c1.1044846,0,2-0.8955002,2-2s-0.8955154-2-2-2H2c-1.1045139,0-2,0.8955002-2,2S0.8954861,112,2,112z"/><path d="M68,116H21c-1.1045151,0-2,0.8955002-2,2s0.8954849,2,2,2h47c1.1044846,0,2-0.8955002,2-2S69.1044846,116,68,116z"/><path d="M47,124H2c-1.1045139,0-2,0.8955002-2,2s0.8954861,2,2,2h45c1.1044846,0,2-0.8955002,2-2S48.1044846,124,47,124z"/><path d="M114.1240005,76.4561005c-1.7070007-1.4234009-11.8242188-9.5161972-14.8955154-12.3945999   c-5.205101-4.8778992-11.0762024-6.7230988-18.2743988-5.7265015C76.5390854,58.9473,72.0448837,59.2598,67.6981812,59.5620003   c-1.0116959,0.0703011-2.0155945,0.1405983-3.0585938,0.2153015c-0.3915863-0.0004005-0.8164024-0.3334999-0.8915863-0.6997032   l-2.7099152-13.2411995c1.7626991,0.6729012,3.4511948,1.3267021,5.1386948,2.0479012   c4.3691025,1.8666992,8.3134003,1.8237,12.1865005-0.0923004c3.1054993-1.5356979,15.5312042-7.3041992,18.5674057-8.7983017   c2.2938995-1.1298981,3.8387985-2.7486,4.4676971-4.6801987c0.5782013-1.7798004,0.3536148-3.7290001-0.650383-5.6371994   c-1.9482193-3.7001991-5.8740005-4.8565006-10.2939148-2.8848c0,0-11.6338043,5.1508999-15.7549057,7.1777   c-1.5526962,0.7641983-2.6239929,0.7867012-4.2870941,0.088398c-4.3418045-1.8261986-18.7617035-7.713398-21.642601-8.9037991   c-0.8086014,1.1704006-1.75,2.2310009-2.794899,3.1704006c3.3066978,1.3731003,18.5654144,7.6026001,22.8876953,9.4208984   c2.7236023,1.1450005,5.0254059,1.080101,7.6025009-0.1864967c4.047905-1.9906998,15.6182175-7.113802,15.6182175-7.113802   c2.4228821-1.0800991,4.1210861-0.8143997,5.1259995,1.0943012c0.4960861,0.9438,0.6259995,1.7972984,0.3856812,2.5375977   c-0.3622971,1.1132011-1.5223999,1.8808022-2.4315948,2.3281021c-2.9942017,1.4740982-15.4238052,7.2440987-18.5733032,8.8017006   c-2.8496017,1.4091988-5.5419006,1.4091988-8.8407822-0.0009003c-2.019516-0.8628006-6.3164177-2.4995003-6.3164177-2.4995003   c-1.5311966-0.5849991-3.0419998-0.2544022-3.9159966,0.8143997c-0.6387024,0.7826996-0.8594017,1.8578987-0.6201019,3.028801   l2.9336014,14.3311005c0.4764977,2.3309975,2.7274971,4.0580978,5.1503983,3.8841972   c0.9891968-0.0727005,1.9891968-0.1419983,2.9961014-0.2123985c4.413002-0.3065987,8.9765015-0.6245003,13.5262985-1.2552986   c6.0186005-0.8334999,10.6445999,0.6112976,14.990303,4.6835976c3.1854935,2.9852982,6.6328125,5.7425995,9.9658127,8.408699   c1.6845856,1.3476028,3.427681,2.7416992,5.1014862,4.1380997c1.1475143,0.9580994,3.6152954,3.4444046,1.7558975,5.842804   c-0.7285004,0.9433975-1.5683823,1.4023972-2.5663834,1.4023972c-1.1504135,0-2.5205154-0.5967026-3.9609146-1.7250977   C90.7968826,72.5077972,89.5731812,72.5077972,88.9150009,72.5077972l-0.1474152,0.0054016   c-5.1015854,0.3554993-10.0019989,0.8843002-16.9121017,1.8246994c-2.1884842,0.2983017-2.7012024,1.6582031-2.8202972,2.2290039   c-0.1201859,0.5746994-0.1914063,2.0375977,1.7235947,3.2025986l0.9502182,0.5791016   c2.4472809,1.4926987,4.9784851,3.0366974,7.5917816,4.392601C81.2665863,85.7612,81.927681,87.1122971,82.75,89.9506989   c3.5038834,12.0878983,5.5897827,20.6503983,6.5644836,26.9468002c0.5692978,3.6688995-0.6768036,4.6191025-3.0224838,5.0210037   C85.9755859,121.972702,85.6874847,122,85.4364853,122c-1.0586014,0.0005035-1.8066025-0.3090973-3.2588043-4.596199   c-1.1434937-3.3755035-2.3680954-8.0932999-3.5516815-12.6557999c-0.5791168-2.2329025-1.1387177-4.3900986-1.6592178-6.2709045   c-0.4160004-1.4995956-1.4101944-3.4487991-2.9511948-4.4223938l-2.0419998-1.2910004   c-6.7841034-4.2906036-13.7988014-8.7271042-20.9297028-12.7393036   c-10.1307983-5.702095-16.0995979-14.9858017-19.3563995-30.1024971c-0.125-0.5796013-0.2362995-1.1631012-0.3690987-1.8599014   c-0.2832012-1.4756012-1.4278011-2.466301-2.8467007-2.466301c-0.9130993,0-1.8446846,0.4062996-2.6924,1.1738014   c-0.5839996,0.5268974-7.3994007,6.6000977-9.7313995,9.525898c-1.4063005,1.7637024-2.5693998,6.8711014-3.9434004,13.3642998   c-0.3554859,1.6841049-0.6640997,3.1390991-0.8554859,3.8159027C10.415,76.4253006,8.7978859,76.4253006,8.2665863,76.4253006   c-0.3018003,0-0.6289005-0.0385971-0.9727006-0.1152039C3.582,75.483902,3.920886,73.5112,4.0663857,72.6669998   c0.1748004-1.0253983,1.1729002-6.1016006,1.4092002-7.2910004c1.7666001-8.8404007,6.9678001-17.4399986,14.2705002-23.5942993   C23.5,38.6166992,26.9784851,35.0718002,30.3427849,31.6362c-1.375-0.2772999-2.7177849-0.7045994-4.0107841-1.3085995   c-0.0703144-0.0326996-0.134716-0.0747013-0.2049999-0.1084003c-2.8770008,2.9263-5.8409157,5.8754997-8.9590015,8.5038986   C9.1854858,45.4506989,3.494086,54.8793983,1.552686,64.5932999C1.355486,65.5874023,0.3144861,70.8725967,0.124,71.9912033   c-0.708,4.1138,1.6474861,7.1879959,6.300786,8.2231979c0.6288996,0.1400986,1.2480998,0.2108994,1.8418002,0.2108994   c3.2880993,0,5.7782993-2.1362,6.8319998-5.8608017c0.2275991-0.8061981,0.5331993-2.2495956,0.9199991-4.0772018   c0.6650009-3.1455002,2.2236004-10.5126953,3.1571999-11.6986961c2.1191006-2.6597023,4.7441006-4.9981003,7.5223999-7.474102   c0.3339996-0.2973976,0.6690006-0.596199,1.0059013-0.8974991c0.0243988,0.1161995,0.0487995,0.2318993,0.0731983,0.3471985   c2.3682003,10.9961014,6.9307156,24.6557007,21.3047161,32.7461014c7.0410004,3.9618988,14.0117836,8.3705978,20.7538834,12.634201   l2.0429993,1.2919998c0.3778992,0.2388,0.9570007,1.1128006,1.232399,2.1083984   c0.5157166,1.8614044,4.0878983,15.6288986,5.2774048,19.1420975c1.0458984,3.0864029,2.4785004,7.3135071,7.0487976,7.3130035   c0.4766006,0,0.9911957-0.0468979,1.5302963-0.1391983c3.4589996-0.5922012,7.3603058-2.7342987,6.2998047-9.5755997   c-1.0009995-6.4698029-3.1221008-15.1913986-6.6758041-27.4477997c-0.8661957-2.9888-1.9336014-5.8227997-5.4491959-7.6470032   c-1.9404984-1.0063019-3.8682022-2.1439972-5.7559052-3.2865982c5.1123199-0.6605988,9.1162033-1.0737,13.1983185-1.3676987   c1.865181,1.0590973,9.538002,6.7993011,15.7362823,11.6596985c2.1826019,1.7094955,4.3457184,2.5766983,6.4287186,2.5766983   c2.2558823,0,4.2372818-1.0224991,5.730484-2.9545975C119.1650009,84.3529968,118.240181,79.8936005,114.1240005,76.4561005z"/><path d="M28.0263863,26.7040997c1.8397999,0.8604012,3.8026981,1.2964001,5.8348999,1.2964001   c5.4179993,0,10.4189987-3.1597004,12.7392998-8.0473995c3.3584137-7.0591002,0.4862976-15.2104206-6.5371017-18.5585709   c-1.9413986-0.924803-4.0009995-1.394042-6.1231003-1.394042c-5.3680992,0-10.1708984,2.9917018-12.5331993,7.8081021   c-1.6561852,3.3813105-1.8661842,7.2373104-0.5907993,10.8579102   C22.085886,22.2675991,24.6464863,25.1221008,28.0263863,26.7040997z M24.9990005,9.5693398   c1.6845856-3.4350595,5.110384-5.5688496,8.9413834-5.5688496c1.5214996,0,3.0030022,0.3378897,4.402401,1.00488   c5,2.38379,7.0410004,8.1943302,4.6455002,13.2304296c-1.6631012,3.5020008-5.2450981,5.7646999-9.1269989,5.7646999   c-1.4424019,0-2.8349018-0.3095989-4.1396008-0.9193993c-2.4004002-1.1231003-4.2226849-3.1631012-5.1319008-5.7441998   C23.6728859,14.7368002,23.8183861,11.9779997,24.9990005,9.5693398z"/><path d="M38.3534851,47.107399c-1.044899,0.3565025-1.6034851,1.4932022-1.2461014,2.5386009   c0.3955002,1.1581993,0.7821999,2.3676987,1.1767998,3.5980988c1.3838158,4.3223,2.815403,8.7915001,4.9902,12.532299   c1.8213005,3.1400986,4.4395027,4.921402,7.6729012,6.9238052c0.3280983,0.2030945,0.6913986,0.3003006,1.0507164,0.3003006   c0.6699982,0,1.3242836-0.3364029,1.7021828-0.9473038c0.5820007-0.9393997,0.2919998-2.1718979-0.6474991-2.7534027   c-3.357399-2.0795975-5.0663986-3.3715973-6.3193016-5.5316963c-1.9569969-3.3666992-3.3212967-7.6254997-4.6395988-11.7437019   c-0.402401-1.2557983-0.7979012-2.4888-1.2011986-3.6703987C40.5370865,47.3086014,39.403286,46.75,38.3534851,47.107399z"/><circle cx="58" cy="75.9997482" r="2"/></g></svg>