<?xml version="1.0" ?><svg id="Layer_1" style="enable-background:new 0 0 64 64;" version="1.1" viewBox="0 0 64 64" xml:space="preserve" xmlns="http://www.w3.org/2000/svg" xmlns:xlink="http://www.w3.org/1999/xlink"><style type="text/css">
	.st0{fill:#010101;}
	.st1{fill:#030303;}
</style><g><g><path class="st0" d="M1.7,28.9h3.9c0.4,0,0.7-0.3,0.7-0.6c0.8-5.6,3.3-10.7,7.3-14.6c0.1-0.1,0.2-0.3,0.2-0.5    c0-0.2-0.1-0.4-0.2-0.5l-2.7-2.7c-0.1-0.1-0.3-0.2-0.5-0.2S10,9.8,9.9,9.9c-5,4.9-8,11.2-8.9,18.2c0,0.2,0,0.4,0.2,0.6    C1.3,28.8,1.5,28.9,1.7,28.9z"/><path class="st0" d="M16.8,10.2c0.2,0.3,0.6,0.3,0.9,0.1C21.9,7.5,26.9,6,32,6c5.1,0,10,1.5,14.2,4.3c0.1,0.1,0.3,0.1,0.4,0.1    c0.2,0,0.4-0.1,0.5-0.2l2.7-2.7c0.1-0.1,0.2-0.4,0.2-0.6c0-0.2-0.1-0.4-0.3-0.5C44.6,2.7,38.4,0.8,32,0.8    c-6.4,0-12.6,1.9-17.9,5.6c-0.2,0.1-0.3,0.3-0.3,0.5c0,0.2,0.1,0.4,0.2,0.6L16.8,10.2z"/><path class="st0" d="M50.3,13.7c4,3.9,6.5,9,7.3,14.6c0.1,0.4,0.4,0.6,0.7,0.6h3.9c0.2,0,0.4-0.1,0.5-0.2c0.1-0.2,0.2-0.4,0.2-0.6    c-0.9-7-4-13.2-9-18.2c-0.3-0.3-0.7-0.3-1,0l-2.7,2.7c-0.1,0.1-0.2,0.3-0.2,0.5C50.1,13.3,50.2,13.5,50.3,13.7z"/><path class="st0" d="M62.5,31.3h-3.8c-0.4,0-0.7,0.3-0.7,0.7c0,14.3-11.7,26-26,26C17.7,58,6,46.3,6,32c0-0.4-0.3-0.7-0.7-0.7H1.5    c-0.4,0-0.7,0.3-0.7,0.7c0,17.2,14,31.3,31.3,31.3c17.2,0,31.3-14,31.3-31.3C63.3,31.6,62.9,31.3,62.5,31.3z"/><path class="st0" d="M34.9,31.2c-0.4,0-0.7,0.3-0.7,0.7v14.6c0,0.4,0.3,0.7,0.7,0.7h4.7c0.4,0,0.7-0.3,0.7-0.7V31.9    c0-0.4-0.3-0.7-0.7-0.7H34.9z"/><path class="st0" d="M45.5,27.3c-0.4,0-0.7,0.3-0.7,0.7v18.4c0,0.4,0.3,0.7,0.7,0.7h4.7c0.4,0,0.7-0.3,0.7-0.7V28.1    c0-0.4-0.3-0.7-0.7-0.7H45.5z"/><path class="st0" d="M13.8,34.4c-0.4,0-0.7,0.3-0.7,0.7v11.4c0,0.4,0.3,0.7,0.7,0.7h4.7c0.4,0,0.7-0.3,0.7-0.7V35.1    c0-0.4-0.3-0.7-0.7-0.7H13.8z"/><path class="st0" d="M24.3,26.2c-0.4,0-0.7,0.3-0.7,0.7v19.6c0,0.4,0.3,0.7,0.7,0.7h4.7c0.4,0,0.7-0.3,0.7-0.7V26.9    c0-0.4-0.3-0.7-0.7-0.7H24.3z"/><path class="st0" d="M47.8,16.2c-1.7,0-3.1,1.4-3.1,3.1c0,0.3,0.1,0.6,0.1,0.8l-5.3,2.9c-0.6-0.6-1.4-1-2.2-1    c-0.7,0-1.3,0.2-1.8,0.5l-6.1-5.3c0.2-0.4,0.4-0.9,0.4-1.4c0-1.7-1.4-3.1-3.1-3.1s-3.1,1.4-3.1,3.1c0,0.6,0.2,1.2,0.5,1.7    l-6.5,7.2c-0.4-0.2-0.9-0.4-1.5-0.4c-1.7,0-3.1,1.4-3.1,3.1c0,1.7,1.4,3.1,3.1,3.1c1.7,0,3.1-1.4,3.1-3.1c0-0.6-0.2-1.2-0.5-1.7    l6.5-7.2c0.4,0.2,0.9,0.4,1.5,0.4c0.7,0,1.3-0.2,1.8-0.6l6,5.2c-0.2,0.4-0.4,0.9-0.4,1.5c0,1.7,1.4,3.1,3.1,3.1    c1.7,0,3.1-1.4,3.1-3.1c0-0.3-0.1-0.6-0.1-0.9l5.3-2.9c0.6,0.6,1.4,1,2.3,1c1.7,0,3.1-1.4,3.1-3.1C50.9,17.6,49.5,16.2,47.8,16.2z    "/></g></g></svg>