<?xml version="1.0" encoding="utf-8"?>
<!-- Svg Vector Icons : http://www.onlinewebfonts.com/icon -->
<!DOCTYPE svg PUBLIC "-//W3C//DTD SVG 1.1//EN" "http://www.w3.org/Graphics/SVG/1.1/DTD/svg11.dtd">
<svg version="1.1" xmlns="http://www.w3.org/2000/svg" xmlns:xlink="http://www.w3.org/1999/xlink" x="0px" y="0px" viewBox="0 0 1000 1000" enable-background="new 0 0 1000 1000" xml:space="preserve">
<metadata> Svg Vector Icons : http://www.onlinewebfonts.com/icon </metadata>
<g><path d="M548.8,782.2h24.7c-7.4,14.7-11.3,23.1-11.3,23.1L548.8,782.2z M959.4,596.7C856.3,618.9,644.3,868.1,575.5,990c-97.4-116.3-212-205-292.2-232.7l189.1-110.8l7.4,13.8h154.1v13.1c-5.7,9.6-11.1,18.8-16.2,27.5h-116l-2.3-3.9l64.7,121.2c0,0,148.9-349,383.8-465.4C942.1,436,919.3,508,959.4,596.7z M294.8,294.5h339v40.7h-339V294.5z M633.9,579h-203l-5-8.7l-16.2,8.7H294.8v-40.7h339L633.9,579L633.9,579z M294.8,416.4h339v40.6h-339V416.4z M252.5,822.8h-42.3v-40.6h42.3V822.8L252.5,822.8z M252.5,663.7l-42.3,22.8v-26.3h42.3V663.7L252.5,663.7z M252.5,579h-42.3v-40.7h42.3V579L252.5,579z M210.1,294.5h42.3v40.7h-42.3V294.5L210.1,294.5z M252.5,457.1h-42.3v-40.6h42.3V457.1L252.5,457.1z M334.3,822.8h-39.4v-26.4C307.8,804.7,321,813.6,334.3,822.8z M718.6,210.7H549.1V91.3H125.4v810.3h310.5c30.6,26,61,54.1,90.9,83.8H40.6V10h590.6l172.1,162.6v262.2c-31,36.5-59.3,73.4-84.8,109V210.7z M718.6,901.6v-45.3c26.7-31,55.2-62.5,84.8-93.4v222.5H616c18.7-26.1,40.6-54.4,64.5-83.8H718.6z"/></g>
</svg>