<?xml version="1.0" encoding="utf-8"?>
<!-- Svg Vector Icons : http://www.onlinewebfonts.com/icon -->
<!DOCTYPE svg PUBLIC "-//W3C//DTD SVG 1.1//EN" "http://www.w3.org/Graphics/SVG/1.1/DTD/svg11.dtd">
<svg version="1.1" xmlns="http://www.w3.org/2000/svg" xmlns:xlink="http://www.w3.org/1999/xlink" x="0px" y="0px" viewBox="0 0 1000 1000" enable-background="new 0 0 1000 1000" xml:space="preserve">
<metadata> Svg Vector Icons : http://www.onlinewebfonts.com/icon </metadata>
<g><g transform="translate(0.000000,512.000000) scale(0.100000,-0.100000)"><path d="M482.8,120v-4900h1378.1h1378.1V120v4900H1860.9H482.8V120z M2894.5,2388.2V464.5H1841.8H789.1v1923.6v1923.6h1052.7h1052.7V2388.2z M2195.9-1866.8c313.9-114.8,570.4-394.3,662.3-721.6c42.1-153.1,34.5-434.5-17.2-587.6c-149.3-432.6-549.3-723.5-999.1-723.5c-769.5,0-1278.6,815.4-937.9,1502.5c134,269.9,377.1,474.7,664.2,557C1709.7-1799.8,2052.3-1815.1,2195.9-1866.8z"/><path d="M3583.6,120v-4900h1406.8h1406.8V120v4900H4990.4H3583.6V120z M6033.6,2388.2V464.5H4990.4H3947.3v1923.6v1923.6h1043.2h1043.2V2388.2z M5308.2-1857.2c446-151.2,725.4-537.9,725.4-1001.1c0-287.1-103.4-532.1-306.3-735c-202.9-204.8-447.9-306.3-736.9-306.3c-289,0-534,101.4-736.9,306.3c-204.8,202.9-306.3,447.9-306.3,736.9c0,461.3,279.5,847.9,725.4,999.1c97.6,32.5,170.3,42.1,317.7,42.1C5137.8-1815.1,5210.5-1824.7,5308.2-1857.2z"/><path d="M6741.8,120v-4900h1387.7h1387.7V120v4900H8129.5H6741.8V120z M9191.8,2388.2V464.5H8139.1H7086.3v1923.6v1923.6h1052.7h1052.7V2388.2z M8405.1-1841.9c243.1-63.2,472.8-235.4,618.2-459.4c212.5-327.3,210.5-784.8-3.8-1119.7c-134-210.5-384.7-388.5-637.4-451.7c-162.7-42.1-440.2-28.7-597.2,30.6c-727.3,275.6-928.3,1184.8-384.7,1728.4c126.3,126.3,329.2,243.1,480.4,279.5C7999.3-1807.5,8290.3-1811.3,8405.1-1841.9z"/></g></g>
</svg>