<?xml version="1.0" encoding="utf-8"?>
<!-- Svg Vector Icons : http://www.onlinewebfonts.com/icon -->
<!DOCTYPE svg PUBLIC "-//W3C//DTD SVG 1.1//EN" "http://www.w3.org/Graphics/SVG/1.1/DTD/svg11.dtd">
<svg version="1.1" xmlns="http://www.w3.org/2000/svg" xmlns:xlink="http://www.w3.org/1999/xlink" x="0px" y="0px" viewBox="0 0 1000 1000" enable-background="new 0 0 1000 1000" xml:space="preserve">
<metadata> Svg Vector Icons : http://www.onlinewebfonts.com/icon </metadata>
<g><g><path d="M454.8,212.3h28.5v161.4c0,5.9,4.7,10.6,10.6,10.6h21.8c5.9,0,10.6-4.7,10.6-10.6v-193c0-5.9-4.7-10.6-10.6-10.6h-60.9c-5.9,0-10.6,4.7-10.6,10.6v21C444.2,207.6,449,212.3,454.8,212.3z"/><path d="M298.1,788.1h-79.9l42.5-45c16.9-18,37-44.8,37-69.8c0-34.7-27.9-58-69.3-58c-24.9,0-51.2,10.7-72.1,29.5c-3.7,3.3-4.6,8.7-2.2,13l9.6,17.7c1.6,2.9,4.4,4.9,7.7,5.4c3.3,0.5,6.6-0.6,9-2.9c13.6-13.2,30.5-21,45.3-21c12.8,0,28,3.4,28,19.4c0,7.8-7.2,22.9-23.4,39.1c-0.1,0.1-0.2,0.2-0.3,0.3l-72.3,78.6c-1.8,2-2.8,4.5-2.8,7.2v18.2c0,5.9,4.7,10.6,10.6,10.6h132.6c5.9,0,10.6-4.7,10.6-10.6v-21C308.7,792.8,304,788.1,298.1,788.1z"/><path d="M769.3,502c-20.6,0-40.5,2.9-59.4,8.2L651,438c42.9-40.3,69.7-97.4,69.7-160.7c0-121.7-99-220.7-220.7-220.7c-121.7,0-220.7,99-220.7,220.7c0,63.3,26.8,120.5,69.7,160.7l-58.9,72.2c-18.9-5.3-38.8-8.2-59.4-8.2C109,502,10,601,10,722.7c0,121.7,99,220.7,220.7,220.7c113.7,0,207.6-86.4,219.4-197h99.7c11.9,110.6,105.7,197,219.4,197c121.7,0,220.7-99,220.7-220.7C990,601,891,502,769.3,502z M321.3,277.3c0-98.5,80.1-178.7,178.7-178.7c98.5,0,178.7,80.1,178.7,178.7c0,98.5-80.1,178.6-178.7,178.6C401.5,455.9,321.3,375.8,321.3,277.3z M377.9,461c35,23.3,77,37,122.1,37c45.1,0,87.1-13.6,122.1-37l51.3,62.9C603.4,557.8,553.9,627.7,549,709.5h-98c-4.9-81.7-54.4-151.6-124.5-185.5L377.9,461z M230.7,901.4c-98.5,0-178.7-80.1-178.7-178.7c0-98.5,80.1-178.6,178.7-178.6c98.5,0,178.6,80.1,178.6,178.6C409.4,821.3,329.2,901.4,230.7,901.4z M769.3,901.4c-98.5,0-178.6-80.1-178.6-178.7c0-98.5,80.1-178.6,178.6-178.6c98.5,0,178.7,80.1,178.7,178.6C947.9,821.3,867.8,901.4,769.3,901.4z"/><path d="M786.8,698.5l45.6-50.6c1.8-2,2.7-4.5,2.7-7.1v-14.9c0-5.9-4.7-10.6-10.6-10.6H713.5c-5.9,0-10.6,4.8-10.6,10.6v21c0,5.9,4.7,10.6,10.6,10.6h59.6l-40.5,44.9c-1.8,1.9-2.7,4.5-2.7,7.1v14.1c0,5.9,4.7,10.6,10.6,10.6h23.7c24.8,0,37.3,8.8,37.3,26c0,18.2-13.9,29.1-37.1,29.1c-15.2,0-31-5.8-43.2-15.8c-2.5-2-5.7-2.8-8.8-2.2c-3.1,0.6-5.8,2.7-7.3,5.5l-9.6,18.5c-2.4,4.7-1.1,10.4,3.2,13.5c18.7,13.5,43.9,21.6,67.4,21.6c46.7,0,78.1-28.5,78.1-71C844.3,726.9,822.1,703.8,786.8,698.5z"/></g><g></g><g></g><g></g><g></g><g></g><g></g><g></g><g></g><g></g><g></g><g></g><g></g><g></g><g></g><g></g></g>
</svg>