<?xml version="1.0" encoding="utf-8"?>
<!-- Svg Vector Icons : http://www.onlinewebfonts.com/icon -->
<!DOCTYPE svg PUBLIC "-//W3C//DTD SVG 1.1//EN" "http://www.w3.org/Graphics/SVG/1.1/DTD/svg11.dtd">
<svg version="1.1" xmlns="http://www.w3.org/2000/svg" xmlns:xlink="http://www.w3.org/1999/xlink" x="0px" y="0px" viewBox="0 0 1000 1000" enable-background="new 0 0 1000 1000" xml:space="preserve">
<metadata> Svg Vector Icons : http://www.onlinewebfonts.com/icon </metadata>
<g><g transform="translate(0.000000,510.000000) scale(0.100000,-0.100000)"><path d="M100,4894.7v-86.1h4900h4900v86.1v86.1H5000H100V4894.7z"/><path d="M444.5,1947.1V-818.8h870.9h870.9l-3.8,1106.3c-5.7,926.4-9.6,1104.4-32.5,1104.4c-17.2,0-61.3-109.1-130.2-315.8l-103.4-315.8l11.5-551.2c9.6-484.3,7.7-558.9-21.1-616.3c-63.2-132.1-239.3-183.7-365.6-105.3c-126.3,76.6-126.3,76.6-141.6,729.3l-15.3,591.4l187.6,585.7c130.2,402,202.9,599.1,233.5,633.6c91.9,99.5,470.9,239.3,765.6,281.4l86.1,13.4l109.1-155l107.2-153.1l-107.2-878.6L2657.2,257l122.5-137.8l122.5-139.7l55.5,65.1c30.6,36.4,84.2,99.5,118.7,141.7l63.2,76.6l-107.2,874.7l-107.2,874.7l93.8,135.9c51.7,74.6,103.4,143.6,114.8,153.1c30.6,24.9,300.5-23,478.5-82.3c191.4-65.1,367.5-158.9,403.9-214.4c17.2-26.8,101.4-268,189.5-537.9c86.1-268,164.6-495.7,174.2-503.4c9.6-7.7,214.4-103.4,453.6-212.5l436.4-199.1l893.9,893.9c491.9,491.9,903.4,893.9,914.9,893.9c28.7,0,65.1-42.1,65.1-76.6c0-15.3-390.5-419.2-869-897.7l-869-869l45.9-65.1c91.9-135.9,70.8-285.2-53.6-377.1c-107.2-76.6-172.3-57.4-780.9,220.1c-310.1,141.6-589.5,273.7-622.1,294.8c-51.7,34.4-72.7,84.2-191.4,436.4c-126.3,371.3-160.8,440.2-189.5,365.6c-5.7-17.2-11.5-516.8-11.5-1110.2V-818.8h2976.4h2976.4v2765.8v2765.8H5000H444.5V1947.1z M3195,3805.6c139.7-63.2,292.8-214.4,356-350.3c61.3-132.1,61.3-453.6,0-585.7c-59.3-126.3-220.1-290.9-348.4-352.2c-95.7-47.9-128.2-53.6-298.6-53.6c-178,0-201,3.8-319.7,63.2c-484.3,237.4-532.1,916.8-84.2,1223.1c134,91.9,243.1,120.6,423,114.8C3041.9,3859.2,3103.2,3845.8,3195,3805.6z"/><path d="M1916.4-1190.1c-195.2-51.7-346.5-181.8-436.4-375.1c-42.1-88-49.8-132.1-49.8-268s7.7-179.9,51.7-271.8c204.8-436.4,775.2-522.5,1096.8-162.7c122.5,135.9,168.4,269.9,158.9,472.8c-7.7,128.2-19.1,183.7-59.3,258.4c-88.1,170.4-220.1,281.4-398.1,336.9C2148-1157.5,2042.8-1155.6,1916.4-1190.1z"/><path d="M4913.9-1188.2c-202.9-68.9-357.9-201-436.4-373.2c-63.2-134-59.3-417.3,5.7-549.3c201-411.5,746.5-509.1,1062.3-193.3c149.3,151.2,191.4,250.7,191.4,470.8c0,216.3-34.5,310.1-170.4,455.5C5407.7-1207.3,5112.9-1123.1,4913.9-1188.2z"/><path d="M7884.5-1199.7c-480.4-158.9-618.2-773.3-246.9-1114c235.4-218.2,587.6-239.3,847.9-47.9c390.5,287.1,333.1,907.3-105.3,1121.6C8223.3-1161.4,8043.4-1148,7884.5-1199.7z"/><path d="M1606.4-2646.7c-329.2-63.2-574.2-199.1-706.3-392.4C777.6-3219,769.9-3282.1,769.9-4076.5v-704.4h239.3h239.3v620.2c0,539.7,3.8,625.9,30.6,650.8c34.5,36.4,53.6,38.3,105.3,11.5c34.5-19.1,36.4-47.9,36.4-650.8v-631.6h660.4h660.4v618.2c0,576.1,1.9,622.1,34.4,650.8c19.1,19.1,47.9,32.5,63.2,32.5c70.8,0,74.6-30.6,74.6-673.8v-627.8h248.8h248.8v618.2c0,704.4-15.3,886.2-86.1,1033.6c-97.6,208.6-325.4,367.5-650.8,455.5C2473.4-2619.9,1839.9-2602.7,1606.4-2646.7z"/><path d="M4622.9-2644.8c-409.6-78.5-664.2-241.2-788.6-509.1l-49.8-105.3l-5.7-759.9l-5.7-761.8h241.2h239.3v631.6c0,602.9,1.9,631.6,36.4,650.8c51.7,26.8,70.8,24.9,105.3-11.5c26.8-24.9,30.6-111,30.6-650.8v-620.2h660.4h660.4v620.2c0,539.7,3.8,625.9,30.6,650.8c34.5,36.4,53.6,38.3,105.3,11.5c34.5-19.1,36.4-47.9,36.4-650.8v-631.6h241.2h239.3l-5.7,761.8l-5.7,759.9l-63.2,128.2c-109.1,222-319.6,371.3-645,457.5C5482.3-2619.9,4843-2604.6,4622.9-2644.8z"/><path d="M7628-2644.8c-398.1-76.6-668-243.1-780.9-484.2c-70.8-147.4-86.1-329.2-86.1-1033.6v-618.2h248.8h248.8v631.6v631.6l47.9,23c40.2,17.2,53.6,15.3,86.1-13.4c36.4-32.5,38.3-59.3,38.3-654.6v-618.2h660.4h660.4v631.6c0,602.9,1.9,631.6,36.4,650.8c51.7,26.8,70.8,24.9,105.3-11.5c26.8-24.9,30.6-111,30.6-650.8v-620.2h239.3h239.3v704.4c0,392.4-9.6,738.8-19.1,784.8c-70.8,306.3-304.3,513-702.5,620.2C8489.3-2619.9,7846.2-2604.6,7628-2644.8z"/></g></g>
</svg>