<svg xmlns="http://www.w3.org/2000/svg" xmlns:svg="http://www.w3.org/2000/svg" viewBox="-0.35 -0.35 140.7 40.7" width="804px" height="232.571429px" version="1.1" id="svg18">
  <defs id="defs22"/>
  <g id="g16">
    <path d="m 84,22.4272 h 32.26395 a 4,4 90 0 0 4,-4 v -4.8544 a 4,4 90 0 0 -4,-4 h -92.5279 a 4,4 90 0 0 -4,4 v 4.8544 a 4,4 90 0 0 4,4 H 70 a 8,8 90 0 1 8,8" fill="none" stroke="#00aa00" stroke-width="0.2" id="path2"/>
    <g font-family="'HelveticaNeueLT Com 65 Md'" font-size="4px" fill="#000000" transform="translate(0,12.5728)" id="g8">
      <g aria-label="Shay is the key piece we've been missing for years," transform="translate(22.60405,2.856)" id="text4">
        <path d="m 0.632,-0.952 q 0,0.164 0.056,0.28 0.056,0.116 0.156,0.192 0.1,0.072 0.228,0.108 0.132,0.032 0.284,0.032 0.164,0 0.28,-0.036 0.116,-0.04 0.188,-0.1 0.072,-0.06 0.104,-0.136 0.032,-0.08 0.032,-0.16 0,-0.164 -0.076,-0.24 Q 1.812,-1.092 1.724,-1.124 1.572,-1.18 1.368,-1.228 1.168,-1.28 0.872,-1.36 0.688,-1.408 0.564,-1.484 0.444,-1.564 0.372,-1.66 0.3,-1.756 0.268,-1.864 0.24,-1.972 0.24,-2.084 q 0,-0.216 0.088,-0.372 0.092,-0.16 0.24,-0.264 0.148,-0.104 0.336,-0.152 0.188,-0.052 0.38,-0.052 0.224,0 0.42,0.06 0.2,0.056 0.348,0.172 0.152,0.116 0.24,0.288 0.088,0.168 0.088,0.392 H 1.88 Q 1.86,-2.288 1.692,-2.4 1.524,-2.516 1.264,-2.516 q -0.088,0 -0.18,0.02 -0.092,0.016 -0.168,0.06 -0.076,0.04 -0.128,0.112 -0.048,0.072 -0.048,0.18 0,0.152 0.092,0.24 0.096,0.084 0.248,0.128 0.016,0.004 0.124,0.036 0.112,0.028 0.248,0.064 0.136,0.036 0.264,0.072 0.132,0.032 0.188,0.048 0.14,0.044 0.244,0.12 0.104,0.076 0.172,0.176 0.072,0.096 0.104,0.208 0.036,0.112 0.036,0.224 0,0.24 -0.1,0.412 Q 2.264,-0.248 2.104,-0.14 1.944,-0.032 1.74,0.016 1.536,0.068 1.324,0.068 1.08,0.068 0.864,0.008 0.648,-0.052 0.488,-0.176 0.328,-0.3 0.232,-0.492 0.136,-0.688 0.132,-0.952 Z" id="path24"/>
        <path d="m 2.8319952,-2.856 h 0.456 v 1.06 h 0.008 q 0.084,-0.14 0.248,-0.232 0.168,-0.096 0.372,-0.096 0.34,0 0.536,0.176 0.196,0.176 0.196,0.528 V 0 h -0.456 v -1.3 q -0.008,-0.244 -0.104,-0.352 -0.096,-0.112 -0.3,-0.112 -0.116,0 -0.208,0.044 -0.092,0.04 -0.156,0.116 -0.064,0.072 -0.1,0.172 -0.036,0.1 -0.036,0.212 V 0 h -0.456 z" id="path26"/>
        <path d="m 6.8599929,-0.46 q 0,0.084 0.02,0.12 0.024,0.036 0.088,0.036 0.02,0 0.048,0 0.028,0 0.064,-0.008 v 0.316 q -0.024,0.008 -0.064,0.016 -0.036,0.012 -0.076,0.02 -0.04,0.008 -0.08,0.012 -0.04,0.004 -0.068,0.004 -0.14,0 -0.232,-0.056 -0.092,-0.056 -0.12,-0.196 -0.136,0.132 -0.336,0.192 -0.196,0.06 -0.38,0.06 -0.14,0 -0.268,-0.04 -0.128,-0.036 -0.228,-0.108 -0.096,-0.076 -0.156,-0.188 -0.056,-0.116 -0.056,-0.268 0,-0.192 0.068,-0.312 0.072,-0.12 0.184,-0.188 0.116,-0.068 0.256,-0.096 0.144,-0.032 0.288,-0.048 0.124,-0.024 0.236,-0.032 0.112,-0.012 0.196,-0.036 0.088,-0.024 0.136,-0.072 0.052,-0.052 0.052,-0.152 0,-0.088 -0.044,-0.144 -0.04,-0.056 -0.104,-0.084 -0.06,-0.032 -0.136,-0.04 -0.076,-0.012 -0.144,-0.012 -0.192,0 -0.316,0.08 -0.124,0.08 -0.14,0.248 h -0.456 q 0.012,-0.2 0.096,-0.332 0.084,-0.132 0.212,-0.212 0.132,-0.08 0.296,-0.112 0.164,-0.032 0.336,-0.032 0.152,0 0.3,0.032 0.148,0.032 0.264,0.104 0.12,0.072 0.192,0.188 0.072,0.112 0.072,0.276 z m -0.456,-0.576 q -0.104,0.068 -0.256,0.084 -0.152,0.012 -0.304,0.04 -0.072,0.012 -0.14,0.036 -0.068,0.02 -0.12,0.06 -0.052,0.036 -0.084,0.1 -0.028,0.06 -0.028,0.148 0,0.076 0.044,0.128 0.044,0.052 0.104,0.084 0.064,0.028 0.136,0.04 0.076,0.012 0.136,0.012 0.076,0 0.164,-0.02 0.088,-0.02 0.164,-0.068 0.08,-0.048 0.132,-0.12 0.052,-0.076 0.052,-0.184 z" id="path28"/>
        <path d="m 7.1239919,-2.068 h 0.5 l 0.54,1.544 h 0.008 l 0.524,-1.544 h 0.476 l -0.804,2.18 q -0.056,0.14 -0.112,0.268 -0.052,0.128 -0.132,0.224 -0.076,0.1 -0.192,0.156 -0.116,0.06 -0.296,0.06 -0.16,0 -0.316,-0.024 V 0.412 q 0.056,0.008 0.108,0.016 0.052,0.012 0.108,0.012 0.08,0 0.132,-0.02 0.052,-0.02 0.084,-0.06 0.036,-0.036 0.06,-0.088 0.024,-0.052 0.044,-0.12 l 0.052,-0.16 z" id="path30"/>
        <path d="m 10.551988,-2.856 h 0.456 v 0.432 h -0.456 z m 0,0.788 h 0.456 V 0 h -0.456 z" id="path32"/>
        <path d="m 11.847985,-0.664 q 0.02,0.2 0.152,0.28 0.132,0.08 0.316,0.08 0.064,0 0.144,-0.008 0.084,-0.012 0.156,-0.04 0.072,-0.028 0.116,-0.08 0.048,-0.056 0.044,-0.144 -0.004,-0.088 -0.064,-0.144 -0.06,-0.056 -0.156,-0.088 -0.092,-0.036 -0.212,-0.06 -0.12,-0.024 -0.244,-0.052 -0.128,-0.028 -0.248,-0.068 -0.116,-0.04 -0.212,-0.108 -0.092,-0.068 -0.148,-0.172 -0.056,-0.108 -0.056,-0.264 0,-0.168 0.08,-0.28 0.084,-0.116 0.208,-0.184 0.128,-0.072 0.28,-0.1 0.156,-0.028 0.296,-0.028 0.16,0 0.304,0.036 0.148,0.032 0.264,0.108 0.12,0.076 0.196,0.2 0.08,0.12 0.1,0.292 h -0.476 q -0.032,-0.164 -0.152,-0.22 -0.116,-0.056 -0.268,-0.056 -0.048,0 -0.116,0.008 -0.064,0.008 -0.124,0.032 -0.056,0.02 -0.096,0.064 -0.04,0.04 -0.04,0.108 0,0.084 0.056,0.136 0.06,0.052 0.152,0.088 0.096,0.032 0.216,0.056 0.12,0.024 0.248,0.052 0.124,0.028 0.244,0.068 0.12,0.04 0.212,0.108 0.096,0.068 0.152,0.172 0.06,0.104 0.06,0.256 0,0.184 -0.084,0.312 -0.084,0.128 -0.22,0.208 -0.132,0.08 -0.296,0.116 -0.164,0.036 -0.324,0.036 -0.196,0 -0.364,-0.044 -0.164,-0.044 -0.288,-0.132 -0.12,-0.092 -0.192,-0.224 -0.068,-0.136 -0.072,-0.32 z" id="path34"/>
        <path d="m 14.483981,-2.068 h 0.344 v -0.62 h 0.456 v 0.62 h 0.412 v 0.34 h -0.412 v 1.104 q 0,0.072 0.004,0.124 0.008,0.052 0.028,0.088 0.024,0.036 0.068,0.056 0.044,0.016 0.12,0.016 0.048,0 0.096,0 0.048,-0.004 0.096,-0.016 v 0.352 q -0.076,0.008 -0.148,0.016 -0.072,0.008 -0.148,0.008 -0.18,0 -0.292,-0.032 -0.108,-0.036 -0.172,-0.1 -0.06,-0.068 -0.084,-0.168 -0.02,-0.1 -0.024,-0.228 v -1.22 h -0.344 z" id="path36"/>
        <path d="m 16.023974,-2.856 h 0.456 v 1.06 h 0.008 q 0.084,-0.14 0.248,-0.232 0.168,-0.096 0.372,-0.096 0.34,0 0.536,0.176 0.196,0.176 0.196,0.528 V 0 h -0.456 v -1.3 q -0.008,-0.244 -0.104,-0.352 -0.096,-0.112 -0.3,-0.112 -0.116,0 -0.208,0.044 -0.092,0.04 -0.156,0.116 -0.064,0.072 -0.1,0.172 -0.036,0.1 -0.036,0.212 V 0 h -0.456 z" id="path38"/>
        <path d="m 19.739971,-1.216 q -0.008,-0.108 -0.048,-0.208 -0.036,-0.1 -0.104,-0.172 -0.064,-0.076 -0.16,-0.12 -0.092,-0.048 -0.208,-0.048 -0.12,0 -0.22,0.044 -0.096,0.04 -0.168,0.116 -0.068,0.072 -0.112,0.172 -0.04,0.1 -0.044,0.216 z m -1.064,0.3 q 0,0.12 0.032,0.232 0.036,0.112 0.104,0.196 0.068,0.084 0.172,0.136 0.104,0.048 0.248,0.048 0.2,0 0.32,-0.084 0.124,-0.088 0.184,-0.26 h 0.432 q -0.036,0.168 -0.124,0.3 -0.088,0.132 -0.212,0.224 -0.124,0.088 -0.28,0.132 -0.152,0.048 -0.32,0.048 -0.244,0 -0.432,-0.08 -0.188,-0.08 -0.32,-0.224 -0.128,-0.144 -0.196,-0.344 -0.064,-0.2 -0.064,-0.44 0,-0.22 0.068,-0.416 0.072,-0.2 0.2,-0.348 0.132,-0.152 0.316,-0.24 0.184,-0.088 0.416,-0.088 0.244,0 0.436,0.104 0.196,0.1 0.324,0.268 0.128,0.168 0.184,0.388 0.06,0.216 0.032,0.448 z" id="path40"/>
        <path d="m 21.66797,-2.856 h 0.456 v 1.624 l 0.824,-0.836 h 0.56 l -0.792,0.76 0.868,1.308 h -0.556 l -0.632,-1.004 -0.272,0.264 V 0 h -0.456 z" id="path42"/>
        <path d="m 25.223965,-1.216 q -0.008,-0.108 -0.048,-0.208 -0.036,-0.1 -0.104,-0.172 -0.064,-0.076 -0.16,-0.12 -0.092,-0.048 -0.208,-0.048 -0.12,0 -0.22,0.044 -0.096,0.04 -0.168,0.116 -0.068,0.072 -0.112,0.172 -0.04,0.1 -0.044,0.216 z m -1.064,0.3 q 0,0.12 0.032,0.232 0.036,0.112 0.104,0.196 0.068,0.084 0.172,0.136 0.104,0.048 0.248,0.048 0.2,0 0.32,-0.084 0.124,-0.088 0.184,-0.26 h 0.432 q -0.036,0.168 -0.124,0.3 -0.088,0.132 -0.212,0.224 -0.124,0.088 -0.28,0.132 -0.152,0.048 -0.32,0.048 -0.244,0 -0.432,-0.08 -0.188,-0.08 -0.32,-0.224 -0.128,-0.144 -0.196,-0.344 -0.064,-0.2 -0.064,-0.44 0,-0.22 0.068,-0.416 0.072,-0.2 0.2,-0.348 0.132,-0.152 0.316,-0.24 0.184,-0.088 0.416,-0.088 0.244,0 0.436,0.104 0.196,0.1 0.324,0.268 0.128,0.168 0.184,0.388 0.06,0.216 0.032,0.448 z" id="path44"/>
        <path d="m 25.799964,-2.068 h 0.5 l 0.54,1.544 h 0.008 l 0.524,-1.544 h 0.476 l -0.804,2.18 q -0.056,0.14 -0.112,0.268 -0.052,0.128 -0.132,0.224 -0.076,0.1 -0.192,0.156 -0.116,0.06 -0.296,0.06 -0.16,0 -0.316,-0.024 V 0.412 q 0.056,0.008 0.108,0.016 0.052,0.012 0.108,0.012 0.08,0 0.132,-0.02 0.052,-0.02 0.084,-0.06 0.036,-0.036 0.06,-0.088 0.024,-0.052 0.044,-0.12 l 0.052,-0.16 z" id="path46"/>
        <path d="m 29.22796,-2.068 h 0.432 v 0.28 h 0.008 q 0.096,-0.18 0.268,-0.256 0.172,-0.08 0.372,-0.08 0.244,0 0.424,0.088 0.184,0.084 0.304,0.236 0.12,0.148 0.18,0.348 0.06,0.2 0.06,0.428 0,0.208 -0.056,0.404 -0.052,0.196 -0.164,0.348 -0.108,0.148 -0.276,0.24 -0.168,0.088 -0.396,0.088 -0.1,0 -0.2,-0.02 -0.1,-0.016 -0.192,-0.056 -0.092,-0.04 -0.172,-0.1 -0.076,-0.064 -0.128,-0.148 h -0.008 v 1.032 h -0.456 z m 1.592,1.036 q 0,-0.14 -0.036,-0.272 -0.036,-0.132 -0.108,-0.232 -0.072,-0.104 -0.18,-0.164 -0.108,-0.064 -0.248,-0.064 -0.288,0 -0.436,0.2 -0.144,0.2 -0.144,0.532 0,0.156 0.036,0.292 0.04,0.132 0.116,0.228 0.076,0.096 0.18,0.152 0.108,0.056 0.248,0.056 0.156,0 0.264,-0.064 0.108,-0.064 0.176,-0.164 0.072,-0.104 0.1,-0.232 0.032,-0.132 0.032,-0.268 z" id="path48"/>
        <path d="m 31.671952,-2.856 h 0.456 v 0.432 h -0.456 z m 0,0.788 h 0.456 V 0 h -0.456 z" id="path50"/>
        <path d="m 34.043949,-1.216 q -0.008,-0.108 -0.048,-0.208 -0.036,-0.1 -0.104,-0.172 -0.064,-0.076 -0.16,-0.12 -0.092,-0.048 -0.208,-0.048 -0.12,0 -0.22,0.044 -0.096,0.04 -0.168,0.116 -0.068,0.072 -0.112,0.172 -0.04,0.1 -0.044,0.216 z m -1.064,0.3 q 0,0.12 0.032,0.232 0.036,0.112 0.104,0.196 0.068,0.084 0.172,0.136 0.104,0.048 0.248,0.048 0.2,0 0.32,-0.084 0.124,-0.088 0.184,-0.26 h 0.432 q -0.036,0.168 -0.124,0.3 -0.088,0.132 -0.212,0.224 -0.124,0.088 -0.28,0.132 -0.152,0.048 -0.32,0.048 -0.244,0 -0.432,-0.08 -0.188,-0.08 -0.32,-0.224 -0.128,-0.144 -0.196,-0.344 -0.064,-0.2 -0.064,-0.44 0,-0.22 0.068,-0.416 0.072,-0.2 0.2,-0.348 0.132,-0.152 0.316,-0.24 0.184,-0.088 0.416,-0.088 0.244,0 0.436,0.104 0.196,0.1 0.324,0.268 0.128,0.168 0.184,0.388 0.06,0.216 0.032,0.448 z" id="path52"/>
        <path d="m 36.243948,-1.376 q -0.028,-0.192 -0.156,-0.288 -0.124,-0.1 -0.316,-0.1 -0.088,0 -0.188,0.032 -0.1,0.028 -0.184,0.112 -0.084,0.08 -0.14,0.228 -0.056,0.144 -0.056,0.38 0,0.128 0.028,0.256 0.032,0.128 0.096,0.228 0.068,0.1 0.172,0.164 0.104,0.06 0.252,0.06 0.2,0 0.328,-0.124 0.132,-0.124 0.164,-0.348 h 0.456 q -0.064,0.404 -0.308,0.62 -0.24,0.212 -0.64,0.212 -0.244,0 -0.432,-0.08 -0.184,-0.084 -0.312,-0.224 -0.128,-0.144 -0.196,-0.34 -0.064,-0.196 -0.064,-0.424 0,-0.232 0.064,-0.436 0.064,-0.204 0.192,-0.352 0.128,-0.152 0.316,-0.236 0.192,-0.088 0.448,-0.088 0.18,0 0.34,0.048 0.164,0.044 0.288,0.136 0.128,0.092 0.208,0.232 0.08,0.14 0.096,0.332 z" id="path54"/>
        <path d="m 38.491947,-1.216 q -0.008,-0.108 -0.048,-0.208 -0.036,-0.1 -0.104,-0.172 -0.064,-0.076 -0.16,-0.12 -0.092,-0.048 -0.208,-0.048 -0.12,0 -0.22,0.044 -0.096,0.04 -0.168,0.116 -0.068,0.072 -0.112,0.172 -0.04,0.1 -0.044,0.216 z m -1.064,0.3 q 0,0.12 0.032,0.232 0.036,0.112 0.104,0.196 0.068,0.084 0.172,0.136 0.104,0.048 0.248,0.048 0.2,0 0.32,-0.084 0.124,-0.088 0.184,-0.26 h 0.432 q -0.036,0.168 -0.124,0.3 -0.088,0.132 -0.212,0.224 -0.124,0.088 -0.28,0.132 -0.152,0.048 -0.32,0.048 -0.244,0 -0.432,-0.08 -0.188,-0.08 -0.32,-0.224 -0.128,-0.144 -0.196,-0.344 -0.064,-0.2 -0.064,-0.44 0,-0.22 0.068,-0.416 0.072,-0.2 0.2,-0.348 0.132,-0.152 0.316,-0.24 0.184,-0.088 0.416,-0.088 0.244,0 0.436,0.104 0.196,0.1 0.324,0.268 0.128,0.168 0.184,0.388 0.06,0.216 0.032,0.448 z" id="path56"/>
        <path d="m 40.219946,-2.068 h 0.484 l 0.404,1.544 h 0.008 l 0.388,-1.544 h 0.46 l 0.372,1.544 h 0.008 l 0.42,-1.544 h 0.464 L 42.579946,0 h -0.468 l -0.384,-1.536 h -0.008 l -0.38,1.536 h -0.48 z" id="path58"/>
        <path d="m 44.939945,-1.216 q -0.008,-0.108 -0.048,-0.208 -0.036,-0.1 -0.104,-0.172 -0.064,-0.076 -0.16,-0.12 -0.092,-0.048 -0.208,-0.048 -0.12,0 -0.22,0.044 -0.096,0.04 -0.168,0.116 -0.068,0.072 -0.112,0.172 -0.04,0.1 -0.044,0.216 z m -1.064,0.3 q 0,0.12 0.032,0.232 0.036,0.112 0.104,0.196 0.068,0.084 0.172,0.136 0.104,0.048 0.248,0.048 0.2,0 0.32,-0.084 0.124,-0.088 0.184,-0.26 h 0.432 q -0.036,0.168 -0.124,0.3 -0.088,0.132 -0.212,0.224 -0.124,0.088 -0.28,0.132 -0.152,0.048 -0.32,0.048 -0.244,0 -0.432,-0.08 -0.188,-0.08 -0.32,-0.224 -0.128,-0.144 -0.196,-0.344 -0.064,-0.2 -0.064,-0.44 0,-0.22 0.068,-0.416 0.072,-0.2 0.2,-0.348 0.132,-0.152 0.316,-0.24 0.184,-0.088 0.416,-0.088 0.244,0 0.436,0.104 0.196,0.1 0.324,0.268 0.128,0.168 0.184,0.388 0.06,0.216 0.032,0.448 z" id="path60"/>
        <path d="m 45.855944,-2.856 h 0.408 v 1.128 h -0.408 z" id="path62"/>
        <path d="m 46.651944,-2.068 h 0.496 l 0.524,1.588 h 0.008 l 0.504,-1.588 h 0.472 l -0.74,2.068 h -0.512 z" id="path64"/>
        <path d="m 50.35194,-1.216 q -0.008,-0.108 -0.048,-0.208 -0.036,-0.1 -0.104,-0.172 -0.064,-0.076 -0.16,-0.12 -0.092,-0.048 -0.208,-0.048 -0.12,0 -0.22,0.044 -0.096,0.04 -0.168,0.116 -0.068,0.072 -0.112,0.172 -0.04,0.1 -0.044,0.216 z m -1.064,0.3 q 0,0.12 0.032,0.232 0.036,0.112 0.104,0.196 0.068,0.084 0.172,0.136 0.104,0.048 0.248,0.048 0.2,0 0.32,-0.084 0.124,-0.088 0.184,-0.26 h 0.432 q -0.036,0.168 -0.124,0.3 -0.088,0.132 -0.212,0.224 -0.124,0.088 -0.28,0.132 -0.152,0.048 -0.32,0.048 -0.244,0 -0.432,-0.08 -0.188,-0.08 -0.32,-0.224 -0.128,-0.144 -0.196,-0.344 -0.064,-0.2 -0.064,-0.44 0,-0.22 0.068,-0.416 0.072,-0.2 0.2,-0.348 0.132,-0.152 0.316,-0.24 0.184,-0.088 0.416,-0.088 0.244,0 0.436,0.104 0.196,0.1 0.324,0.268 0.128,0.168 0.184,0.388 0.06,0.216 0.032,0.448 z" id="path66"/>
        <path d="m 52.279939,-2.856 h 0.456 V -1.8 h 0.008 q 0.048,-0.076 0.116,-0.136 0.068,-0.06 0.148,-0.1 0.084,-0.044 0.172,-0.064 0.092,-0.024 0.18,-0.024 0.244,0 0.424,0.088 0.184,0.084 0.304,0.236 0.12,0.148 0.18,0.348 0.06,0.2 0.06,0.428 0,0.208 -0.056,0.404 -0.052,0.196 -0.164,0.348 -0.108,0.148 -0.276,0.24 -0.168,0.088 -0.396,0.088 -0.104,0 -0.212,-0.016 -0.104,-0.012 -0.2,-0.052 -0.096,-0.04 -0.176,-0.104 -0.076,-0.064 -0.128,-0.168 h -0.008 V 0 h -0.432 z m 1.592,1.824 q 0,-0.14 -0.036,-0.272 -0.036,-0.132 -0.108,-0.232 -0.072,-0.104 -0.18,-0.164 -0.108,-0.064 -0.248,-0.064 -0.288,0 -0.436,0.2 -0.144,0.2 -0.144,0.532 0,0.156 0.036,0.292 0.04,0.132 0.116,0.228 0.076,0.096 0.18,0.152 0.108,0.056 0.248,0.056 0.156,0 0.264,-0.064 0.108,-0.064 0.176,-0.164 0.072,-0.104 0.1,-0.232 0.032,-0.132 0.032,-0.268 z" id="path68"/>
        <path d="m 56.131931,-1.216 q -0.008,-0.108 -0.048,-0.208 -0.036,-0.1 -0.104,-0.172 -0.064,-0.076 -0.16,-0.12 -0.092,-0.048 -0.208,-0.048 -0.12,0 -0.22,0.044 -0.096,0.04 -0.168,0.116 -0.068,0.072 -0.112,0.172 -0.04,0.1 -0.044,0.216 z m -1.064,0.3 q 0,0.12 0.032,0.232 0.036,0.112 0.104,0.196 0.068,0.084 0.172,0.136 0.104,0.048 0.248,0.048 0.2,0 0.32,-0.084 0.124,-0.088 0.184,-0.26 h 0.432 q -0.036,0.168 -0.124,0.3 -0.088,0.132 -0.212,0.224 -0.124,0.088 -0.28,0.132 -0.152,0.048 -0.32,0.048 -0.244,0 -0.432,-0.08 -0.188,-0.08 -0.32,-0.224 -0.128,-0.144 -0.196,-0.344 -0.064,-0.2 -0.064,-0.44 0,-0.22 0.068,-0.416 0.072,-0.2 0.2,-0.348 0.132,-0.152 0.316,-0.24 0.184,-0.088 0.416,-0.088 0.244,0 0.436,0.104 0.196,0.1 0.324,0.268 0.128,0.168 0.184,0.388 0.06,0.216 0.032,0.448 z" id="path70"/>
        <path d="m 58.35593,-1.216 q -0.008,-0.108 -0.048,-0.208 -0.036,-0.1 -0.104,-0.172 -0.064,-0.076 -0.16,-0.12 -0.092,-0.048 -0.208,-0.048 -0.12,0 -0.22,0.044 -0.096,0.04 -0.168,0.116 -0.068,0.072 -0.112,0.172 -0.04,0.1 -0.044,0.216 z m -1.064,0.3 q 0,0.12 0.032,0.232 0.036,0.112 0.104,0.196 0.068,0.084 0.172,0.136 0.104,0.048 0.248,0.048 0.2,0 0.32,-0.084 0.124,-0.088 0.184,-0.26 h 0.432 q -0.036,0.168 -0.124,0.3 -0.088,0.132 -0.212,0.224 -0.124,0.088 -0.28,0.132 -0.152,0.048 -0.32,0.048 -0.244,0 -0.432,-0.08 -0.188,-0.08 -0.32,-0.224 -0.128,-0.144 -0.196,-0.344 -0.064,-0.2 -0.064,-0.44 0,-0.22 0.068,-0.416 0.072,-0.2 0.2,-0.348 0.132,-0.152 0.316,-0.24 0.184,-0.088 0.416,-0.088 0.244,0 0.436,0.104 0.196,0.1 0.324,0.268 0.128,0.168 0.184,0.388 0.06,0.216 0.032,0.448 z" id="path72"/>
        <path d="m 59.15993,-2.068 h 0.432 v 0.304 l 0.008,0.008 q 0.104,-0.172 0.272,-0.268 0.168,-0.1 0.372,-0.1 0.34,0 0.536,0.176 0.196,0.176 0.196,0.528 V 0 h -0.456 v -1.3 q -0.008,-0.244 -0.104,-0.352 -0.096,-0.112 -0.3,-0.112 -0.116,0 -0.208,0.044 -0.092,0.04 -0.156,0.116 -0.064,0.072 -0.1,0.172 -0.036,0.1 -0.036,0.212 V 0 h -0.456 z" id="path74"/>
        <path d="m 62.567927,-2.068 h 0.432 v 0.288 h 0.012 q 0.052,-0.076 0.112,-0.14 0.06,-0.064 0.132,-0.108 0.076,-0.044 0.172,-0.068 0.096,-0.028 0.22,-0.028 0.188,0 0.348,0.084 0.164,0.084 0.232,0.26 0.116,-0.16 0.268,-0.252 0.152,-0.092 0.38,-0.092 0.328,0 0.508,0.16 0.184,0.16 0.184,0.536 V 0 h -0.456 v -1.208 q 0,-0.124 -0.008,-0.224 -0.008,-0.104 -0.048,-0.176 -0.036,-0.076 -0.112,-0.116 -0.076,-0.04 -0.208,-0.04 -0.232,0 -0.336,0.144 -0.104,0.144 -0.104,0.408 V 0 h -0.456 v -1.328 q 0,-0.216 -0.08,-0.324 -0.076,-0.112 -0.284,-0.112 -0.088,0 -0.172,0.036 -0.08,0.036 -0.144,0.104 -0.06,0.068 -0.1,0.168 -0.036,0.1 -0.036,0.228 V 0 h -0.456 z" id="path76"/>
        <path d="m 66.059922,-2.856 h 0.456 v 0.432 h -0.456 z m 0,0.788 h 0.456 V 0 h -0.456 z" id="path78"/>
        <path d="m 67.355919,-0.664 q 0.02,0.2 0.152,0.28 0.132,0.08 0.316,0.08 0.064,0 0.144,-0.008 0.084,-0.012 0.156,-0.04 0.072,-0.028 0.116,-0.08 0.048,-0.056 0.044,-0.144 -0.004,-0.088 -0.064,-0.144 -0.06,-0.056 -0.156,-0.088 -0.092,-0.036 -0.212,-0.06 -0.12,-0.024 -0.244,-0.052 -0.128,-0.028 -0.248,-0.068 -0.116,-0.04 -0.212,-0.108 -0.092,-0.068 -0.148,-0.172 -0.056,-0.108 -0.056,-0.264 0,-0.168 0.08,-0.28 0.084,-0.116 0.208,-0.184 0.128,-0.072 0.28,-0.1 0.156,-0.028 0.296,-0.028 0.16,0 0.304,0.036 0.148,0.032 0.264,0.108 0.12,0.076 0.196,0.2 0.08,0.12 0.1,0.292 h -0.476 q -0.032,-0.164 -0.152,-0.22 -0.116,-0.056 -0.268,-0.056 -0.048,0 -0.116,0.008 -0.064,0.008 -0.124,0.032 -0.056,0.02 -0.096,0.064 -0.04,0.04 -0.04,0.108 0,0.084 0.056,0.136 0.06,0.052 0.152,0.088 0.096,0.032 0.216,0.056 0.12,0.024 0.248,0.052 0.124,0.028 0.244,0.068 0.12,0.04 0.212,0.108 0.096,0.068 0.152,0.172 0.06,0.104 0.06,0.256 0,0.184 -0.084,0.312 -0.084,0.128 -0.22,0.208 -0.132,0.08 -0.296,0.116 -0.164,0.036 -0.324,0.036 -0.196,0 -0.364,-0.044 -0.164,-0.044 -0.288,-0.132 -0.12,-0.092 -0.192,-0.224 -0.068,-0.136 -0.072,-0.32 z" id="path80"/>
        <path d="m 69.431916,-0.664 q 0.02,0.2 0.152,0.28 0.132,0.08 0.316,0.08 0.064,0 0.144,-0.008 0.084,-0.012 0.156,-0.04 0.072,-0.028 0.116,-0.08 0.048,-0.056 0.044,-0.144 -0.004,-0.088 -0.064,-0.144 -0.06,-0.056 -0.156,-0.088 -0.092,-0.036 -0.212,-0.06 -0.12,-0.024 -0.244,-0.052 -0.128,-0.028 -0.248,-0.068 -0.116,-0.04 -0.212,-0.108 -0.092,-0.068 -0.148,-0.172 -0.056,-0.108 -0.056,-0.264 0,-0.168 0.08,-0.28 0.084,-0.116 0.208,-0.184 0.128,-0.072 0.28,-0.1 0.156,-0.028 0.296,-0.028 0.16,0 0.304,0.036 0.148,0.032 0.264,0.108 0.12,0.076 0.196,0.2 0.08,0.12 0.1,0.292 h -0.476 q -0.032,-0.164 -0.152,-0.22 -0.116,-0.056 -0.268,-0.056 -0.048,0 -0.116,0.008 -0.064,0.008 -0.124,0.032 -0.056,0.02 -0.096,0.064 -0.04,0.04 -0.04,0.108 0,0.084 0.056,0.136 0.06,0.052 0.152,0.088 0.096,0.032 0.216,0.056 0.12,0.024 0.248,0.052 0.124,0.028 0.244,0.068 0.12,0.04 0.212,0.108 0.096,0.068 0.152,0.172 0.06,0.104 0.06,0.256 0,0.184 -0.084,0.312 -0.084,0.128 -0.22,0.208 -0.132,0.08 -0.296,0.116 -0.164,0.036 -0.324,0.036 -0.196,0 -0.364,-0.044 -0.164,-0.044 -0.288,-0.132 -0.12,-0.092 -0.192,-0.224 -0.068,-0.136 -0.072,-0.32 z" id="path82"/>
        <path d="m 71.175912,-2.856 h 0.456 v 0.432 h -0.456 z m 0,0.788 h 0.456 V 0 h -0.456 z" id="path84"/>
        <path d="m 72.127909,-2.068 h 0.432 v 0.304 l 0.008,0.008 q 0.104,-0.172 0.272,-0.268 0.168,-0.1 0.372,-0.1 0.34,0 0.536,0.176 0.196,0.176 0.196,0.528 V 0 h -0.456 v -1.3 q -0.008,-0.244 -0.104,-0.352 -0.096,-0.112 -0.3,-0.112 -0.116,0 -0.208,0.044 -0.092,0.04 -0.156,0.116 -0.064,0.072 -0.1,0.172 -0.036,0.1 -0.036,0.212 V 0 h -0.456 z" id="path86"/>
        <path d="m 76.335907,-0.108 q 0,0.468 -0.264,0.696 -0.26,0.232 -0.752,0.232 -0.156,0 -0.316,-0.032 -0.156,-0.032 -0.288,-0.108 -0.128,-0.076 -0.216,-0.2 -0.088,-0.124 -0.104,-0.304 h 0.456 q 0.02,0.096 0.068,0.156 0.048,0.06 0.112,0.092 0.068,0.036 0.148,0.044 0.08,0.012 0.168,0.012 0.276,0 0.404,-0.136 0.128,-0.136 0.128,-0.392 v -0.316 h -0.008 q -0.096,0.172 -0.264,0.268 -0.164,0.096 -0.356,0.096 -0.248,0 -0.424,-0.084 -0.172,-0.088 -0.288,-0.236 -0.112,-0.152 -0.164,-0.348 -0.052,-0.196 -0.052,-0.42 0,-0.208 0.064,-0.396 0.064,-0.188 0.184,-0.328 0.12,-0.144 0.292,-0.228 0.176,-0.084 0.396,-0.084 0.196,0 0.36,0.084 0.164,0.08 0.252,0.256 h 0.008 v -0.284 h 0.456 z m -1.012,-0.252 q 0.152,0 0.256,-0.06 0.108,-0.064 0.172,-0.164 0.068,-0.104 0.096,-0.232 0.032,-0.132 0.032,-0.264 0,-0.132 -0.032,-0.256 -0.032,-0.124 -0.1,-0.22 -0.064,-0.096 -0.172,-0.152 -0.104,-0.056 -0.252,-0.056 -0.152,0 -0.256,0.064 -0.104,0.064 -0.168,0.168 -0.064,0.1 -0.092,0.232 -0.028,0.128 -0.028,0.256 0,0.128 0.032,0.252 0.032,0.12 0.096,0.216 0.068,0.096 0.168,0.156 0.104,0.06 0.248,0.06 z" id="path88"/>
        <path d="m 77.7039,-2.068 h 0.34 V -2.24 q 0,-0.196 0.048,-0.316 0.048,-0.124 0.128,-0.188 0.08,-0.068 0.18,-0.088 0.104,-0.024 0.216,-0.024 0.22,0 0.32,0.028 v 0.356 q -0.044,-0.012 -0.096,-0.016 -0.048,-0.008 -0.116,-0.008 -0.092,0 -0.16,0.044 -0.064,0.044 -0.064,0.172 v 0.212 h 0.388 v 0.34 h -0.388 V 0 h -0.456 v -1.728 h -0.34 z" id="path90"/>
        <path d="m 80.115895,0.056 q -0.248,0 -0.444,-0.08 -0.192,-0.084 -0.328,-0.228 -0.132,-0.144 -0.204,-0.344 -0.068,-0.2 -0.068,-0.44 0,-0.236 0.068,-0.436 0.072,-0.2 0.204,-0.344 0.136,-0.144 0.328,-0.224 0.196,-0.084 0.444,-0.084 0.248,0 0.44,0.084 0.196,0.08 0.328,0.224 0.136,0.144 0.204,0.344 0.072,0.2 0.072,0.436 0,0.24 -0.072,0.44 -0.068,0.2 -0.204,0.344 -0.132,0.144 -0.328,0.228 -0.192,0.08 -0.44,0.08 z m 0,-0.36 q 0.152,0 0.264,-0.064 0.112,-0.064 0.184,-0.168 0.072,-0.104 0.104,-0.232 0.036,-0.132 0.036,-0.268 0,-0.132 -0.036,-0.264 -0.032,-0.132 -0.104,-0.232 -0.072,-0.104 -0.184,-0.168 -0.112,-0.064 -0.264,-0.064 -0.152,0 -0.264,0.064 -0.112,0.064 -0.184,0.168 -0.072,0.1 -0.108,0.232 -0.032,0.132 -0.032,0.264 0,0.136 0.032,0.268 0.036,0.128 0.108,0.232 0.072,0.104 0.184,0.168 0.112,0.064 0.264,0.064 z" id="path92"/>
        <path d="m 81.539889,-2.068 h 0.428 v 0.4 h 0.008 q 0.02,-0.084 0.076,-0.164 0.06,-0.08 0.14,-0.144 0.084,-0.068 0.184,-0.108 0.1,-0.04 0.204,-0.04 0.08,0 0.108,0.004 0.032,0.004 0.064,0.008 v 0.44 q -0.048,-0.008 -0.1,-0.012 -0.048,-0.008 -0.096,-0.008 -0.116,0 -0.22,0.048 -0.1,0.044 -0.176,0.136 -0.076,0.088 -0.12,0.22 -0.044,0.132 -0.044,0.304 V 0 h -0.456 z" id="path94"/>
        <path d="m 83.831885,-2.068 h 0.5 l 0.54,1.544 h 0.008 l 0.524,-1.544 h 0.476 l -0.804,2.18 q -0.056,0.14 -0.112,0.268 -0.052,0.128 -0.132,0.224 -0.076,0.1 -0.192,0.156 -0.116,0.06 -0.296,0.06 -0.16,0 -0.316,-0.024 V 0.412 q 0.056,0.008 0.108,0.016 0.052,0.012 0.108,0.012 0.08,0 0.132,-0.02 0.052,-0.02 0.084,-0.06 0.036,-0.036 0.06,-0.088 0.024,-0.052 0.044,-0.12 l 0.052,-0.16 z" id="path96"/>
        <path d="m 87.555882,-1.216 q -0.008,-0.108 -0.048,-0.208 -0.036,-0.1 -0.104,-0.172 -0.064,-0.076 -0.16,-0.12 -0.092,-0.048 -0.208,-0.048 -0.12,0 -0.22,0.044 -0.096,0.04 -0.168,0.116 -0.068,0.072 -0.112,0.172 -0.04,0.1 -0.044,0.216 z m -1.064,0.3 q 0,0.12 0.032,0.232 0.036,0.112 0.104,0.196 0.068,0.084 0.172,0.136 0.104,0.048 0.248,0.048 0.2,0 0.32,-0.084 0.124,-0.088 0.184,-0.26 h 0.432 q -0.036,0.168 -0.124,0.3 -0.088,0.132 -0.212,0.224 -0.124,0.088 -0.28,0.132 -0.152,0.048 -0.32,0.048 -0.244,0 -0.432,-0.08 -0.188,-0.08 -0.32,-0.224 -0.128,-0.144 -0.196,-0.344 -0.064,-0.2 -0.064,-0.44 0,-0.22 0.068,-0.416 0.072,-0.2 0.2,-0.348 0.132,-0.152 0.316,-0.24 0.184,-0.088 0.416,-0.088 0.244,0 0.436,0.104 0.196,0.1 0.324,0.268 0.128,0.168 0.184,0.388 0.06,0.216 0.032,0.448 z" id="path98"/>
        <path d="m 90.091881,-0.46 q 0,0.084 0.02,0.12 0.024,0.036 0.088,0.036 0.02,0 0.048,0 0.028,0 0.064,-0.008 v 0.316 q -0.024,0.008 -0.064,0.016 -0.036,0.012 -0.076,0.02 -0.04,0.008 -0.08,0.012 -0.04,0.004 -0.068,0.004 -0.14,0 -0.232,-0.056 -0.092,-0.056 -0.12,-0.196 -0.136,0.132 -0.336,0.192 -0.196,0.06 -0.38,0.06 -0.14,0 -0.268,-0.04 -0.128,-0.036 -0.228,-0.108 -0.096,-0.076 -0.156,-0.188 -0.056,-0.116 -0.056,-0.268 0,-0.192 0.068,-0.312 0.072,-0.12 0.184,-0.188 0.116,-0.068 0.256,-0.096 0.144,-0.032 0.288,-0.048 0.124,-0.024 0.236,-0.032 0.112,-0.012 0.196,-0.036 0.088,-0.024 0.136,-0.072 0.052,-0.052 0.052,-0.152 0,-0.088 -0.044,-0.144 -0.04,-0.056 -0.104,-0.084 -0.06,-0.032 -0.136,-0.04 -0.076,-0.012 -0.144,-0.012 -0.192,0 -0.316,0.08 -0.124,0.08 -0.14,0.248 h -0.456 q 0.012,-0.2 0.096,-0.332 0.084,-0.132 0.212,-0.212 0.132,-0.08 0.296,-0.112 0.164,-0.032 0.336,-0.032 0.152,0 0.3,0.032 0.148,0.032 0.264,0.104 0.12,0.072 0.192,0.188 0.072,0.112 0.072,0.276 z m -0.456,-0.576 q -0.104,0.068 -0.256,0.084 -0.152,0.012 -0.304,0.04 -0.072,0.012 -0.14,0.036 -0.068,0.02 -0.12,0.06 -0.052,0.036 -0.084,0.1 -0.028,0.06 -0.028,0.148 0,0.076 0.044,0.128 0.044,0.052 0.104,0.084 0.064,0.028 0.136,0.04 0.076,0.012 0.136,0.012 0.076,0 0.164,-0.02 0.088,-0.02 0.164,-0.068 0.08,-0.048 0.132,-0.12 0.052,-0.076 0.052,-0.184 z" id="path100"/>
        <path d="m 90.58388,-2.068 h 0.428 v 0.4 h 0.008 q 0.02,-0.084 0.076,-0.164 0.06,-0.08 0.14,-0.144 0.084,-0.068 0.184,-0.108 0.1,-0.04 0.204,-0.04 0.08,0 0.108,0.004 0.032,0.004 0.064,0.008 v 0.44 q -0.048,-0.008 -0.1,-0.012 -0.048,-0.008 -0.096,-0.008 -0.116,0 -0.22,0.048 -0.1,0.044 -0.176,0.136 -0.076,0.088 -0.12,0.22 -0.044,0.132 -0.044,0.304 V 0 h -0.456 z" id="path102"/>
        <path d="m 92.335877,-0.664 q 0.02,0.2 0.152,0.28 0.132,0.08 0.316,0.08 0.064,0 0.144,-0.008 0.084,-0.012 0.156,-0.04 0.072,-0.028 0.116,-0.08 0.048,-0.056 0.044,-0.144 -0.004,-0.088 -0.064,-0.144 -0.06,-0.056 -0.156,-0.088 -0.092,-0.036 -0.212,-0.06 -0.12,-0.024 -0.244,-0.052 -0.128,-0.028 -0.248,-0.068 -0.116,-0.04 -0.212,-0.108 -0.092,-0.068 -0.148,-0.172 -0.056,-0.108 -0.056,-0.264 0,-0.168 0.08,-0.28 0.084,-0.116 0.208,-0.184 0.128,-0.072 0.28,-0.1 0.156,-0.028 0.296,-0.028 0.16,0 0.304,0.036 0.148,0.032 0.264,0.108 0.12,0.076 0.196,0.2 0.08,0.12 0.1,0.292 h -0.476 q -0.032,-0.164 -0.152,-0.22 -0.116,-0.056 -0.268,-0.056 -0.048,0 -0.116,0.008 -0.064,0.008 -0.124,0.032 -0.056,0.02 -0.096,0.064 -0.04,0.04 -0.04,0.108 0,0.084 0.056,0.136 0.06,0.052 0.152,0.088 0.096,0.032 0.216,0.056 0.12,0.024 0.248,0.052 0.124,0.028 0.244,0.068 0.12,0.04 0.212,0.108 0.096,0.068 0.152,0.172 0.06,0.104 0.06,0.256 0,0.184 -0.084,0.312 -0.084,0.128 -0.22,0.208 -0.132,0.08 -0.296,0.116 -0.164,0.036 -0.324,0.036 -0.196,0 -0.364,-0.044 -0.164,-0.044 -0.288,-0.132 -0.12,-0.092 -0.192,-0.224 -0.068,-0.136 -0.072,-0.32 z" id="path104"/>
        <path d="m 94.103873,-0.54 h 0.556 V 0 q -0.004,0.248 -0.152,0.416 -0.148,0.168 -0.388,0.216 V 0.388 q 0.132,-0.032 0.196,-0.148 0.068,-0.112 0.064,-0.24 h -0.276 z" id="path106"/>
      </g>
      <g aria-label="and I'm proud to get to work with him." transform="translate(34.88205,6.8544)" id="text6">
        <path d="m 1.972,-0.46 q 0,0.084 0.02,0.12 0.024,0.036 0.088,0.036 0.02,0 0.048,0 0.028,0 0.064,-0.008 V 0.004 Q 2.168,0.012 2.128,0.02 2.092,0.032 2.052,0.04 2.012,0.048 1.972,0.052 1.932,0.056 1.904,0.056 1.764,0.056 1.672,0 1.58,-0.056 1.552,-0.196 1.416,-0.064 1.216,-0.004 1.02,0.056 0.836,0.056 0.696,0.056 0.568,0.016 0.44,-0.02 0.34,-0.092 0.244,-0.168 0.184,-0.28 0.128,-0.396 0.128,-0.548 0.128,-0.74 0.196,-0.86 0.268,-0.98 0.38,-1.048 0.496,-1.116 0.636,-1.144 0.78,-1.176 0.924,-1.192 1.048,-1.216 1.16,-1.224 1.272,-1.236 1.356,-1.26 1.444,-1.284 1.492,-1.332 1.544,-1.384 1.544,-1.484 1.544,-1.572 1.5,-1.628 1.46,-1.684 1.396,-1.712 1.336,-1.744 1.26,-1.752 1.184,-1.764 1.116,-1.764 q -0.192,0 -0.316,0.08 -0.124,0.08 -0.14,0.248 H 0.204 Q 0.216,-1.636 0.3,-1.768 0.384,-1.9 0.512,-1.98 q 0.132,-0.08 0.296,-0.112 0.164,-0.032 0.336,-0.032 0.152,0 0.3,0.032 0.148,0.032 0.264,0.104 0.12,0.072 0.192,0.188 0.072,0.112 0.072,0.276 z M 1.516,-1.036 q -0.104,0.068 -0.256,0.084 -0.152,0.012 -0.304,0.04 -0.072,0.012 -0.14,0.036 -0.068,0.02 -0.12,0.06 -0.052,0.036 -0.084,0.1 -0.028,0.06 -0.028,0.148 0,0.076 0.044,0.128 0.044,0.052 0.104,0.084 0.064,0.028 0.136,0.04 0.076,0.012 0.136,0.012 0.076,0 0.164,-0.02 0.088,-0.02 0.164,-0.068 0.08,-0.048 0.132,-0.12 0.052,-0.076 0.052,-0.184 z" id="path109"/>
        <path d="m 2.463999,-2.068 h 0.432 v 0.304 l 0.008,0.008 q 0.104,-0.172 0.272,-0.268 0.168,-0.1 0.372,-0.1 0.34,0 0.536,0.176 0.196,0.176 0.196,0.528 V 0 h -0.456 v -1.3 q -0.008,-0.244 -0.104,-0.352 -0.096,-0.112 -0.3,-0.112 -0.116,0 -0.208,0.044 -0.092,0.04 -0.156,0.116 -0.064,0.072 -0.1,0.172 -0.036,0.1 -0.036,0.212 V 0 h -0.456 z" id="path111"/>
        <path d="m 6.7079966,0 h -0.432 v -0.28 h -0.008 q -0.092,0.18 -0.268,0.26 -0.176,0.076 -0.372,0.076 -0.244,0 -0.428,-0.084 -0.18,-0.088 -0.3,-0.236 -0.12,-0.148 -0.18,-0.348 -0.06,-0.204 -0.06,-0.436 0,-0.28 0.076,-0.484 0.076,-0.204 0.2,-0.336 0.128,-0.132 0.288,-0.192 0.164,-0.064 0.332,-0.064 0.096,0 0.196,0.02 0.1,0.016 0.192,0.056 0.092,0.04 0.168,0.104 0.08,0.06 0.132,0.144 h 0.008 v -1.056 h 0.456 z m -1.592,-1.012 q 0,0.132 0.032,0.26 0.036,0.128 0.104,0.228 0.072,0.1 0.18,0.16 0.108,0.06 0.256,0.06 0.152,0 0.26,-0.064 0.112,-0.064 0.18,-0.168 0.072,-0.104 0.104,-0.232 0.036,-0.132 0.036,-0.268 0,-0.344 -0.156,-0.536 -0.152,-0.192 -0.416,-0.192 -0.16,0 -0.272,0.068 -0.108,0.064 -0.18,0.172 -0.068,0.104 -0.1,0.24 -0.028,0.132 -0.028,0.272 z" id="path113"/>
        <path d="m 8.3799888,-2.856 h 0.5 V 0 h -0.5 z" id="path115"/>
        <path d="m 9.5399883,-2.856 h 0.408 v 1.128 h -0.408 z" id="path117"/>
        <path d="m 10.539988,-2.068 h 0.432 v 0.288 h 0.012 q 0.052,-0.076 0.112,-0.14 0.06,-0.064 0.132,-0.108 0.076,-0.044 0.172,-0.068 0.096,-0.028 0.22,-0.028 0.188,0 0.348,0.084 0.164,0.084 0.232,0.26 0.116,-0.16 0.268,-0.252 0.152,-0.092 0.38,-0.092 0.328,0 0.508,0.16 0.184,0.16 0.184,0.536 V 0 h -0.456 v -1.208 q 0,-0.124 -0.008,-0.224 -0.008,-0.104 -0.048,-0.176 -0.036,-0.076 -0.112,-0.116 -0.076,-0.04 -0.208,-0.04 -0.232,0 -0.336,0.144 -0.104,0.144 -0.104,0.408 V 0 h -0.456 v -1.328 q 0,-0.216 -0.08,-0.324 -0.076,-0.112 -0.284,-0.112 -0.088,0 -0.172,0.036 -0.08,0.036 -0.144,0.104 -0.06,0.068 -0.1,0.168 -0.036,0.1 -0.036,0.228 V 0 h -0.456 z" id="path119"/>
        <path d="m 15.143983,-2.068 h 0.432 v 0.28 h 0.008 q 0.096,-0.18 0.268,-0.256 0.172,-0.08 0.372,-0.08 0.244,0 0.424,0.088 0.184,0.084 0.304,0.236 0.12,0.148 0.18,0.348 0.06,0.2 0.06,0.428 0,0.208 -0.056,0.404 -0.052,0.196 -0.164,0.348 -0.108,0.148 -0.276,0.24 -0.168,0.088 -0.396,0.088 -0.1,0 -0.2,-0.02 -0.1,-0.016 -0.192,-0.056 -0.092,-0.04 -0.172,-0.1 -0.076,-0.064 -0.128,-0.148 h -0.008 v 1.032 h -0.456 z m 1.592,1.036 q 0,-0.14 -0.036,-0.272 -0.036,-0.132 -0.108,-0.232 -0.072,-0.104 -0.18,-0.164 -0.108,-0.064 -0.248,-0.064 -0.288,0 -0.436,0.2 -0.144,0.2 -0.144,0.532 0,0.156 0.036,0.292 0.04,0.132 0.116,0.228 0.076,0.096 0.18,0.152 0.108,0.056 0.248,0.056 0.156,0 0.264,-0.064 0.108,-0.064 0.176,-0.164 0.072,-0.104 0.1,-0.232 0.032,-0.132 0.032,-0.268 z" id="path121"/>
        <path d="m 17.575976,-2.068 h 0.428 v 0.4 h 0.008 q 0.02,-0.084 0.076,-0.164 0.06,-0.08 0.14,-0.144 0.084,-0.068 0.184,-0.108 0.1,-0.04 0.204,-0.04 0.08,0 0.108,0.004 0.032,0.004 0.064,0.008 v 0.44 q -0.048,-0.008 -0.1,-0.012 -0.048,-0.008 -0.096,-0.008 -0.116,0 -0.22,0.048 -0.1,0.044 -0.176,0.136 -0.076,0.088 -0.12,0.22 -0.044,0.132 -0.044,0.304 V 0 h -0.456 z" id="path123"/>
        <path d="m 19.859967,0.056 q -0.248,0 -0.444,-0.08 -0.192,-0.084 -0.328,-0.228 -0.132,-0.144 -0.204,-0.344 -0.068,-0.2 -0.068,-0.44 0,-0.236 0.068,-0.436 0.072,-0.2 0.204,-0.344 0.136,-0.144 0.328,-0.224 0.196,-0.084 0.444,-0.084 0.248,0 0.44,0.084 0.196,0.08 0.328,0.224 0.136,0.144 0.204,0.344 0.072,0.2 0.072,0.436 0,0.24 -0.072,0.44 -0.068,0.2 -0.204,0.344 -0.132,0.144 -0.328,0.228 -0.192,0.08 -0.44,0.08 z m 0,-0.36 q 0.152,0 0.264,-0.064 0.112,-0.064 0.184,-0.168 0.072,-0.104 0.104,-0.232 0.036,-0.132 0.036,-0.268 0,-0.132 -0.036,-0.264 -0.032,-0.132 -0.104,-0.232 -0.072,-0.104 -0.184,-0.168 -0.112,-0.064 -0.264,-0.064 -0.152,0 -0.264,0.064 -0.112,0.064 -0.184,0.168 -0.072,0.1 -0.108,0.232 -0.032,0.132 -0.032,0.264 0,0.136 0.032,0.268 0.036,0.128 0.108,0.232 0.072,0.104 0.184,0.168 0.112,0.064 0.264,0.064 z" id="path125"/>
        <path d="m 23.099961,0 h -0.448 v -0.288 h -0.008 q -0.084,0.156 -0.252,0.252 -0.164,0.092 -0.336,0.092 -0.408,0 -0.592,-0.2 -0.18,-0.204 -0.18,-0.612 v -1.312 h 0.456 V -0.8 q 0,0.272 0.104,0.384 0.104,0.112 0.292,0.112 0.144,0 0.24,-0.044 0.096,-0.044 0.156,-0.116 0.06,-0.076 0.084,-0.18 0.028,-0.104 0.028,-0.224 v -1.2 h 0.456 z" id="path127"/>
        <path d="m 25.527958,0 h -0.432 v -0.28 h -0.008 q -0.092,0.18 -0.268,0.26 -0.176,0.076 -0.372,0.076 -0.244,0 -0.428,-0.084 -0.18,-0.088 -0.3,-0.236 -0.12,-0.148 -0.18,-0.348 -0.06,-0.204 -0.06,-0.436 0,-0.28 0.076,-0.484 0.076,-0.204 0.2,-0.336 0.128,-0.132 0.288,-0.192 0.164,-0.064 0.332,-0.064 0.096,0 0.196,0.02 0.1,0.016 0.192,0.056 0.092,0.04 0.168,0.104 0.08,0.06 0.132,0.144 h 0.008 v -1.056 h 0.456 z m -1.592,-1.012 q 0,0.132 0.032,0.26 0.036,0.128 0.104,0.228 0.072,0.1 0.18,0.16 0.108,0.06 0.256,0.06 0.152,0 0.26,-0.064 0.112,-0.064 0.18,-0.168 0.072,-0.104 0.104,-0.232 0.036,-0.132 0.036,-0.268 0,-0.344 -0.156,-0.536 -0.152,-0.192 -0.416,-0.192 -0.16,0 -0.272,0.068 -0.108,0.064 -0.18,0.172 -0.068,0.104 -0.1,0.24 -0.028,0.132 -0.028,0.272 z" id="path129"/>
        <path d="m 26.92795,-2.068 h 0.344 v -0.62 h 0.456 v 0.62 h 0.412 v 0.34 h -0.412 v 1.104 q 0,0.072 0.004,0.124 0.008,0.052 0.028,0.088 0.024,0.036 0.068,0.056 0.044,0.016 0.12,0.016 0.048,0 0.096,0 0.048,-0.004 0.096,-0.016 v 0.352 q -0.076,0.008 -0.148,0.016 -0.072,0.008 -0.148,0.008 -0.18,0 -0.292,-0.032 -0.108,-0.036 -0.172,-0.1 -0.06,-0.068 -0.084,-0.168 -0.02,-0.1 -0.024,-0.228 v -1.22 h -0.344 z" id="path131"/>
        <path d="m 29.415943,0.056 q -0.248,0 -0.444,-0.08 -0.192,-0.084 -0.328,-0.228 -0.132,-0.144 -0.204,-0.344 -0.068,-0.2 -0.068,-0.44 0,-0.236 0.068,-0.436 0.072,-0.2 0.204,-0.344 0.136,-0.144 0.328,-0.224 0.196,-0.084 0.444,-0.084 0.248,0 0.44,0.084 0.196,0.08 0.328,0.224 0.136,0.144 0.204,0.344 0.072,0.2 0.072,0.436 0,0.24 -0.072,0.44 -0.068,0.2 -0.204,0.344 -0.132,0.144 -0.328,0.228 -0.192,0.08 -0.44,0.08 z m 0,-0.36 q 0.152,0 0.264,-0.064 0.112,-0.064 0.184,-0.168 0.072,-0.104 0.104,-0.232 0.036,-0.132 0.036,-0.268 0,-0.132 -0.036,-0.264 -0.032,-0.132 -0.104,-0.232 -0.072,-0.104 -0.184,-0.168 -0.112,-0.064 -0.264,-0.064 -0.152,0 -0.264,0.064 -0.112,0.064 -0.184,0.168 -0.072,0.1 -0.108,0.232 -0.032,0.132 -0.032,0.264 0,0.136 0.032,0.268 0.036,0.128 0.108,0.232 0.072,0.104 0.184,0.168 0.112,0.064 0.264,0.064 z" id="path133"/>
        <path d="m 33.863937,-0.108 q 0,0.468 -0.264,0.696 -0.26,0.232 -0.752,0.232 -0.156,0 -0.316,-0.032 -0.156,-0.032 -0.288,-0.108 -0.128,-0.076 -0.216,-0.2 -0.088,-0.124 -0.104,-0.304 h 0.456 q 0.02,0.096 0.068,0.156 0.048,0.06 0.112,0.092 0.068,0.036 0.148,0.044 0.08,0.012 0.168,0.012 0.276,0 0.404,-0.136 0.128,-0.136 0.128,-0.392 v -0.316 h -0.008 q -0.096,0.172 -0.264,0.268 -0.164,0.096 -0.356,0.096 -0.248,0 -0.424,-0.084 -0.172,-0.088 -0.288,-0.236 -0.112,-0.152 -0.164,-0.348 -0.052,-0.196 -0.052,-0.42 0,-0.208 0.064,-0.396 0.064,-0.188 0.184,-0.328 0.12,-0.144 0.292,-0.228 0.176,-0.084 0.396,-0.084 0.196,0 0.36,0.084 0.164,0.08 0.252,0.256 h 0.008 v -0.284 h 0.456 z m -1.012,-0.252 q 0.152,0 0.256,-0.06 0.108,-0.064 0.172,-0.164 0.068,-0.104 0.096,-0.232 0.032,-0.132 0.032,-0.264 0,-0.132 -0.032,-0.256 -0.032,-0.124 -0.1,-0.22 -0.064,-0.096 -0.172,-0.152 -0.104,-0.056 -0.252,-0.056 -0.152,0 -0.256,0.064 -0.104,0.064 -0.168,0.168 -0.064,0.1 -0.092,0.232 -0.028,0.128 -0.028,0.256 0,0.128 0.032,0.252 0.032,0.12 0.096,0.216 0.068,0.096 0.168,0.156 0.104,0.06 0.248,0.06 z" id="path135"/>
        <path d="m 35.743931,-1.216 q -0.008,-0.108 -0.048,-0.208 -0.036,-0.1 -0.104,-0.172 -0.064,-0.076 -0.16,-0.12 -0.092,-0.048 -0.208,-0.048 -0.12,0 -0.22,0.044 -0.096,0.04 -0.168,0.116 -0.068,0.072 -0.112,0.172 -0.04,0.1 -0.044,0.216 z m -1.064,0.3 q 0,0.12 0.032,0.232 0.036,0.112 0.104,0.196 0.068,0.084 0.172,0.136 0.104,0.048 0.248,0.048 0.2,0 0.32,-0.084 0.124,-0.088 0.184,-0.26 h 0.432 q -0.036,0.168 -0.124,0.3 -0.088,0.132 -0.212,0.224 -0.124,0.088 -0.28,0.132 -0.152,0.048 -0.32,0.048 -0.244,0 -0.432,-0.08 -0.188,-0.08 -0.32,-0.224 -0.128,-0.144 -0.196,-0.344 -0.064,-0.2 -0.064,-0.44 0,-0.22 0.068,-0.416 0.072,-0.2 0.2,-0.348 0.132,-0.152 0.316,-0.24 0.184,-0.088 0.416,-0.088 0.244,0 0.436,0.104 0.196,0.1 0.324,0.268 0.128,0.168 0.184,0.388 0.06,0.216 0.032,0.448 z" id="path137"/>
        <path d="m 36.33993,-2.068 h 0.344 v -0.62 h 0.456 v 0.62 h 0.412 v 0.34 h -0.412 v 1.104 q 0,0.072 0.004,0.124 0.008,0.052 0.028,0.088 0.024,0.036 0.068,0.056 0.044,0.016 0.12,0.016 0.048,0 0.096,0 0.048,-0.004 0.096,-0.016 v 0.352 q -0.076,0.008 -0.148,0.016 -0.072,0.008 -0.148,0.008 -0.18,0 -0.292,-0.032 -0.108,-0.036 -0.172,-0.1 -0.06,-0.068 -0.084,-0.168 -0.02,-0.1 -0.024,-0.228 v -1.22 h -0.344 z" id="path139"/>
        <path d="m 38.783923,-2.068 h 0.344 v -0.62 h 0.456 v 0.62 h 0.412 v 0.34 h -0.412 v 1.104 q 0,0.072 0.004,0.124 0.008,0.052 0.028,0.088 0.024,0.036 0.068,0.056 0.044,0.016 0.12,0.016 0.048,0 0.096,0 0.048,-0.004 0.096,-0.016 v 0.352 q -0.076,0.008 -0.148,0.016 -0.072,0.008 -0.148,0.008 -0.18,0 -0.292,-0.032 -0.108,-0.036 -0.172,-0.1 -0.06,-0.068 -0.084,-0.168 -0.02,-0.1 -0.024,-0.228 v -1.22 h -0.344 z" id="path141"/>
        <path d="m 41.271916,0.056 q -0.248,0 -0.444,-0.08 -0.192,-0.084 -0.328,-0.228 -0.132,-0.144 -0.204,-0.344 -0.068,-0.2 -0.068,-0.44 0,-0.236 0.068,-0.436 0.072,-0.2 0.204,-0.344 0.136,-0.144 0.328,-0.224 0.196,-0.084 0.444,-0.084 0.248,0 0.44,0.084 0.196,0.08 0.328,0.224 0.136,0.144 0.204,0.344 0.072,0.2 0.072,0.436 0,0.24 -0.072,0.44 -0.068,0.2 -0.204,0.344 -0.132,0.144 -0.328,0.228 -0.192,0.08 -0.44,0.08 z m 0,-0.36 q 0.152,0 0.264,-0.064 0.112,-0.064 0.184,-0.168 0.072,-0.104 0.104,-0.232 0.036,-0.132 0.036,-0.268 0,-0.132 -0.036,-0.264 -0.032,-0.132 -0.104,-0.232 -0.072,-0.104 -0.184,-0.168 -0.112,-0.064 -0.264,-0.064 -0.152,0 -0.264,0.064 -0.112,0.064 -0.184,0.168 -0.072,0.1 -0.108,0.232 -0.032,0.132 -0.032,0.264 0,0.136 0.032,0.268 0.036,0.128 0.108,0.232 0.072,0.104 0.184,0.168 0.112,0.064 0.264,0.064 z" id="path143"/>
        <path d="m 43.619909,-2.068 h 0.484 l 0.404,1.544 h 0.008 l 0.388,-1.544 h 0.46 l 0.372,1.544 h 0.008 l 0.42,-1.544 h 0.464 L 45.979909,0 h -0.468 l -0.384,-1.536 h -0.008 l -0.38,1.536 h -0.48 z" id="path145"/>
        <path d="m 47.867909,0.056 q -0.248,0 -0.444,-0.08 -0.192,-0.084 -0.328,-0.228 -0.132,-0.144 -0.204,-0.344 -0.068,-0.2 -0.068,-0.44 0,-0.236 0.068,-0.436 0.072,-0.2 0.204,-0.344 0.136,-0.144 0.328,-0.224 0.196,-0.084 0.444,-0.084 0.248,0 0.44,0.084 0.196,0.08 0.328,0.224 0.136,0.144 0.204,0.344 0.072,0.2 0.072,0.436 0,0.24 -0.072,0.44 -0.068,0.2 -0.204,0.344 -0.132,0.144 -0.328,0.228 -0.192,0.08 -0.44,0.08 z m 0,-0.36 q 0.152,0 0.264,-0.064 0.112,-0.064 0.184,-0.168 0.072,-0.104 0.104,-0.232 0.036,-0.132 0.036,-0.268 0,-0.132 -0.036,-0.264 -0.032,-0.132 -0.104,-0.232 -0.072,-0.104 -0.184,-0.168 -0.112,-0.064 -0.264,-0.064 -0.152,0 -0.264,0.064 -0.112,0.064 -0.184,0.168 -0.072,0.1 -0.108,0.232 -0.032,0.132 -0.032,0.264 0,0.136 0.032,0.268 0.036,0.128 0.108,0.232 0.072,0.104 0.184,0.168 0.112,0.064 0.264,0.064 z" id="path147"/>
        <path d="m 49.291903,-2.068 h 0.428 v 0.4 h 0.008 q 0.02,-0.084 0.076,-0.164 0.06,-0.08 0.14,-0.144 0.084,-0.068 0.184,-0.108 0.1,-0.04 0.204,-0.04 0.08,0 0.108,0.004 0.032,0.004 0.064,0.008 v 0.44 q -0.048,-0.008 -0.1,-0.012 -0.048,-0.008 -0.096,-0.008 -0.116,0 -0.22,0.048 -0.1,0.044 -0.176,0.136 -0.076,0.088 -0.12,0.22 -0.044,0.132 -0.044,0.304 V 0 h -0.456 z" id="path149"/>
        <path d="m 50.7119,-2.856 h 0.456 v 1.624 l 0.824,-0.836 h 0.56 l -0.792,0.76 0.868,1.308 h -0.556 l -0.632,-1.004 -0.272,0.264 V 0 h -0.456 z" id="path151"/>
        <path d="m 53.771894,-2.068 h 0.484 l 0.404,1.544 h 0.008 l 0.388,-1.544 h 0.46 l 0.372,1.544 h 0.008 l 0.42,-1.544 h 0.464 L 56.131894,0 h -0.468 l -0.384,-1.536 h -0.008 l -0.38,1.536 h -0.48 z" id="path153"/>
        <path d="m 57.083894,-2.856 h 0.456 v 0.432 h -0.456 z m 0,0.788 h 0.456 V 0 h -0.456 z" id="path155"/>
        <path d="m 57.827891,-2.068 h 0.344 v -0.62 h 0.456 v 0.62 h 0.412 v 0.34 h -0.412 v 1.104 q 0,0.072 0.004,0.124 0.008,0.052 0.028,0.088 0.024,0.036 0.068,0.056 0.044,0.016 0.12,0.016 0.048,0 0.096,0 0.048,-0.004 0.096,-0.016 v 0.352 q -0.076,0.008 -0.148,0.016 -0.072,0.008 -0.148,0.008 -0.18,0 -0.292,-0.032 -0.108,-0.036 -0.172,-0.1 -0.06,-0.068 -0.084,-0.168 -0.02,-0.1 -0.024,-0.228 v -1.22 h -0.344 z" id="path157"/>
        <path d="m 59.367884,-2.856 h 0.456 v 1.06 h 0.008 q 0.084,-0.14 0.248,-0.232 0.168,-0.096 0.372,-0.096 0.34,0 0.536,0.176 0.196,0.176 0.196,0.528 V 0 h -0.456 v -1.3 q -0.008,-0.244 -0.104,-0.352 -0.096,-0.112 -0.3,-0.112 -0.116,0 -0.208,0.044 -0.092,0.04 -0.156,0.116 -0.064,0.072 -0.1,0.172 -0.036,0.1 -0.036,0.212 V 0 h -0.456 z" id="path159"/>
        <path d="m 62.775881,-2.856 h 0.456 v 1.06 h 0.008 q 0.084,-0.14 0.248,-0.232 0.168,-0.096 0.372,-0.096 0.34,0 0.536,0.176 0.196,0.176 0.196,0.528 V 0 h -0.456 v -1.3 q -0.008,-0.244 -0.104,-0.352 -0.096,-0.112 -0.3,-0.112 -0.116,0 -0.208,0.044 -0.092,0.04 -0.156,0.116 -0.064,0.072 -0.1,0.172 -0.036,0.1 -0.036,0.212 V 0 h -0.456 z" id="path161"/>
        <path d="m 65.083879,-2.856 h 0.456 v 0.432 h -0.456 z m 0,0.788 h 0.456 V 0 h -0.456 z" id="path163"/>
        <path d="m 66.035876,-2.068 h 0.432 v 0.288 h 0.012 q 0.052,-0.076 0.112,-0.14 0.06,-0.064 0.132,-0.108 0.076,-0.044 0.172,-0.068 0.096,-0.028 0.22,-0.028 0.188,0 0.348,0.084 0.164,0.084 0.232,0.26 0.116,-0.16 0.268,-0.252 0.152,-0.092 0.38,-0.092 0.328,0 0.508,0.16 0.184,0.16 0.184,0.536 V 0 h -0.456 v -1.208 q 0,-0.124 -0.008,-0.224 -0.008,-0.104 -0.048,-0.176 -0.036,-0.076 -0.112,-0.116 -0.076,-0.04 -0.208,-0.04 -0.232,0 -0.336,0.144 -0.104,0.144 -0.104,0.408 V 0 h -0.456 v -1.328 q 0,-0.216 -0.08,-0.324 -0.076,-0.112 -0.284,-0.112 -0.088,0 -0.172,0.036 -0.08,0.036 -0.144,0.104 -0.06,0.068 -0.1,0.168 -0.036,0.1 -0.036,0.228 V 0 h -0.456 z" id="path165"/>
        <path d="m 69.551871,-0.54 h 0.556 V 0 h -0.556 z" id="path167"/>
      </g>
    </g>
    <g font-family="'HelveticaNeueLT Com 65 Md'" fill="#444444" font-size="2.66667px" transform="translate(84.653333,25.7608)" id="g14">
      <g aria-label="&#8212;Tim" id="text10">
        <path d="M 0.34666671,-0.86933344 H 2.3200003 V -0.5813334 H 0.34666671 Z" id="path170"/>
        <path d="m 2.6879953,-1.9040002 h 1.5413335 v 0.288 H 3.6239954 V 0 H 3.2906621 V -1.6160002 H 2.6879953 Z" id="path172"/>
        <path d="m 4.4159916,-1.9040002 h 0.304 v 0.288 h -0.304 z m 0,0.5253334 h 0.304 V 0 h -0.304 z" id="path174"/>
        <path d="m 5.0506565,-1.3786668 h 0.288 v 0.192 h 0.008 q 0.034667,-0.050667 0.074667,-0.093333 0.04,-0.042667 0.088,-0.072 0.050667,-0.029333 0.1146667,-0.045333 0.064,-0.018667 0.1466667,-0.018667 0.1253333,0 0.232,0.056 0.1093334,0.056 0.1546667,0.1733334 0.077333,-0.1066667 0.1786667,-0.168 0.1013333,-0.061333 0.2533333,-0.061333 0.2186667,0 0.3386667,0.1066667 0.1226667,0.1066667 0.1226667,0.35733339 V 0 h -0.304 v -0.80533343 q 0,-0.0826667 -0.00533,-0.14933335 -0.00533,-0.0693333 -0.032,-0.11733332 -0.024,-0.050667 -0.074667,-0.077333 -0.050667,-0.026667 -0.1386667,-0.026667 -0.1546667,0 -0.224,0.096 -0.069333,0.096 -0.069333,0.272 V 0 h -0.304 v -0.88533344 q 0,-0.14400006 -0.053333,-0.21600006 -0.050667,-0.074667 -0.1893334,-0.074667 -0.058667,0 -0.1146667,0.024 -0.053333,0.024 -0.096,0.069333 -0.04,0.045333 -0.066667,0.11200002 -0.024,0.0666667 -0.024,0.15200002 V 0 h -0.304 z" id="path176"/>
      </g>
      <g aria-label="HSE Director" transform="translate(3,3.2368)" id="text12" style="font-style:italic">
        <path d="M 0.37866671,-1.9040002 H 0.71200008 L 0.55466673,-1.1466668 H 1.4453335 L 1.6026669,-1.9040002 H 1.9360002 L 1.5413335,0 H 1.2080001 L 1.3866668,-0.85866677 H 0.49600006 L 0.31733337,0 H -0.016 Z" style="font-style:italic" id="path179"/>
        <path d="m 2.2799956,-0.62933341 q -0.010667,0.22133336 0.1093333,0.31200004 0.12,0.0906667 0.328,0.0906667 0.066667,0 0.1413334,-0.016 0.077333,-0.016 0.1386667,-0.0506667 0.061333,-0.0373333 0.1013333,-0.096 0.042667,-0.0586667 0.042667,-0.14133335 0,-0.08 -0.04,-0.13333335 -0.037333,-0.0533333 -0.1013334,-0.088 -0.061333,-0.0373333 -0.144,-0.0613333 -0.082667,-0.0266667 -0.1706667,-0.0506667 -0.064,-0.016 -0.152,-0.0453333 -0.088,-0.0293333 -0.1706667,-0.0826667 -0.082667,-0.0533334 -0.1413333,-0.14133338 -0.056,-0.088 -0.056,-0.224 0,-0.128 0.048,-0.2373334 0.048,-0.1093333 0.1386667,-0.1866666 0.090667,-0.08 0.2213333,-0.1226667 0.1333334,-0.045333 0.3013334,-0.045333 0.1493333,0 0.28,0.032 0.1306667,0.032 0.2266667,0.1040001 0.096,0.072 0.1493334,0.1893333 0.053333,0.1146667 0.048,0.2826667 H 3.2586623 q -0.00267,-0.1786667 -0.098667,-0.256 -0.096,-0.08 -0.2906667,-0.08 -0.034667,0 -0.096,0.008 -0.061333,0.008 -0.1226667,0.037333 -0.061333,0.029333 -0.1066667,0.085333 -0.045333,0.053333 -0.045333,0.1493334 0,0.069333 0.032,0.1173333 0.032,0.045333 0.085333,0.077333 0.056,0.029333 0.128,0.050667 0.072,0.021333 0.152,0.04 0.1013334,0.026667 0.2026667,0.058667 0.104,0.029333 0.1866667,0.088 0.085333,0.0586667 0.136,0.15200002 0.053333,0.0933333 0.053333,0.2426667 0,0.11200001 -0.042667,0.22133336 Q 3.389329,-0.24000003 3.293329,-0.15200002 3.1999957,-0.06400001 3.0479957,-0.008 2.8986623,0.04533334 2.6826623,0.04533334 q -0.168,0 -0.3040001,-0.04000001 -0.136,-0.03733333 -0.232,-0.11733334 -0.093333,-0.0826667 -0.144,-0.2106667 -0.048,-0.12800001 -0.042667,-0.3066667 z" style="font-style:italic" id="path181"/>
        <path d="m 4.0506594,-1.9040002 h 1.3866668 l -0.058667,0.288 H 4.3199928 l -0.104,0.4986667 h 0.9813334 l -0.056,0.27200007 H 4.1573261 l -0.1146667,0.5573334 H 5.1093262 L 5.0506595,0 H 3.6559927 Z" style="font-style:italic" id="path183"/>
        <path d="m 6.4693237,-0.27200003 h 0.416 q 0.144,0 0.2506667,-0.048 0.1093334,-0.0506667 0.1866667,-0.12533335 0.077333,-0.0773333 0.128,-0.17333335 0.053333,-0.096 0.082667,-0.18666669 0.032,-0.0933333 0.042667,-0.17333335 0.013333,-0.0826667 0.013333,-0.13066672 0,-0.2506667 -0.1093333,-0.3866667 -0.1093334,-0.136 -0.3093334,-0.136 H 6.754657 Z m 0.008,-1.63200017 h 0.6986667 q 0.3653334,0 0.5546668,0.2 0.192,0.2 0.192,0.5973334 0,0.085333 -0.018667,0.19200002 -0.018667,0.10400002 -0.056,0.2106667 -0.037333,0.10666668 -0.093333,0.20800002 -0.056,0.10133335 -0.1333334,0.17600002 -0.085333,0.0826667 -0.1653333,0.14400002 -0.08,0.0586667 -0.1786667,0.09866668 -0.098667,0.04 -0.2266667,0.05866667 Q 6.9253237,0 6.746657,0 H 6.0773236 Z" style="font-style:italic" id="path185"/>
        <path d="m 8.3626524,-1.9040002 h 0.3013334 l -0.058667,0.288 H 8.3039857 Z m -0.1093333,0.5253334 h 0.304 L 8.2719857,0 h -0.304 z" style="font-style:italic" id="path187"/>
        <path d="m 8.895984,-1.3786668 h 0.288 l -0.056,0.2693333 0.00533,0.00533 q 0.032,-0.056 0.077333,-0.112 0.045333,-0.056 0.1013333,-0.098667 0.058667,-0.045333 0.1253334,-0.072 0.066667,-0.029333 0.136,-0.029333 0.037333,0 0.072,0.00267 0.037333,0 0.074667,0.00533 l -0.064,0.2906667 q -0.026667,-0.00533 -0.053333,-0.008 -0.026667,-0.00267 -0.053333,-0.00267 -0.1173334,0 -0.2053334,0.042667 -0.085333,0.04 -0.1466667,0.11200005 -0.058667,0.072 -0.096,0.16533335 -0.037333,0.0933333 -0.058667,0.19733336 L 8.9146506,0 h -0.304 z" style="font-style:italic" id="path189"/>
        <path d="m 10.701315,-0.81066676 q 0.0027,-0.024 0.0027,-0.0426667 0,-0.0213333 0,-0.0426667 0,-0.12266669 -0.07733,-0.19999999 -0.07733,-0.08 -0.213333,-0.08 -0.170667,0 -0.272001,0.104 -0.101333,0.10133332 -0.1466662,0.26133334 z m 0.221333,0.38400004 q -0.072,0.2426667 -0.245333,0.35466671 -0.170667,0.10933335 -0.418667,0.10933335 -0.130667,0 -0.242667,-0.04000001 -0.1093332,-0.04266667 -0.1893332,-0.12000001 -0.08,-0.08 -0.1253334,-0.18933336 -0.045333,-0.11200001 -0.045333,-0.25333336 0,-0.16000002 0.050667,-0.31200004 0.050667,-0.15200006 0.1466666,-0.27200006 0.098667,-0.12 0.2399996,-0.192 0.144,-0.074667 0.328001,-0.074667 0.184,0 0.298666,0.061333 0.114667,0.061333 0.178667,0.1546667 0.064,0.093333 0.08533,0.20533331 0.024,0.11200002 0.024,0.21333336 0,0.0506667 -0.0053,0.0933333 -0.0053,0.0426667 -0.01067,0.0773333 H 9.9653145 q -0.00533,0.024 -0.00533,0.0453333 0,0.0213333 0,0.0426667 0,0.14400002 0.077333,0.23200003 0.07733,0.088 0.250667,0.088 0.122667,0 0.210667,-0.056 0.088,-0.0586667 0.12,-0.16800002 z" style="font-style:italic" id="path191"/>
        <path d="m 12.173314,-0.92266678 q 0.0053,-0.12800002 -0.072,-0.18933332 -0.07467,-0.064 -0.2,-0.064 -0.114667,0 -0.2,0.058667 -0.08533,0.058667 -0.141334,0.14933338 -0.056,0.0906667 -0.08533,0.20000003 -0.02667,0.10666668 -0.02667,0.20533336 0,0.0773333 0.016,0.14400001 0.016,0.064 0.05067,0.11200002 0.03733,0.048 0.096,0.0773333 0.05867,0.0266667 0.144,0.0266667 0.136,0 0.221334,-0.072 0.088,-0.0746667 0.125333,-0.20000002 h 0.304 q -0.07467,0.2666667 -0.253333,0.38933338 -0.176,0.12266668 -0.448,0.12266668 -0.136001,0 -0.240001,-0.04266667 -0.104,-0.04266668 -0.176,-0.12000002 -0.06933,-0.08 -0.106666,-0.18666669 -0.03733,-0.10933334 -0.03733,-0.24000003 0,-0.17333335 0.05333,-0.3306667 0.05333,-0.15733333 0.154666,-0.27466673 0.101334,-0.12 0.245334,-0.1893333 0.146667,-0.069333 0.330667,-0.069333 0.114666,0 0.216,0.032 0.101333,0.032 0.176,0.093333 0.07733,0.061333 0.117333,0.1546667 0.04267,0.093333 0.04,0.21333332 z" style="font-style:italic" id="path193"/>
        <path d="m 13.018647,-1.7920002 h 0.296 l -0.08533,0.4133334 h 0.274667 l -0.048,0.2266667 h -0.274667 l -0.141333,0.67466671 q -0.01067,0.0453333 -0.01867,0.0853333 -0.008,0.04 -0.008,0.064 0,0.0453333 0.01867,0.0746667 0.02133,0.0266667 0.09067,0.0266667 0.03467,0 0.07467,0 0.04267,-0.002667 0.088,-0.0133333 L 13.234647,-0.016 q -0.05867,0.01333333 -0.125334,0.02133333 -0.06667,0.008 -0.125333,0.008 -0.08267,0 -0.136,-0.02133333 -0.05333,-0.02133334 -0.08533,-0.05600001 -0.02933,-0.03733334 -0.04267,-0.08266667 -0.01067,-0.048 -0.01067,-0.096 0,-0.04 0.0053,-0.088 0.008,-0.048 0.01333,-0.0666667 l 0.157333,-0.75466672 h -0.24 l 0.048,-0.2266667 h 0.24 z" style="font-style:italic" id="path195"/>
        <path d="m 14.282642,-1.1760001 q -0.117333,0 -0.205333,0.058667 -0.08533,0.058667 -0.144,0.14933338 -0.05867,0.088 -0.088,0.19733336 -0.02667,0.10933335 -0.02667,0.21333336 0,0.15200002 0.07467,0.25333336 0.07733,0.10133335 0.242667,0.10133335 0.117333,0 0.202666,-0.056 0.088,-0.0586667 0.146667,-0.14666668 0.05867,-0.0906667 0.08533,-0.20000003 0.02933,-0.11200001 0.02933,-0.21600002 0,-0.15200002 -0.07733,-0.25333337 -0.07467,-0.1013333 -0.24,-0.1013333 z m -0.165333,1.21333344 q -0.285333,0 -0.445333,-0.15466669 -0.157334,-0.15733335 -0.157334,-0.44800005 0,-0.17066669 0.056,-0.32266671 0.056,-0.15466669 0.157334,-0.27199999 0.104,-0.1173334 0.248,-0.1866667 0.146666,-0.069333 0.325333,-0.069333 0.285333,0 0.442667,0.152 0.16,0.1493334 0.16,0.4400001 0,0.18133336 -0.05333,0.33866671 -0.05333,0.15733335 -0.157333,0.2746667 -0.101333,0.11466668 -0.248,0.18133335 -0.144,0.06666668 -0.328,0.06666668 z" style="font-style:italic" id="path197"/>
        <path d="m 15.317305,-1.3786668 h 0.288 l -0.056,0.2693333 0.0053,0.00533 q 0.032,-0.056 0.07733,-0.112 0.04533,-0.056 0.101333,-0.098667 0.05867,-0.045333 0.125333,-0.072 0.06667,-0.029333 0.136,-0.029333 0.03733,0 0.072,0.00267 0.03733,0 0.07467,0.00533 l -0.064,0.2906667 q -0.02667,-0.00533 -0.05333,-0.008 -0.02667,-0.00267 -0.05333,-0.00267 -0.117333,0 -0.205333,0.042667 -0.08533,0.04 -0.146667,0.11200005 -0.05867,0.072 -0.096,0.16533335 -0.03733,0.0933333 -0.05867,0.19733336 L 15.335972,0 h -0.304 z" style="font-style:italic" id="path199"/>
      </g>
    </g>
  </g>
</svg>
