<svg xmlns="http://www.w3.org/2000/svg" xmlns:svg="http://www.w3.org/2000/svg" viewBox="-0.35 -0.35 140.7 40.7" width="804px" height="232.571429px" version="1.1" id="svg16">
  <defs id="defs20"/>
  <g id="g14">
    <path d="m 84,20.428 h 9.70995 a 4,4 90 0 0 4,-4 v -0.856 a 4,4 90 0 0 -4,-4 h -47.4199 a 4,4 90 0 0 -4,4 v 0.856 a 4,4 90 0 0 4,4 H 70 a 8,8 90 0 1 8,8" fill="none" stroke="#00aa00" stroke-width="0.2" id="path2"/>
    <g font-family="'HelveticaNeueLT Com 65 Md'" font-size="4px" fill="#000000" transform="translate(0,14.572)" id="g6">
      <g aria-label="There is only one Shay Hill." transform="translate(45.25805,2.856)" id="text4">
        <path d="m 0.032,-2.856 h 2.312 v 0.432 H 1.436 V 0 h -0.5 V -2.424 H 0.032 Z" id="path22"/>
        <path d="m 2.611994,-2.856 h 0.456 v 1.06 h 0.008 q 0.084,-0.14 0.248,-0.232 0.168,-0.096 0.372,-0.096 0.34,0 0.536,0.176 0.196,0.176 0.196,0.528 V 0 h -0.456 v -1.3 q -0.008,-0.244 -0.104,-0.352 -0.096,-0.112 -0.3,-0.112 -0.116,0 -0.208,0.044 -0.092,0.04 -0.156,0.116 -0.064,0.072 -0.1,0.172 -0.036,0.1 -0.036,0.212 V 0 h -0.456 z" id="path24"/>
        <path d="m 6.3279916,-1.216 q -0.008,-0.108 -0.048,-0.208 -0.036,-0.1 -0.104,-0.172 -0.064,-0.076 -0.16,-0.12 -0.092,-0.048 -0.208,-0.048 -0.12,0 -0.22,0.044 -0.096,0.04 -0.168,0.116 -0.068,0.072 -0.112,0.172 -0.04,0.1 -0.044,0.216 z m -1.064,0.3 q 0,0.12 0.032,0.232 0.036,0.112 0.104,0.196 0.068,0.084 0.172,0.136 0.104,0.048 0.248,0.048 0.2,0 0.32,-0.084 0.124,-0.088 0.184,-0.26 h 0.432 q -0.036,0.168 -0.124,0.3 -0.088,0.132 -0.212,0.224 -0.124,0.088 -0.28,0.132 -0.152,0.048 -0.32,0.048 -0.244,0 -0.432,-0.08 -0.188,-0.08 -0.32,-0.224 -0.128,-0.144 -0.196,-0.344 -0.064,-0.2 -0.064,-0.44 0,-0.22 0.068,-0.416 0.072,-0.2 0.2,-0.348 0.132,-0.152 0.316,-0.24 0.184,-0.088 0.416,-0.088 0.244,0 0.436,0.104 0.196,0.1 0.324,0.268 0.128,0.168 0.184,0.388 0.06,0.216 0.032,0.448 z" id="path26"/>
        <path d="m 7.1319907,-2.068 h 0.428 v 0.4 h 0.008 q 0.02,-0.084 0.076,-0.164 0.06,-0.08 0.14,-0.144 0.084,-0.068 0.184,-0.108 0.1,-0.04 0.204,-0.04 0.08,0 0.108,0.004 0.032,0.004 0.064,0.008 v 0.44 q -0.048,-0.008 -0.1,-0.012 -0.048,-0.008 -0.096,-0.008 -0.116,0 -0.22,0.048 -0.1,0.044 -0.176,0.136 -0.076,0.088 -0.12,0.22 -0.044,0.132 -0.044,0.304 V 0 h -0.456 z" id="path28"/>
        <path d="m 9.8879816,-1.216 q -0.008,-0.108 -0.048,-0.208 -0.036,-0.1 -0.104,-0.172 -0.064,-0.076 -0.16,-0.12 -0.092,-0.048 -0.208,-0.048 -0.12,0 -0.22,0.044 -0.096,0.04 -0.168,0.116 -0.068,0.072 -0.112,0.172 -0.04,0.1 -0.044,0.216 z m -1.064,0.3 q 0,0.12 0.032,0.232 0.036,0.112 0.104,0.196 0.068,0.084 0.172,0.136 0.104,0.048 0.248,0.048 0.2,0 0.32,-0.084 0.124,-0.088 0.184,-0.26 h 0.4320004 q -0.036,0.168 -0.124,0.3 -0.088,0.132 -0.2120004,0.224 -0.124,0.088 -0.28,0.132 -0.152,0.048 -0.32,0.048 -0.244,0 -0.432,-0.08 -0.188,-0.08 -0.32,-0.224 -0.128,-0.144 -0.196,-0.344 -0.064,-0.2 -0.064,-0.44 0,-0.22 0.068,-0.416 0.072,-0.2 0.2,-0.348 0.132,-0.152 0.316,-0.24 0.184,-0.088 0.416,-0.088 0.244,0 0.436,0.104 0.196,0.1 0.3240004,0.268 0.128,0.168 0.184,0.388 0.06,0.216 0.032,0.448 z" id="path30"/>
        <path d="m 11.81598,-2.856 h 0.456 v 0.432 h -0.456 z m 0,0.788 h 0.456 V 0 h -0.456 z" id="path32"/>
        <path d="m 13.111977,-0.664 q 0.02,0.2 0.152,0.28 0.132,0.08 0.316,0.08 0.064,0 0.144,-0.008 0.084,-0.012 0.156,-0.04 0.072,-0.028 0.116,-0.08 0.048,-0.056 0.044,-0.144 -0.004,-0.088 -0.064,-0.144 -0.06,-0.056 -0.156,-0.088 -0.092,-0.036 -0.212,-0.06 -0.12,-0.024 -0.244,-0.052 -0.128,-0.028 -0.248,-0.068 -0.116,-0.04 -0.212,-0.108 -0.092,-0.068 -0.148,-0.172 -0.056,-0.108 -0.056,-0.264 0,-0.168 0.08,-0.28 0.084,-0.116 0.208,-0.184 0.128,-0.072 0.28,-0.1 0.156,-0.028 0.296,-0.028 0.16,0 0.304,0.036 0.148,0.032 0.264,0.108 0.12,0.076 0.196,0.2 0.08,0.12 0.1,0.292 h -0.476 q -0.032,-0.164 -0.152,-0.22 -0.116,-0.056 -0.268,-0.056 -0.048,0 -0.116,0.008 -0.064,0.008 -0.124,0.032 -0.056,0.02 -0.096,0.064 -0.04,0.04 -0.04,0.108 0,0.084 0.056,0.136 0.06,0.052 0.152,0.088 0.096,0.032 0.216,0.056 0.12,0.024 0.248,0.052 0.124,0.028 0.244,0.068 0.12,0.04 0.212,0.108 0.096,0.068 0.152,0.172 0.06,0.104 0.06,0.256 0,0.184 -0.084,0.312 -0.084,0.128 -0.22,0.208 -0.132,0.08 -0.296,0.116 -0.164,0.036 -0.324,0.036 -0.196,0 -0.364,-0.044 -0.164,-0.044 -0.288,-0.132 -0.12,-0.092 -0.192,-0.224 -0.068,-0.136 -0.072,-0.32 z" id="path34"/>
        <path d="m 16.903973,0.056 q -0.248,0 -0.444,-0.08 -0.192,-0.084 -0.328,-0.228 -0.132,-0.144 -0.204,-0.344 -0.068,-0.2 -0.068,-0.44 0,-0.236 0.068,-0.436 0.072,-0.2 0.204,-0.344 0.136,-0.144 0.328,-0.224 0.196,-0.084 0.444,-0.084 0.248,0 0.44,0.084 0.196,0.08 0.328,0.224 0.136,0.144 0.204,0.344 0.072,0.2 0.072,0.436 0,0.24 -0.072,0.44 -0.068,0.2 -0.204,0.344 -0.132,0.144 -0.328,0.228 -0.192,0.08 -0.44,0.08 z m 0,-0.36 q 0.152,0 0.264,-0.064 0.112,-0.064 0.184,-0.168 0.072,-0.104 0.104,-0.232 0.036,-0.132 0.036,-0.268 0,-0.132 -0.036,-0.264 -0.032,-0.132 -0.104,-0.232 -0.072,-0.104 -0.184,-0.168 -0.112,-0.064 -0.264,-0.064 -0.152,0 -0.264,0.064 -0.112,0.064 -0.184,0.168 -0.072,0.1 -0.108,0.232 -0.032,0.132 -0.032,0.264 0,0.136 0.032,0.268 0.036,0.128 0.108,0.232 0.072,0.104 0.184,0.168 0.112,0.064 0.264,0.064 z" id="path36"/>
        <path d="m 18.327967,-2.068 h 0.432 v 0.304 l 0.008,0.008 q 0.104,-0.172 0.272,-0.268 0.168,-0.1 0.372,-0.1 0.34,0 0.536,0.176 0.196,0.176 0.196,0.528 V 0 h -0.456 v -1.3 q -0.008,-0.244 -0.104,-0.352 -0.096,-0.112 -0.3,-0.112 -0.116,0 -0.208,0.044 -0.092,0.04 -0.156,0.116 -0.064,0.072 -0.1,0.172 -0.036,0.1 -0.036,0.212 V 0 h -0.456 z" id="path38"/>
        <path d="m 20.635965,-2.856 h 0.456 V 0 h -0.456 z" id="path40"/>
        <path d="m 21.359961,-2.068 h 0.5 l 0.54,1.544 h 0.008 l 0.524,-1.544 h 0.476 l -0.804,2.18 q -0.056,0.14 -0.112,0.268 -0.052,0.128 -0.132,0.224 -0.076,0.1 -0.192,0.156 -0.116,0.06 -0.296,0.06 -0.16,0 -0.316,-0.024 V 0.412 q 0.056,0.008 0.108,0.016 0.052,0.012 0.108,0.012 0.08,0 0.132,-0.02 0.052,-0.02 0.084,-0.06 0.036,-0.036 0.06,-0.088 0.024,-0.052 0.044,-0.12 l 0.052,-0.16 z" id="path42"/>
        <path d="m 25.723957,0.056 q -0.248,0 -0.444,-0.08 -0.192,-0.084 -0.328,-0.228 -0.132,-0.144 -0.204,-0.344 -0.068,-0.2 -0.068,-0.44 0,-0.236 0.068,-0.436 0.072,-0.2 0.204,-0.344 0.136,-0.144 0.328,-0.224 0.196,-0.084 0.444,-0.084 0.248,0 0.44,0.084 0.196,0.08 0.328,0.224 0.136,0.144 0.204,0.344 0.072,0.2 0.072,0.436 0,0.24 -0.072,0.44 -0.068,0.2 -0.204,0.344 -0.132,0.144 -0.328,0.228 -0.192,0.08 -0.44,0.08 z m 0,-0.36 q 0.152,0 0.264,-0.064 0.112,-0.064 0.184,-0.168 0.072,-0.104 0.104,-0.232 0.036,-0.132 0.036,-0.268 0,-0.132 -0.036,-0.264 -0.032,-0.132 -0.104,-0.232 -0.072,-0.104 -0.184,-0.168 -0.112,-0.064 -0.264,-0.064 -0.152,0 -0.264,0.064 -0.112,0.064 -0.184,0.168 -0.072,0.1 -0.108,0.232 -0.032,0.132 -0.032,0.264 0,0.136 0.032,0.268 0.036,0.128 0.108,0.232 0.072,0.104 0.184,0.168 0.112,0.064 0.264,0.064 z" id="path44"/>
        <path d="m 27.147951,-2.068 h 0.432 v 0.304 l 0.008,0.008 q 0.104,-0.172 0.272,-0.268 0.168,-0.1 0.372,-0.1 0.34,0 0.536,0.176 0.196,0.176 0.196,0.528 V 0 h -0.456 v -1.3 q -0.008,-0.244 -0.104,-0.352 -0.096,-0.112 -0.3,-0.112 -0.116,0 -0.208,0.044 -0.092,0.04 -0.156,0.116 -0.064,0.072 -0.1,0.172 -0.036,0.1 -0.036,0.212 V 0 h -0.456 z" id="path46"/>
        <path d="m 30.863949,-1.216 q -0.008,-0.108 -0.048,-0.208 -0.036,-0.1 -0.104,-0.172 -0.064,-0.076 -0.16,-0.12 -0.092,-0.048 -0.208,-0.048 -0.12,0 -0.22,0.044 -0.096,0.04 -0.168,0.116 -0.068,0.072 -0.112,0.172 -0.04,0.1 -0.044,0.216 z m -1.064,0.3 q 0,0.12 0.032,0.232 0.036,0.112 0.104,0.196 0.068,0.084 0.172,0.136 0.104,0.048 0.248,0.048 0.2,0 0.32,-0.084 0.124,-0.088 0.184,-0.26 h 0.432 q -0.036,0.168 -0.124,0.3 -0.088,0.132 -0.212,0.224 -0.124,0.088 -0.28,0.132 -0.152,0.048 -0.32,0.048 -0.244,0 -0.432,-0.08 -0.188,-0.08 -0.32,-0.224 -0.128,-0.144 -0.196,-0.344 -0.064,-0.2 -0.064,-0.44 0,-0.22 0.068,-0.416 0.072,-0.2 0.2,-0.348 0.132,-0.152 0.316,-0.24 0.184,-0.088 0.416,-0.088 0.244,0 0.436,0.104 0.196,0.1 0.324,0.268 0.128,0.168 0.184,0.388 0.06,0.216 0.032,0.448 z" id="path48"/>
        <path d="m 33.171948,-0.952 q 0,0.164 0.056,0.28 0.056,0.116 0.156,0.192 0.1,0.072 0.228,0.108 0.132,0.032 0.284,0.032 0.164,0 0.28,-0.036 0.116,-0.04 0.188,-0.1 0.072,-0.06 0.104,-0.136 0.032,-0.08 0.032,-0.16 0,-0.164 -0.076,-0.24 -0.072,-0.08 -0.16,-0.112 -0.152,-0.056 -0.356,-0.104 -0.2,-0.052 -0.496,-0.132 -0.184,-0.048 -0.308,-0.124 -0.12,-0.08 -0.192,-0.176 -0.072,-0.096 -0.104,-0.204 -0.028,-0.108 -0.028,-0.22 0,-0.216 0.088,-0.372 0.092,-0.16 0.24,-0.264 0.148,-0.104 0.336,-0.152 0.188,-0.052 0.38,-0.052 0.224,0 0.42,0.06 0.2,0.056 0.348,0.172 0.152,0.116 0.24,0.288 0.088,0.168 0.088,0.392 h -0.5 q -0.02,-0.276 -0.188,-0.388 -0.168,-0.116 -0.428,-0.116 -0.088,0 -0.18,0.02 -0.092,0.016 -0.168,0.06 -0.076,0.04 -0.128,0.112 -0.048,0.072 -0.048,0.18 0,0.152 0.092,0.24 0.096,0.084 0.248,0.128 0.016,0.004 0.124,0.036 0.112,0.028 0.248,0.064 0.136,0.036 0.264,0.072 0.132,0.032 0.188,0.048 0.14,0.044 0.244,0.12 0.104,0.076 0.172,0.176 0.072,0.096 0.104,0.208 0.036,0.112 0.036,0.224 0,0.24 -0.1,0.412 -0.096,0.168 -0.256,0.276 -0.16,0.108 -0.364,0.156 -0.204,0.052 -0.416,0.052 -0.244,0 -0.46,-0.06 -0.216,-0.06 -0.376,-0.184 -0.16,-0.124 -0.256,-0.316 -0.096,-0.196 -0.1,-0.46 z" id="path50"/>
        <path d="m 35.371943,-2.856 h 0.456 v 1.06 h 0.008 q 0.084,-0.14 0.248,-0.232 0.168,-0.096 0.372,-0.096 0.34,0 0.536,0.176 0.196,0.176 0.196,0.528 V 0 h -0.456 v -1.3 q -0.008,-0.244 -0.104,-0.352 -0.096,-0.112 -0.3,-0.112 -0.116,0 -0.208,0.044 -0.092,0.04 -0.156,0.116 -0.064,0.072 -0.1,0.172 -0.036,0.1 -0.036,0.212 V 0 h -0.456 z" id="path52"/>
        <path d="m 39.39994,-0.46 q 0,0.084 0.02,0.12 0.024,0.036 0.088,0.036 0.02,0 0.048,0 0.028,0 0.064,-0.008 v 0.316 q -0.024,0.008 -0.064,0.016 -0.036,0.012 -0.076,0.02 -0.04,0.008 -0.08,0.012 -0.04,0.004 -0.068,0.004 -0.14,0 -0.232,-0.056 -0.092,-0.056 -0.12,-0.196 -0.136,0.132 -0.336,0.192 -0.196,0.06 -0.38,0.06 -0.14,0 -0.268,-0.04 -0.128,-0.036 -0.228,-0.108 -0.096,-0.076 -0.156,-0.188 -0.056,-0.116 -0.056,-0.268 0,-0.192 0.068,-0.312 0.072,-0.12 0.184,-0.188 0.116,-0.068 0.256,-0.096 0.144,-0.032 0.288,-0.048 0.124,-0.024 0.236,-0.032 0.112,-0.012 0.196,-0.036 0.088,-0.024 0.136,-0.072 0.052,-0.052 0.052,-0.152 0,-0.088 -0.044,-0.144 -0.04,-0.056 -0.104,-0.084 -0.06,-0.032 -0.136,-0.04 -0.076,-0.012 -0.144,-0.012 -0.192,0 -0.316,0.08 -0.124,0.08 -0.14,0.248 h -0.456 q 0.012,-0.2 0.096,-0.332 0.084,-0.132 0.212,-0.212 0.132,-0.08 0.296,-0.112 0.164,-0.032 0.336,-0.032 0.152,0 0.3,0.032 0.148,0.032 0.264,0.104 0.12,0.072 0.192,0.188 0.072,0.112 0.072,0.276 z m -0.456,-0.576 q -0.104,0.068 -0.256,0.084 -0.152,0.012 -0.304,0.04 -0.072,0.012 -0.14,0.036 -0.068,0.02 -0.12,0.06 -0.052,0.036 -0.084,0.1 -0.028,0.06 -0.028,0.148 0,0.076 0.044,0.128 0.044,0.052 0.104,0.084 0.064,0.028 0.136,0.04 0.076,0.012 0.136,0.012 0.076,0 0.164,-0.02 0.088,-0.02 0.164,-0.068 0.08,-0.048 0.132,-0.12 0.052,-0.076 0.052,-0.184 z" id="path54"/>
        <path d="m 39.663939,-2.068 h 0.5 l 0.54,1.544 h 0.008 l 0.524,-1.544 h 0.476 l -0.804,2.18 q -0.056,0.14 -0.112,0.268 -0.052,0.128 -0.132,0.224 -0.076,0.1 -0.192,0.156 -0.116,0.06 -0.296,0.06 -0.16,0 -0.316,-0.024 V 0.412 q 0.056,0.008 0.108,0.016 0.052,0.012 0.108,0.012 0.08,0 0.132,-0.02 0.052,-0.02 0.084,-0.06 0.036,-0.036 0.06,-0.088 0.024,-0.052 0.044,-0.12 l 0.052,-0.16 z" id="path56"/>
        <path d="m 43.131935,-2.856 h 0.5 v 1.136 h 1.3 v -1.136 h 0.5 V 0 h -0.5 v -1.288 h -1.3 V 0 h -0.5 z" id="path58"/>
        <path d="m 45.979928,-2.856 h 0.456 v 0.432 h -0.456 z m 0,0.788 h 0.456 V 0 h -0.456 z" id="path60"/>
        <path d="m 46.943925,-2.856 h 0.456 V 0 h -0.456 z" id="path62"/>
        <path d="m 47.907922,-2.856 h 0.456 V 0 h -0.456 z" id="path64"/>
        <path d="m 48.895919,-0.54 h 0.556 V 0 h -0.556 z" id="path66"/>
      </g>
    </g>
    <g font-family="'HelveticaNeueLT Com 65 Md'" fill="#444444" font-size="2.66667px" transform="translate(84.653333,23.7616)" id="g12">
      <g aria-label="&#8212;Dana" id="text8">
        <path d="M 0.34666671,-0.86933344 H 2.3200003 V -0.5813334 H 0.34666671 Z" id="path69"/>
        <path d="m 2.8693287,-1.9040002 h 0.7893334 q 0.2186667,0 0.3786667,0.074667 0.16,0.074667 0.2613334,0.2053334 0.1013333,0.128 0.1493333,0.3013334 0.050667,0.1733333 0.050667,0.37066669 0,0.19733335 -0.050667,0.37066671 -0.048,0.17333335 -0.1493333,0.30400003 Q 4.1973288,-0.14933335 4.0373288,-0.07466668 3.8773288,0 3.6586621,0 H 2.8693287 Z m 0.3333333,1.63200017 h 0.3280001 q 0.1946667,0 0.3173334,-0.0506667 0.1253333,-0.0533333 0.1946666,-0.14400001 0.072,-0.0933333 0.096,-0.21600003 0.026667,-0.12533335 0.026667,-0.26933336 0,-0.14399999 -0.026667,-0.26666669 -0.024,-0.1253334 -0.096,-0.216 -0.069333,-0.093333 -0.1946666,-0.1440001 -0.1226667,-0.053333 -0.3173334,-0.053333 H 3.202662 Z" id="path71"/>
        <path d="m 5.9066578,-0.3066667 q 0,0.056 0.013333,0.08 0.016,0.024 0.058667,0.024 0.013333,0 0.032,0 0.018667,0 0.042667,-0.005333 v 0.21066669 q -0.016,0.00533333 -0.042667,0.01066666 -0.024,0.008 -0.050667,0.01333334 -0.026667,0.0053333 -0.053333,0.008 -0.026667,0.0026667 -0.045333,0.0026667 -0.093333,0 -0.1546667,-0.03733334 -0.061333,-0.03733334 -0.08,-0.13066668 -0.090667,0.08800001 -0.224,0.12800001 -0.1306667,0.04000001 -0.2533334,0.04000001 -0.093333,0 -0.1786666,-0.02666667 -0.085333,-0.024 -0.1520001,-0.07200001 -0.064,-0.05066667 -0.104,-0.12533335 -0.037333,-0.0773333 -0.037333,-0.17866669 0,-0.12800001 0.045333,-0.20800002 0.048,-0.08 0.1226667,-0.12533335 0.077333,-0.0453333 0.1706667,-0.064 0.096,-0.0213333 0.192,-0.032 0.082667,-0.016 0.1573334,-0.0213333 0.074667,-0.008 0.1306667,-0.024 0.058667,-0.016 0.090667,-0.048 0.034667,-0.0346667 0.034667,-0.10133334 0,-0.0586667 -0.029333,-0.0960001 -0.026667,-0.037333 -0.069333,-0.056 -0.04,-0.021333 -0.090667,-0.026667 -0.050667,-0.008 -0.096,-0.008 -0.128,0 -0.2106667,0.053333 -0.082667,0.053333 -0.093333,0.16533335 h -0.304 q 0.008,-0.13333335 0.064,-0.22133335 0.056,-0.088 0.1413333,-0.1413334 0.088,-0.053333 0.1973334,-0.074667 0.1093333,-0.021333 0.224,-0.021333 0.1013334,0 0.2,0.021333 0.098667,0.021333 0.1760001,0.069333 0.08,0.048 0.128,0.1253334 0.048,0.074667 0.048,0.184 z M 5.6026577,-0.69066675 q -0.069333,0.0453333 -0.1706667,0.056 -0.1013333,0.008 -0.2026666,0.0266667 -0.048,0.008 -0.093333,0.024 -0.045333,0.0133333 -0.08,0.04 -0.034667,0.024 -0.056,0.0666667 -0.018667,0.04 -0.018667,0.0986667 0,0.0506667 0.029333,0.0853333 0.029333,0.0346667 0.069333,0.056 0.042667,0.0186667 0.090667,0.0266667 0.050667,0.008 0.090667,0.008 0.050667,0 0.1093333,-0.0133333 0.058667,-0.0133333 0.1093334,-0.0453333 0.053333,-0.032 0.088,-0.08 0.034667,-0.0506667 0.034667,-0.12266669 z" id="path73"/>
        <path d="m 6.234657,-1.3786668 h 0.288 v 0.2026667 l 0.00533,0.00533 q 0.069333,-0.1146667 0.1813333,-0.1786667 0.112,-0.066667 0.248,-0.066667 0.2266667,0 0.3573334,0.1173334 0.1306667,0.1173333 0.1306667,0.35200002 V 0 h -0.304 v -0.86666677 q -0.00533,-0.16266673 -0.069333,-0.23466673 -0.064,-0.074667 -0.2,-0.074667 -0.077333,0 -0.1386667,0.029333 -0.061333,0.026667 -0.104,0.077333 -0.042667,0.048 -0.066667,0.11466672 -0.024,0.0666667 -0.024,0.14133335 V 0 h -0.304 z" id="path75"/>
        <path d="m 8.9199892,-0.3066667 q 0,0.056 0.013333,0.08 0.016,0.024 0.058667,0.024 0.013333,0 0.032,0 0.018667,0 0.042667,-0.005333 v 0.21066669 q -0.016,0.00533333 -0.042667,0.01066666 -0.024,0.008 -0.050667,0.01333334 -0.026667,0.0053333 -0.053333,0.008 -0.026667,0.0026667 -0.045333,0.0026667 -0.093333,0 -0.1546666,-0.03733334 -0.061333,-0.03733334 -0.08,-0.13066668 -0.090667,0.08800001 -0.2240001,0.12800001 -0.1306667,0.04000001 -0.2533333,0.04000001 -0.093333,0 -0.1786667,-0.02666667 -0.085333,-0.024 -0.152,-0.07200001 -0.064,-0.05066667 -0.1040001,-0.12533335 -0.037333,-0.0773333 -0.037333,-0.17866669 0,-0.12800001 0.045333,-0.20800002 0.048,-0.08 0.1226667,-0.12533335 0.077333,-0.0453333 0.1706667,-0.064 0.096,-0.0213333 0.192,-0.032 0.082667,-0.016 0.1573334,-0.0213333 0.074667,-0.008 0.1306667,-0.024 0.058667,-0.016 0.090667,-0.048 0.034667,-0.0346667 0.034667,-0.10133334 0,-0.0586667 -0.029333,-0.0960001 -0.026667,-0.037333 -0.069333,-0.056 -0.04,-0.021333 -0.090667,-0.026667 -0.050667,-0.008 -0.096,-0.008 -0.128,0 -0.2106666,0.053333 -0.082667,0.053333 -0.093333,0.16533335 h -0.304 q 0.008,-0.13333335 0.064,-0.22133335 0.056,-0.088 0.1413333,-0.1413334 0.088,-0.053333 0.1973334,-0.074667 0.1093333,-0.021333 0.224,-0.021333 0.1013334,0 0.2,0.021333 0.098667,0.021333 0.1760001,0.069333 0.08,0.048 0.128,0.1253334 0.048,0.074667 0.048,0.184 z M 8.6159891,-0.69066675 q -0.069333,0.0453333 -0.1706666,0.056 -0.1013334,0.008 -0.2026667,0.0266667 -0.048,0.008 -0.093333,0.024 -0.045333,0.0133333 -0.08,0.04 -0.034667,0.024 -0.056,0.0666667 -0.018667,0.04 -0.018667,0.0986667 0,0.0506667 0.029333,0.0853333 0.029333,0.0346667 0.069333,0.056 0.042667,0.0186667 0.090667,0.0266667 0.050667,0.008 0.090667,0.008 0.050667,0 0.1093333,-0.0133333 0.058667,-0.0133333 0.1093334,-0.0453333 0.053333,-0.032 0.088,-0.08 0.034667,-0.0506667 0.034667,-0.12266669 z" id="path77"/>
      </g>
      <g aria-label="Creative Content Provider" transform="translate(3,3.2368)" id="text10" style="font-style:italic">
        <path d="m 1.5226668,-1.2693335 q 0,-0.2 -0.112,-0.304 -0.112,-0.104 -0.3173333,-0.104 -0.17066672,0 -0.29866674,0.077333 -0.12533335,0.077333 -0.21066669,0.2026667 -0.0826667,0.1253333 -0.12533335,0.2826667 -0.0426667,0.15733335 -0.0426667,0.31733337 0,0.2666667 0.13600002,0.41866672 0.13600001,0.15200002 0.38666671,0.15200002 0.12800002,0 0.21600002,-0.048 0.088,-0.0506667 0.144,-0.12000001 0.058667,-0.072 0.088,-0.14666669 0.032,-0.0746667 0.045333,-0.12266668 h 0.3333333 q -0.04,0.18133336 -0.12,0.31466671 -0.08,0.13333334 -0.192,0.22133335 Q 1.3440002,-0.04 1.2106668,0.00266667 1.0773335,0.04533334 0.92800011,0.04533334 q -0.20533336,0 -0.36266671,-0.06400001 Q 0.40800005,-0.08266668 0.30133337,-0.19466669 0.19466669,-0.3066667 0.13866668,-0.45866672 q -0.056,-0.15200002 -0.056,-0.32800004 0,-0.29866674 0.08800001,-0.51733344 0.0906667,-0.2213333 0.23466669,-0.3626667 0.14666669,-0.144 0.32800004,-0.2133333 0.18400002,-0.069333 0.37066668,-0.069333 0.1680001,0 0.3093334,0.045333 0.1413334,0.045333 0.24,0.1306667 0.1013334,0.085333 0.1546667,0.2133333 0.053333,0.128 0.048,0.2906667 z" style="font-style:italic" id="path80"/>
        <path d="m 2.1786622,-1.3786668 h 0.288 l -0.056,0.2693333 0.00533,0.00533 q 0.032,-0.056 0.077333,-0.112 0.045333,-0.056 0.1013334,-0.098667 0.058667,-0.045333 0.1253333,-0.072 0.066667,-0.029333 0.136,-0.029333 0.037333,0 0.072,0.00267 0.037333,0 0.074667,0.00533 l -0.064,0.2906667 q -0.026667,-0.00533 -0.053333,-0.008 -0.026667,-0.00267 -0.053333,-0.00267 -0.1173333,0 -0.2053333,0.042667 -0.085333,0.04 -0.1466667,0.11200005 -0.058667,0.072 -0.096,0.16533335 -0.037333,0.0933333 -0.058667,0.19733336 L 2.1973289,0 H 1.8933288 Z" style="font-style:italic" id="path82"/>
        <path d="m 3.9839929,-0.81066676 q 0.00267,-0.024 0.00267,-0.0426667 0,-0.0213333 0,-0.0426667 0,-0.12266669 -0.077333,-0.19999999 -0.077333,-0.08 -0.2133333,-0.08 -0.1706667,0 -0.2720001,0.104 -0.1013333,0.10133332 -0.1466666,0.26133334 z m 0.2213334,0.38400004 q -0.072,0.2426667 -0.2453334,0.35466671 -0.1706667,0.10933335 -0.4186667,0.10933335 -0.1306667,0 -0.2426667,-0.04000001 -0.1093333,-0.04266667 -0.1893334,-0.12000001 -0.08,-0.08 -0.1253333,-0.18933336 -0.045333,-0.11200001 -0.045333,-0.25333336 0,-0.16000002 0.050667,-0.31200004 0.050667,-0.15200006 0.1466667,-0.27200006 0.098667,-0.12 0.24,-0.192 0.1440001,-0.074667 0.3280001,-0.074667 0.184,0 0.2986667,0.061333 0.1146667,0.061333 0.1786667,0.1546667 0.064,0.093333 0.085333,0.20533331 0.024,0.11200002 0.024,0.21333336 0,0.0506667 -0.00533,0.0933333 -0.00533,0.0426667 -0.010667,0.0773333 H 3.2479928 q -0.00533,0.024 -0.00533,0.0453333 0,0.0213333 0,0.0426667 0,0.14400002 0.077333,0.23200003 0.077333,0.088 0.2506667,0.088 0.1226667,0 0.2106667,-0.056 0.088,-0.0586667 0.12,-0.16800002 z" style="font-style:italic" id="path84"/>
        <path d="m 4.6746591,-0.37866671 q 0,0.0506667 0.021333,0.0853333 0.024,0.032 0.058667,0.0533333 0.034667,0.0186667 0.077333,0.0293333 0.042667,0.008 0.085333,0.008 0.112,0 0.1866667,-0.0373333 0.077333,-0.0373333 0.1253333,-0.10133334 0.050667,-0.064 0.077333,-0.14933336 0.029333,-0.088 0.045333,-0.18666668 l -0.00533,-0.005333 q -0.032,0.032 -0.085333,0.0453333 -0.053333,0.0133333 -0.104,0.0186667 -0.064,0.005333 -0.1493334,0.0106667 -0.082667,0.005333 -0.1573333,0.0293333 -0.072,0.0213333 -0.1253334,0.0693333 -0.050667,0.0453333 -0.050667,0.13066668 z m 0.9146668,-0.0213333 q -0.008,0.0373333 -0.018667,0.072 -0.008,0.0346667 -0.008,0.064 0,0.0293333 0.013333,0.0453333 0.013333,0.016 0.050667,0.016 0.026667,0 0.053333,-0.005333 0.026667,-0.008 0.053333,-0.0106667 L 5.6853259,0 q -0.058667,0.01333333 -0.1173334,0.024 -0.058667,0.01333334 -0.12,0.01333334 -0.077333,0 -0.128,-0.04800001 -0.050667,-0.048 -0.056,-0.12800001 -0.090667,0.09066667 -0.2133334,0.13333335 -0.1226667,0.04266667 -0.2506667,0.04266667 -0.085333,0 -0.1626667,-0.02400001 -0.077333,-0.024 -0.1386666,-0.06933334 -0.058667,-0.04533334 -0.093333,-0.11466668 -0.034667,-0.0693333 -0.034667,-0.16000002 0,-0.12800001 0.048,-0.21333335 0.048,-0.088 0.1280001,-0.14400002 0.08,-0.056 0.184,-0.0826667 0.104,-0.0266667 0.2186667,-0.0346667 0.077333,-0.005333 0.152,-0.0106667 0.077333,-0.008 0.152,-0.0133333 0.082667,-0.005333 0.12,-0.0533333 0.04,-0.0506667 0.04,-0.12800003 0,-0.098667 -0.069333,-0.1306667 -0.069333,-0.034667 -0.1626667,-0.034667 -0.1253333,0 -0.2186667,0.045333 -0.093333,0.042667 -0.1253333,0.17066669 H 4.5493257 q 0.024,-0.12799999 0.082667,-0.21333339 0.058667,-0.088 0.144,-0.1413333 0.085333,-0.056 0.192,-0.077333 0.1093334,-0.024 0.2320001,-0.024 0.1866667,0 0.2906667,0.037333 0.1066667,0.034667 0.1546667,0.085333 0.050667,0.050667 0.061333,0.1066667 0.010667,0.053333 0.010667,0.090667 0,0.085333 -0.026667,0.20799999 z" style="font-style:italic" id="path86"/>
        <path d="m 6.3013251,-1.7920002 h 0.296 l -0.085333,0.4133334 h 0.2746667 l -0.048,0.2266667 H 6.4639918 l -0.1413334,0.67466671 q -0.010667,0.0453333 -0.018667,0.0853333 -0.008,0.04 -0.008,0.064 0,0.0453333 0.018667,0.0746667 0.021333,0.0266667 0.090667,0.0266667 0.034667,0 0.074667,0 0.042667,-0.002667 0.088,-0.0133333 L 6.5173251,-0.016 q -0.058667,0.01333333 -0.1253333,0.02133333 -0.066667,0.008 -0.1253334,0.008 -0.082667,0 -0.136,-0.02133333 -0.053333,-0.02133334 -0.085333,-0.05600001 -0.029333,-0.03733334 -0.042667,-0.08266667 -0.010667,-0.048 -0.010667,-0.096 0,-0.04 0.00533,-0.088 0.008,-0.048 0.013333,-0.0666667 L 6.1679918,-1.1520001 H 5.9279917 l 0.048,-0.2266667 h 0.2400001 z" style="font-style:italic" id="path88"/>
        <path d="m 7.1279875,-1.9040002 h 0.3013334 l -0.058667,0.288 H 7.0693208 Z M 7.0186541,-1.3786668 H 7.3226542 L 7.0373208,0 h -0.304 z" style="font-style:italic" id="path90"/>
        <path d="m 7.4986519,-1.3786668 h 0.3146667 l 0.1146667,1.00533342 h 0.00533 L 8.466652,-1.3786668 h 0.32 L 8.0239853,0 H 7.6853186 Z" style="font-style:italic" id="path92"/>
        <path d="m 9.8133141,-0.81066676 q 0.00267,-0.024 0.00267,-0.0426667 0,-0.0213333 0,-0.0426667 0,-0.12266669 -0.077333,-0.19999999 -0.077333,-0.08 -0.2133334,-0.08 -0.1706667,0 -0.272,0.104 -0.1013334,0.10133332 -0.1466667,0.26133334 z m 0.2213329,0.38400004 q -0.072,0.2426667 -0.2453329,0.35466671 -0.1706667,0.10933335 -0.4186668,0.10933335 -0.1306666,0 -0.2426667,-0.04000001 -0.1093333,-0.04266667 -0.1893333,-0.12000001 -0.08,-0.08 -0.1253334,-0.18933336 -0.045333,-0.11200001 -0.045333,-0.25333336 0,-0.16000002 0.050667,-0.31200004 0.050667,-0.15200006 0.1466667,-0.27200006 0.098667,-0.12 0.24,-0.192 0.144,-0.074667 0.328,-0.074667 0.1840001,0 0.2986667,0.061333 0.1146667,0.061333 0.1786663,0.1546667 0.064,0.093333 0.08533,0.20533331 0.024,0.11200002 0.024,0.21333336 0,0.0506667 -0.0053,0.0933333 -0.0053,0.0426667 -0.01067,0.0773333 H 9.077314 q -0.00533,0.024 -0.00533,0.0453333 0,0.0213333 0,0.0426667 0,0.14400002 0.077333,0.23200003 0.077333,0.088 0.2506667,0.088 0.1226667,0 0.2106667,-0.056 0.088,-0.0586667 0.12,-0.16800002 z" style="font-style:italic" id="path94"/>
        <path d="m 12.48798,-1.2693335 q 0,-0.2 -0.112,-0.304 -0.112,-0.104 -0.317334,-0.104 -0.170666,0 -0.298666,0.077333 -0.125334,0.077333 -0.210667,0.2026667 -0.08267,0.1253333 -0.125333,0.2826667 -0.04267,0.15733335 -0.04267,0.31733337 0,0.2666667 0.136,0.41866672 0.136,0.15200002 0.386667,0.15200002 0.128,0 0.216,-0.048 0.088,-0.0506667 0.144,-0.12000001 0.05867,-0.072 0.088,-0.14666669 0.032,-0.0746667 0.04533,-0.12266668 h 0.333334 q -0.04,0.18133336 -0.120001,0.31466671 -0.08,0.13333334 -0.192,0.22133335 Q 12.309313,-0.04 12.17598,0.00266667 q -0.133334,0.04266667 -0.282667,0.04266667 -0.205333,0 -0.362667,-0.06400001 -0.157333,-0.06400001 -0.264,-0.17600002 -0.106666,-0.11200001 -0.162666,-0.26400003 -0.056,-0.15200002 -0.056,-0.32800004 0,-0.29866674 0.088,-0.51733344 0.09067,-0.2213333 0.234666,-0.3626667 0.146667,-0.144 0.328,-0.2133333 0.184,-0.069333 0.370667,-0.069333 0.168,0 0.309333,0.045333 0.141334,0.045333 0.24,0.1306667 0.101334,0.085333 0.154667,0.2133333 0.05333,0.128 0.048,0.2906667 z" style="font-style:italic" id="path96"/>
        <path d="m 13.690641,-1.1760001 q -0.117333,0 -0.205333,0.058667 -0.08533,0.058667 -0.144,0.14933338 -0.05867,0.088 -0.088,0.19733336 -0.02667,0.10933335 -0.02667,0.21333336 0,0.15200002 0.07467,0.25333336 0.07733,0.10133335 0.242667,0.10133335 0.117333,0 0.202666,-0.056 0.088,-0.0586667 0.146667,-0.14666668 0.05867,-0.0906667 0.08533,-0.20000003 0.02933,-0.11200001 0.02933,-0.21600002 0,-0.15200002 -0.07733,-0.25333337 -0.07467,-0.1013333 -0.24,-0.1013333 z m -0.165333,1.21333344 q -0.285333,0 -0.445333,-0.15466669 -0.157334,-0.15733335 -0.157334,-0.44800005 0,-0.17066669 0.056,-0.32266671 0.056,-0.15466669 0.157334,-0.27199999 0.104,-0.1173334 0.248,-0.1866667 0.146666,-0.069333 0.325333,-0.069333 0.285333,0 0.442667,0.152 0.16,0.1493334 0.16,0.4400001 0,0.18133336 -0.05333,0.33866671 -0.05333,0.15733335 -0.157333,0.2746667 -0.101333,0.11466668 -0.248,0.18133335 -0.144,0.06666668 -0.328,0.06666668 z" style="font-style:italic" id="path98"/>
        <path d="m 14.725305,-1.3786668 h 0.285333 l -0.04267,0.2 0.0053,0.00533 q 0.08267,-0.1146667 0.205333,-0.1786667 0.125334,-0.064 0.269334,-0.064 0.208,0 0.304,0.098667 0.09867,0.098667 0.09867,0.2666667 0,0.037333 -0.0027,0.0853333 -0.0027,0.048 -0.01067,0.0853334 L 15.653305,0 h -0.304 l 0.176,-0.85066677 q 0.008,-0.0346667 0.01333,-0.0666667 0.008,-0.032 0.008,-0.0613333 0,-0.016 -0.0027,-0.048 0,-0.034667 -0.01867,-0.066667 -0.01867,-0.034667 -0.064,-0.058667 -0.04267,-0.024 -0.125333,-0.024 -0.09067,0 -0.162667,0.04 -0.06933,0.037333 -0.125333,0.093333 -0.05333,0.0533333 -0.09333,0.13333336 -0.03733,0.0773333 -0.056,0.16266668 L 14.743972,0 h -0.304 z" style="font-style:italic" id="path100"/>
        <path d="m 16.426636,-1.7920002 h 0.296 l -0.08533,0.4133334 h 0.274666 l -0.048,0.2266667 h -0.274666 l -0.141334,0.67466671 q -0.01067,0.0453333 -0.01867,0.0853333 -0.008,0.04 -0.008,0.064 0,0.0453333 0.01867,0.0746667 0.02133,0.0266667 0.09067,0.0266667 0.03467,0 0.07467,0 0.04267,-0.002667 0.088,-0.0133333 L 16.642636,-0.016 q -0.05867,0.01333333 -0.125333,0.02133333 -0.06667,0.008 -0.125334,0.008 -0.08267,0 -0.136,-0.02133333 -0.05333,-0.02133334 -0.08533,-0.05600001 -0.02933,-0.03733334 -0.04267,-0.08266667 -0.01067,-0.048 -0.01067,-0.096 0,-0.04 0.0053,-0.088 0.008,-0.048 0.01333,-0.0666667 l 0.157334,-0.75466672 h -0.24 l 0.048,-0.2266667 h 0.24 z" style="font-style:italic" id="path102"/>
        <path d="m 17.962633,-0.81066676 q 0.0027,-0.024 0.0027,-0.0426667 0,-0.0213333 0,-0.0426667 0,-0.12266669 -0.07733,-0.19999999 -0.07733,-0.08 -0.213333,-0.08 -0.170667,0 -0.272,0.104 -0.101334,0.10133332 -0.146667,0.26133334 z m 0.221333,0.38400004 q -0.072,0.2426667 -0.245333,0.35466671 -0.170667,0.10933335 -0.418667,0.10933335 -0.130667,0 -0.242667,-0.04000001 -0.109333,-0.04266667 -0.189333,-0.12000001 -0.08,-0.08 -0.125333,-0.18933336 -0.04533,-0.11200001 -0.04533,-0.25333336 0,-0.16000002 0.05067,-0.31200004 0.05067,-0.15200006 0.146667,-0.27200006 0.09867,-0.12 0.24,-0.192 0.144,-0.074667 0.328,-0.074667 0.184,0 0.298666,0.061333 0.114667,0.061333 0.178667,0.1546667 0.064,0.093333 0.08533,0.20533331 0.024,0.11200002 0.024,0.21333336 0,0.0506667 -0.0053,0.0933333 -0.0053,0.0426667 -0.01067,0.0773333 h -1.026666 q -0.0053,0.024 -0.0053,0.0453333 0,0.0213333 0,0.0426667 0,0.14400002 0.07733,0.23200003 0.07733,0.088 0.250666,0.088 0.122667,0 0.210667,-0.056 0.088,-0.0586667 0.12,-0.16800002 z" style="font-style:italic" id="path104"/>
        <path d="m 18.626632,-1.3786668 h 0.285333 l -0.04267,0.2 0.0053,0.00533 q 0.08267,-0.1146667 0.205333,-0.1786667 0.125334,-0.064 0.269334,-0.064 0.208,0 0.304,0.098667 0.09867,0.098667 0.09867,0.2666667 0,0.037333 -0.0027,0.0853333 -0.0027,0.048 -0.01067,0.0853334 L 19.554632,0 h -0.304 l 0.176,-0.85066677 q 0.008,-0.0346667 0.01333,-0.0666667 0.008,-0.032 0.008,-0.0613333 0,-0.016 -0.0027,-0.048 0,-0.034667 -0.01867,-0.066667 -0.01867,-0.034667 -0.064,-0.058667 -0.04267,-0.024 -0.125333,-0.024 -0.09067,0 -0.162667,0.04 -0.06933,0.037333 -0.125333,0.093333 -0.05333,0.0533333 -0.09333,0.13333336 -0.03733,0.0773333 -0.056,0.16266668 L 18.645299,0 h -0.304 z" style="font-style:italic" id="path106"/>
        <path d="m 20.327963,-1.7920002 h 0.296 l -0.08533,0.4133334 h 0.274667 l -0.048,0.2266667 H 20.49063 l -0.141334,0.67466671 q -0.01067,0.0453333 -0.01867,0.0853333 -0.008,0.04 -0.008,0.064 0,0.0453333 0.01867,0.0746667 0.02133,0.0266667 0.09067,0.0266667 0.03467,0 0.07467,0 0.04267,-0.002667 0.088,-0.0133333 L 20.543963,-0.016 q -0.05867,0.01333333 -0.125333,0.02133333 -0.06667,0.008 -0.125334,0.008 -0.08267,0 -0.136,-0.02133333 -0.05333,-0.02133334 -0.08533,-0.05600001 -0.02933,-0.03733334 -0.04267,-0.08266667 -0.01067,-0.048 -0.01067,-0.096 0,-0.04 0.0053,-0.088 0.008,-0.048 0.01333,-0.0666667 L 20.19463,-1.1520001 h -0.24 l 0.048,-0.2266667 h 0.24 z" style="font-style:italic" id="path108"/>
        <path d="m 21.938626,-1.9040002 h 0.765334 q 0.149333,0 0.250666,0.032 0.101334,0.029333 0.168,0.08 0.06667,0.048 0.101334,0.112 0.03733,0.061333 0.05333,0.128 0.016,0.064 0.01867,0.1253334 0.0027,0.058667 0.0027,0.104 0,0.00267 -0.0053,0.048 -0.0027,0.045333 -0.024,0.112 -0.01867,0.064 -0.06133,0.1413333 -0.04267,0.0746667 -0.12,0.1413334 -0.07733,0.064 -0.197334,0.10666667 -0.117333,0.0426667 -0.290666,0.0426667 H 22.029293 L 21.877293,0 h -0.333334 z m 0.146667,0.9013334 h 0.504 q 0.112,0 0.184,-0.032 0.07467,-0.034667 0.114667,-0.088 0.04267,-0.053333 0.05867,-0.1173333 0.01867,-0.066667 0.01867,-0.1306667 0,-0.04 -0.01333,-0.085333 -0.01067,-0.045333 -0.04533,-0.085333 -0.032,-0.04 -0.096,-0.064 -0.06133,-0.026667 -0.162666,-0.026667 h -0.432 z" style="font-style:italic" id="path110"/>
        <path d="m 23.565292,-1.3786668 h 0.288 l -0.056,0.2693333 0.0053,0.00533 q 0.032,-0.056 0.07733,-0.112 0.04533,-0.056 0.101334,-0.098667 0.05867,-0.045333 0.125333,-0.072 0.06667,-0.029333 0.136,-0.029333 0.03733,0 0.072,0.00267 0.03733,0 0.07467,0.00533 l -0.064,0.2906667 q -0.02667,-0.00533 -0.05333,-0.008 -0.02667,-0.00267 -0.05333,-0.00267 -0.117333,0 -0.205333,0.042667 -0.08533,0.04 -0.146667,0.11200005 -0.05867,0.072 -0.096,0.16533335 -0.03733,0.0933333 -0.05867,0.19733336 L 23.583958,0 h -0.304 z" style="font-style:italic" id="path112"/>
        <path d="m 25.098622,-1.1760001 q -0.117333,0 -0.205333,0.058667 -0.08533,0.058667 -0.144,0.14933338 -0.05867,0.088 -0.088,0.19733336 -0.02667,0.10933335 -0.02667,0.21333336 0,0.15200002 0.07467,0.25333336 0.07733,0.10133335 0.242667,0.10133335 0.117333,0 0.202666,-0.056 0.088,-0.0586667 0.146667,-0.14666668 0.05867,-0.0906667 0.08533,-0.20000003 0.02933,-0.11200001 0.02933,-0.21600002 0,-0.15200002 -0.07733,-0.25333337 -0.07467,-0.1013333 -0.24,-0.1013333 z m -0.165333,1.21333344 q -0.285333,0 -0.445334,-0.15466669 -0.157333,-0.15733335 -0.157333,-0.44800005 0,-0.17066669 0.056,-0.32266671 0.056,-0.15466669 0.157333,-0.27199999 0.104001,-0.1173334 0.248001,-0.1866667 0.146666,-0.069333 0.325333,-0.069333 0.285333,0 0.442667,0.152 0.16,0.1493334 0.16,0.4400001 0,0.18133336 -0.05333,0.33866671 -0.05333,0.15733335 -0.157333,0.2746667 -0.101333,0.11466668 -0.248,0.18133335 -0.144,0.06666668 -0.328,0.06666668 z" style="font-style:italic" id="path114"/>
        <path d="m 25.970618,-1.3786668 h 0.314667 l 0.114667,1.00533342 h 0.0053 l 0.533333,-1.00533342 h 0.32 L 26.495952,0 h -0.338667 z" style="font-style:italic" id="path116"/>
        <path d="m 27.575946,-1.9040002 h 0.301334 l -0.05867,0.288 H 27.51728 Z m -0.109333,0.5253334 h 0.304 L 27.48528,0 h -0.304 z" style="font-style:italic" id="path118"/>
        <path d="m 29.103946,0 h -0.290667 l 0.04267,-0.18666669 -0.0053,-0.005333 q -0.09067,0.13333335 -0.2,0.18133335 -0.109333,0.04800001 -0.232,0.04800001 -0.05867,0 -0.149333,-0.016 -0.09067,-0.01600001 -0.178667,-0.07200001 -0.08533,-0.05866668 -0.146666,-0.17066669 -0.06133,-0.11200001 -0.06133,-0.3066667 0,-0.16800002 0.05067,-0.32533338 0.05067,-0.16000006 0.146667,-0.28533336 0.096,-0.1253334 0.234666,-0.2 0.138667,-0.077333 0.317334,-0.077333 0.138666,0 0.250666,0.050667 0.112,0.050667 0.165334,0.176 h 0.0053 l 0.152,-0.7146667 h 0.304 z m -0.130667,-0.84533343 q 0,-0.0666667 -0.01867,-0.12800002 -0.016,-0.0613334 -0.05333,-0.10400005 -0.03467,-0.045333 -0.09333,-0.072 -0.05867,-0.026667 -0.138667,-0.026667 -0.128,0 -0.218667,0.058667 -0.09067,0.056 -0.149333,0.14933338 -0.05867,0.0933333 -0.088,0.2106667 -0.02667,0.11466668 -0.02667,0.22933336 0,0.15466668 0.07733,0.24000003 0.08,0.0853333 0.237333,0.0853333 0.117333,0 0.205333,-0.0613333 0.088,-0.0613333 0.146667,-0.15466669 0.06133,-0.096 0.09067,-0.20800002 0.02933,-0.11466668 0.02933,-0.21866669 z" style="font-style:italic" id="path120"/>
        <path d="m 30.557273,-0.81066676 q 0.0027,-0.024 0.0027,-0.0426667 0,-0.0213333 0,-0.0426667 0,-0.12266669 -0.07733,-0.19999999 -0.07733,-0.08 -0.213334,-0.08 -0.170666,0 -0.272,0.104 -0.101333,0.10133332 -0.146666,0.26133334 z m 0.221334,0.38400004 q -0.072,0.2426667 -0.245334,0.35466671 -0.170666,0.10933335 -0.418666,0.10933335 -0.130667,0 -0.242667,-0.04000001 -0.109333,-0.04266667 -0.189333,-0.12000001 -0.08,-0.08 -0.125334,-0.18933336 -0.04533,-0.11200001 -0.04533,-0.25333336 0,-0.16000002 0.05067,-0.31200004 0.05067,-0.15200006 0.146666,-0.27200006 0.09867,-0.12 0.24,-0.192 0.144,-0.074667 0.328,-0.074667 0.184,0 0.298667,0.061333 0.114667,0.061333 0.178667,0.1546667 0.064,0.093333 0.08533,0.20533331 0.024,0.11200002 0.024,0.21333336 0,0.0506667 -0.0053,0.0933333 -0.0053,0.0426667 -0.01067,0.0773333 h -1.026667 q -0.0053,0.024 -0.0053,0.0453333 0,0.0213333 0,0.0426667 0,0.14400002 0.07733,0.23200003 0.07733,0.088 0.250667,0.088 0.122667,0 0.210667,-0.056 0.088,-0.0586667 0.12,-0.16800002 z" style="font-style:italic" id="path122"/>
        <path d="m 31.221273,-1.3786668 h 0.288 l -0.056,0.2693333 0.0053,0.00533 q 0.032,-0.056 0.07733,-0.112 0.04533,-0.056 0.101334,-0.098667 0.05867,-0.045333 0.125333,-0.072 0.06667,-0.029333 0.136,-0.029333 0.03733,0 0.072,0.00267 0.03733,0 0.07467,0.00533 l -0.064,0.2906667 q -0.02667,-0.00533 -0.05333,-0.008 -0.02667,-0.00267 -0.05333,-0.00267 -0.117333,0 -0.205333,0.042667 -0.08533,0.04 -0.146667,0.11200005 -0.05867,0.072 -0.096,0.16533335 -0.03733,0.0933333 -0.05867,0.19733336 L 31.239939,0 h -0.304 z" style="font-style:italic" id="path124"/>
      </g>
    </g>
  </g>
</svg>
