<svg xmlns="http://www.w3.org/2000/svg" xmlns:svg="http://www.w3.org/2000/svg" viewBox="-0.35 -0.35 140.7 40.7" width="804px" height="232.571429px" version="1.1" id="svg18">
  <defs id="defs22"/>
  <g id="g16">
    <path d="m 84,22.4272 h 31.8839 a 4,4 90 0 0 4,-4 v -4.8544 a 4,4 90 0 0 -4,-4 H 24.1161 a 4,4 90 0 0 -4,4 v 4.8544 a 4,4 90 0 0 4,4 H 70 a 8,8 90 0 1 8,8" fill="none" stroke="#00aa00" stroke-width="0.2" id="path2"/>
    <g font-family="'HelveticaNeueLT Com 65 Md'" font-size="4px" fill="#000000" transform="translate(0,12.5728)" id="g8">
      <g aria-label="Shay operates with integrity at all times ..." transform="translate(31.54005,2.856)" id="text4">
        <path d="m 0.632,-0.952 q 0,0.164 0.056,0.28 0.056,0.116 0.156,0.192 0.1,0.072 0.228,0.108 0.132,0.032 0.284,0.032 0.164,0 0.28,-0.036 0.116,-0.04 0.188,-0.1 0.072,-0.06 0.104,-0.136 0.032,-0.08 0.032,-0.16 0,-0.164 -0.076,-0.24 Q 1.812,-1.092 1.724,-1.124 1.572,-1.18 1.368,-1.228 1.168,-1.28 0.872,-1.36 0.688,-1.408 0.564,-1.484 0.444,-1.564 0.372,-1.66 0.3,-1.756 0.268,-1.864 0.24,-1.972 0.24,-2.084 q 0,-0.216 0.088,-0.372 0.092,-0.16 0.24,-0.264 0.148,-0.104 0.336,-0.152 0.188,-0.052 0.38,-0.052 0.224,0 0.42,0.06 0.2,0.056 0.348,0.172 0.152,0.116 0.24,0.288 0.088,0.168 0.088,0.392 H 1.88 Q 1.86,-2.288 1.692,-2.4 1.524,-2.516 1.264,-2.516 q -0.088,0 -0.18,0.02 -0.092,0.016 -0.168,0.06 -0.076,0.04 -0.128,0.112 -0.048,0.072 -0.048,0.18 0,0.152 0.092,0.24 0.096,0.084 0.248,0.128 0.016,0.004 0.124,0.036 0.112,0.028 0.248,0.064 0.136,0.036 0.264,0.072 0.132,0.032 0.188,0.048 0.14,0.044 0.244,0.12 0.104,0.076 0.172,0.176 0.072,0.096 0.104,0.208 0.036,0.112 0.036,0.224 0,0.24 -0.1,0.412 Q 2.264,-0.248 2.104,-0.14 1.944,-0.032 1.74,0.016 1.536,0.068 1.324,0.068 1.08,0.068 0.864,0.008 0.648,-0.052 0.488,-0.176 0.328,-0.3 0.232,-0.492 0.136,-0.688 0.132,-0.952 Z" id="path24"/>
        <path d="m 2.8319952,-2.856 h 0.456 v 1.06 h 0.008 q 0.084,-0.14 0.248,-0.232 0.168,-0.096 0.372,-0.096 0.34,0 0.536,0.176 0.196,0.176 0.196,0.528 V 0 h -0.456 v -1.3 q -0.008,-0.244 -0.104,-0.352 -0.096,-0.112 -0.3,-0.112 -0.116,0 -0.208,0.044 -0.092,0.04 -0.156,0.116 -0.064,0.072 -0.1,0.172 -0.036,0.1 -0.036,0.212 V 0 h -0.456 z" id="path26"/>
        <path d="m 6.8599929,-0.46 q 0,0.084 0.02,0.12 0.024,0.036 0.088,0.036 0.02,0 0.048,0 0.028,0 0.064,-0.008 v 0.316 q -0.024,0.008 -0.064,0.016 -0.036,0.012 -0.076,0.02 -0.04,0.008 -0.08,0.012 -0.04,0.004 -0.068,0.004 -0.14,0 -0.232,-0.056 -0.092,-0.056 -0.12,-0.196 -0.136,0.132 -0.336,0.192 -0.196,0.06 -0.38,0.06 -0.14,0 -0.268,-0.04 -0.128,-0.036 -0.228,-0.108 -0.096,-0.076 -0.156,-0.188 -0.056,-0.116 -0.056,-0.268 0,-0.192 0.068,-0.312 0.072,-0.12 0.184,-0.188 0.116,-0.068 0.256,-0.096 0.144,-0.032 0.288,-0.048 0.124,-0.024 0.236,-0.032 0.112,-0.012 0.196,-0.036 0.088,-0.024 0.136,-0.072 0.052,-0.052 0.052,-0.152 0,-0.088 -0.044,-0.144 -0.04,-0.056 -0.104,-0.084 -0.06,-0.032 -0.136,-0.04 -0.076,-0.012 -0.144,-0.012 -0.192,0 -0.316,0.08 -0.124,0.08 -0.14,0.248 h -0.456 q 0.012,-0.2 0.096,-0.332 0.084,-0.132 0.212,-0.212 0.132,-0.08 0.296,-0.112 0.164,-0.032 0.336,-0.032 0.152,0 0.3,0.032 0.148,0.032 0.264,0.104 0.12,0.072 0.192,0.188 0.072,0.112 0.072,0.276 z m -0.456,-0.576 q -0.104,0.068 -0.256,0.084 -0.152,0.012 -0.304,0.04 -0.072,0.012 -0.14,0.036 -0.068,0.02 -0.12,0.06 -0.052,0.036 -0.084,0.1 -0.028,0.06 -0.028,0.148 0,0.076 0.044,0.128 0.044,0.052 0.104,0.084 0.064,0.028 0.136,0.04 0.076,0.012 0.136,0.012 0.076,0 0.164,-0.02 0.088,-0.02 0.164,-0.068 0.08,-0.048 0.132,-0.12 0.052,-0.076 0.052,-0.184 z" id="path28"/>
        <path d="m 7.1239919,-2.068 h 0.5 l 0.54,1.544 h 0.008 l 0.524,-1.544 h 0.476 l -0.804,2.18 q -0.056,0.14 -0.112,0.268 -0.052,0.128 -0.132,0.224 -0.076,0.1 -0.192,0.156 -0.116,0.06 -0.296,0.06 -0.16,0 -0.316,-0.024 V 0.412 q 0.056,0.008 0.108,0.016 0.052,0.012 0.108,0.012 0.08,0 0.132,-0.02 0.052,-0.02 0.084,-0.06 0.036,-0.036 0.06,-0.088 0.024,-0.052 0.044,-0.12 l 0.052,-0.16 z" id="path30"/>
        <path d="m 11.487988,0.056 q -0.248,0 -0.444,-0.08 -0.192,-0.084 -0.328,-0.228 -0.132,-0.144 -0.204,-0.344 -0.068,-0.2 -0.068,-0.44 0,-0.236 0.068,-0.436 0.072,-0.2 0.204,-0.344 0.136,-0.144 0.328,-0.224 0.196,-0.084 0.444,-0.084 0.248,0 0.44,0.084 0.196,0.08 0.328,0.224 0.136,0.144 0.204,0.344 0.072,0.2 0.072,0.436 0,0.24 -0.072,0.44 -0.068,0.2 -0.204,0.344 -0.132,0.144 -0.328,0.228 -0.192,0.08 -0.44,0.08 z m 0,-0.36 q 0.152,0 0.264,-0.064 0.112,-0.064 0.184,-0.168 0.072,-0.104 0.104,-0.232 0.036,-0.132 0.036,-0.268 0,-0.132 -0.036,-0.264 -0.032,-0.132 -0.104,-0.232 -0.072,-0.104 -0.184,-0.168 -0.112,-0.064 -0.264,-0.064 -0.152,0 -0.264,0.064 -0.112,0.064 -0.184,0.168 -0.072,0.1 -0.108,0.232 -0.032,0.132 -0.032,0.264 0,0.136 0.032,0.268 0.036,0.128 0.108,0.232 0.072,0.104 0.184,0.168 0.112,0.064 0.264,0.064 z" id="path32"/>
        <path d="m 12.923982,-2.068 h 0.432 v 0.28 h 0.008 q 0.096,-0.18 0.268,-0.256 0.172,-0.08 0.372,-0.08 0.244,0 0.424,0.088 0.184,0.084 0.304,0.236 0.12,0.148 0.18,0.348 0.06,0.2 0.06,0.428 0,0.208 -0.056,0.404 -0.052,0.196 -0.164,0.348 -0.108,0.148 -0.276,0.24 -0.168,0.088 -0.396,0.088 -0.1,0 -0.2,-0.02 -0.1,-0.016 -0.192,-0.056 -0.092,-0.04 -0.172,-0.1 -0.076,-0.064 -0.128,-0.148 h -0.008 v 1.032 h -0.456 z m 1.592,1.036 q 0,-0.14 -0.036,-0.272 -0.036,-0.132 -0.108,-0.232 -0.072,-0.104 -0.18,-0.164 -0.108,-0.064 -0.248,-0.064 -0.288,0 -0.436,0.2 -0.144,0.2 -0.144,0.532 0,0.156 0.036,0.292 0.04,0.132 0.116,0.228 0.076,0.096 0.18,0.152 0.108,0.056 0.248,0.056 0.156,0 0.264,-0.064 0.108,-0.064 0.176,-0.164 0.072,-0.104 0.1,-0.232 0.032,-0.132 0.032,-0.268 z" id="path34"/>
        <path d="m 16.775974,-1.216 q -0.008,-0.108 -0.048,-0.208 -0.036,-0.1 -0.104,-0.172 -0.064,-0.076 -0.16,-0.12 -0.092,-0.048 -0.208,-0.048 -0.12,0 -0.22,0.044 -0.096,0.04 -0.168,0.116 -0.068,0.072 -0.112,0.172 -0.04,0.1 -0.044,0.216 z m -1.064,0.3 q 0,0.12 0.032,0.232 0.036,0.112 0.104,0.196 0.068,0.084 0.172,0.136 0.104,0.048 0.248,0.048 0.2,0 0.32,-0.084 0.124,-0.088 0.184,-0.26 h 0.432 q -0.036,0.168 -0.124,0.3 -0.088,0.132 -0.212,0.224 -0.124,0.088 -0.28,0.132 -0.152,0.048 -0.32,0.048 -0.244,0 -0.432,-0.08 -0.188,-0.08 -0.32,-0.224 -0.128,-0.144 -0.196,-0.344 -0.064,-0.2 -0.064,-0.44 0,-0.22 0.068,-0.416 0.072,-0.2 0.2,-0.348 0.132,-0.152 0.316,-0.24 0.184,-0.088 0.416,-0.088 0.244,0 0.436,0.104 0.196,0.1 0.324,0.268 0.128,0.168 0.184,0.388 0.06,0.216 0.032,0.448 z" id="path36"/>
        <path d="m 17.579973,-2.068 h 0.428 v 0.4 h 0.008 q 0.02,-0.084 0.076,-0.164 0.06,-0.08 0.14,-0.144 0.084,-0.068 0.184,-0.108 0.1,-0.04 0.204,-0.04 0.08,0 0.108,0.004 0.032,0.004 0.064,0.008 v 0.44 q -0.048,-0.008 -0.1,-0.012 -0.048,-0.008 -0.096,-0.008 -0.116,0 -0.22,0.048 -0.1,0.044 -0.176,0.136 -0.076,0.088 -0.12,0.22 -0.044,0.132 -0.044,0.304 V 0 h -0.456 z" id="path38"/>
        <path d="m 20.719971,-0.46 q 0,0.084 0.02,0.12 0.024,0.036 0.088,0.036 0.02,0 0.048,0 0.028,0 0.064,-0.008 v 0.316 q -0.024,0.008 -0.064,0.016 -0.036,0.012 -0.076,0.02 -0.04,0.008 -0.08,0.012 -0.04,0.004 -0.068,0.004 -0.14,0 -0.232,-0.056 -0.092,-0.056 -0.12,-0.196 -0.136,0.132 -0.336,0.192 -0.196,0.06 -0.38,0.06 -0.14,0 -0.268,-0.04 -0.128,-0.036 -0.228,-0.108 -0.096,-0.076 -0.156,-0.188 -0.056,-0.116 -0.056,-0.268 0,-0.192 0.068,-0.312 0.072,-0.12 0.184,-0.188 0.116,-0.068 0.256,-0.096 0.144,-0.032 0.288,-0.048 0.124,-0.024 0.236,-0.032 0.112,-0.012 0.196,-0.036 0.088,-0.024 0.136,-0.072 0.052,-0.052 0.052,-0.152 0,-0.088 -0.044,-0.144 -0.04,-0.056 -0.104,-0.084 -0.06,-0.032 -0.136,-0.04 -0.076,-0.012 -0.144,-0.012 -0.192,0 -0.316,0.08 -0.124,0.08 -0.14,0.248 h -0.456 q 0.012,-0.2 0.096,-0.332 0.084,-0.132 0.212,-0.212 0.132,-0.08 0.296,-0.112 0.164,-0.032 0.336,-0.032 0.152,0 0.3,0.032 0.148,0.032 0.264,0.104 0.12,0.072 0.192,0.188 0.072,0.112 0.072,0.276 z m -0.456,-0.576 q -0.104,0.068 -0.256,0.084 -0.152,0.012 -0.304,0.04 -0.072,0.012 -0.14,0.036 -0.068,0.02 -0.12,0.06 -0.052,0.036 -0.084,0.1 -0.028,0.06 -0.028,0.148 0,0.076 0.044,0.128 0.044,0.052 0.104,0.084 0.064,0.028 0.136,0.04 0.076,0.012 0.136,0.012 0.076,0 0.164,-0.02 0.088,-0.02 0.164,-0.068 0.08,-0.048 0.132,-0.12 0.052,-0.076 0.052,-0.184 z" id="path40"/>
        <path d="m 21.00397,-2.068 h 0.344 v -0.62 h 0.456 v 0.62 h 0.412 v 0.34 h -0.412 v 1.104 q 0,0.072 0.004,0.124 0.008,0.052 0.028,0.088 0.024,0.036 0.068,0.056 0.044,0.016 0.12,0.016 0.048,0 0.096,0 0.048,-0.004 0.096,-0.016 v 0.352 q -0.076,0.008 -0.148,0.016 -0.072,0.008 -0.148,0.008 -0.18,0 -0.292,-0.032 -0.108,-0.036 -0.172,-0.1 -0.06,-0.068 -0.084,-0.168 -0.02,-0.1 -0.024,-0.228 v -1.22 h -0.344 z" id="path42"/>
        <path d="m 23.963963,-1.216 q -0.008,-0.108 -0.048,-0.208 -0.036,-0.1 -0.104,-0.172 -0.064,-0.076 -0.16,-0.12 -0.092,-0.048 -0.208,-0.048 -0.12,0 -0.22,0.044 -0.096,0.04 -0.168,0.116 -0.068,0.072 -0.112,0.172 -0.04,0.1 -0.044,0.216 z m -1.064,0.3 q 0,0.12 0.032,0.232 0.036,0.112 0.104,0.196 0.068,0.084 0.172,0.136 0.104,0.048 0.248,0.048 0.2,0 0.32,-0.084 0.124,-0.088 0.184,-0.26 h 0.432 q -0.036,0.168 -0.124,0.3 -0.088,0.132 -0.212,0.224 -0.124,0.088 -0.28,0.132 -0.152,0.048 -0.32,0.048 -0.244,0 -0.432,-0.08 -0.188,-0.08 -0.32,-0.224 -0.128,-0.144 -0.196,-0.344 -0.064,-0.2 -0.064,-0.44 0,-0.22 0.068,-0.416 0.072,-0.2 0.2,-0.348 0.132,-0.152 0.316,-0.24 0.184,-0.088 0.416,-0.088 0.244,0 0.436,0.104 0.196,0.1 0.324,0.268 0.128,0.168 0.184,0.388 0.06,0.216 0.032,0.448 z" id="path44"/>
        <path d="m 25.111962,-0.664 q 0.02,0.2 0.152,0.28 0.132,0.08 0.316,0.08 0.064,0 0.144,-0.008 0.084,-0.012 0.156,-0.04 0.072,-0.028 0.116,-0.08 0.048,-0.056 0.044,-0.144 -0.004,-0.088 -0.064,-0.144 -0.06,-0.056 -0.156,-0.088 -0.092,-0.036 -0.212,-0.06 -0.12,-0.024 -0.244,-0.052 -0.128,-0.028 -0.248,-0.068 -0.116,-0.04 -0.212,-0.108 -0.092,-0.068 -0.148,-0.172 -0.056,-0.108 -0.056,-0.264 0,-0.168 0.08,-0.28 0.084,-0.116 0.208,-0.184 0.128,-0.072 0.28,-0.1 0.156,-0.028 0.296,-0.028 0.16,0 0.304,0.036 0.148,0.032 0.264,0.108 0.12,0.076 0.196,0.2 0.08,0.12 0.1,0.292 h -0.476 q -0.032,-0.164 -0.152,-0.22 -0.116,-0.056 -0.268,-0.056 -0.048,0 -0.116,0.008 -0.064,0.008 -0.124,0.032 -0.056,0.02 -0.096,0.064 -0.04,0.04 -0.04,0.108 0,0.084 0.056,0.136 0.06,0.052 0.152,0.088 0.096,0.032 0.216,0.056 0.12,0.024 0.248,0.052 0.124,0.028 0.244,0.068 0.12,0.04 0.212,0.108 0.096,0.068 0.152,0.172 0.06,0.104 0.06,0.256 0,0.184 -0.084,0.312 -0.084,0.128 -0.22,0.208 -0.132,0.08 -0.296,0.116 -0.164,0.036 -0.324,0.036 -0.196,0 -0.364,-0.044 -0.164,-0.044 -0.288,-0.132 -0.12,-0.092 -0.192,-0.224 -0.068,-0.136 -0.072,-0.32 z" id="path46"/>
        <path d="m 27.767958,-2.068 h 0.484 l 0.404,1.544 h 0.008 l 0.388,-1.544 h 0.46 l 0.372,1.544 h 0.008 l 0.42,-1.544 h 0.464 L 30.127958,0 h -0.468 l -0.384,-1.536 h -0.008 l -0.38,1.536 h -0.48 z" id="path48"/>
        <path d="m 31.079957,-2.856 h 0.456 v 0.432 h -0.456 z m 0,0.788 h 0.456 V 0 h -0.456 z" id="path50"/>
        <path d="m 31.823954,-2.068 h 0.344 v -0.62 h 0.456 v 0.62 h 0.412 v 0.34 h -0.412 v 1.104 q 0,0.072 0.004,0.124 0.008,0.052 0.028,0.088 0.024,0.036 0.068,0.056 0.044,0.016 0.12,0.016 0.048,0 0.096,0 0.048,-0.004 0.096,-0.016 v 0.352 q -0.076,0.008 -0.148,0.016 -0.072,0.008 -0.148,0.008 -0.18,0 -0.292,-0.032 -0.108,-0.036 -0.172,-0.1 -0.06,-0.068 -0.084,-0.168 -0.02,-0.1 -0.024,-0.228 v -1.22 h -0.344 z" id="path52"/>
        <path d="m 33.363947,-2.856 h 0.456 v 1.06 h 0.008 q 0.084,-0.14 0.248,-0.232 0.168,-0.096 0.372,-0.096 0.34,0 0.536,0.176 0.196,0.176 0.196,0.528 V 0 h -0.456 v -1.3 q -0.008,-0.244 -0.104,-0.352 -0.096,-0.112 -0.3,-0.112 -0.116,0 -0.208,0.044 -0.092,0.04 -0.156,0.116 -0.064,0.072 -0.1,0.172 -0.036,0.1 -0.036,0.212 V 0 h -0.456 z" id="path54"/>
        <path d="m 36.783944,-2.856 h 0.456 v 0.432 h -0.456 z m 0,0.788 h 0.456 V 0 h -0.456 z" id="path56"/>
        <path d="m 37.735941,-2.068 h 0.432 v 0.304 l 0.008,0.008 q 0.104,-0.172 0.272,-0.268 0.168,-0.1 0.372,-0.1 0.34,0 0.536,0.176 0.196,0.176 0.196,0.528 V 0 h -0.456 v -1.3 q -0.008,-0.244 -0.104,-0.352 -0.096,-0.112 -0.3,-0.112 -0.116,0 -0.208,0.044 -0.092,0.04 -0.156,0.116 -0.064,0.072 -0.1,0.172 -0.036,0.1 -0.036,0.212 V 0 h -0.456 z" id="path58"/>
        <path d="m 39.823939,-2.068 h 0.344 v -0.62 h 0.456 v 0.62 h 0.412 v 0.34 h -0.412 v 1.104 q 0,0.072 0.004,0.124 0.008,0.052 0.028,0.088 0.024,0.036 0.068,0.056 0.044,0.016 0.12,0.016 0.048,0 0.096,0 0.048,-0.004 0.096,-0.016 v 0.352 q -0.076,0.008 -0.148,0.016 -0.072,0.008 -0.148,0.008 -0.18,0 -0.292,-0.032 -0.108,-0.036 -0.172,-0.1 -0.06,-0.068 -0.084,-0.168 -0.02,-0.1 -0.024,-0.228 v -1.22 h -0.344 z" id="path60"/>
        <path d="m 42.783932,-1.216 q -0.008,-0.108 -0.048,-0.208 -0.036,-0.1 -0.104,-0.172 -0.064,-0.076 -0.16,-0.12 -0.092,-0.048 -0.208,-0.048 -0.12,0 -0.22,0.044 -0.096,0.04 -0.168,0.116 -0.068,0.072 -0.112,0.172 -0.04,0.1 -0.044,0.216 z m -1.064,0.3 q 0,0.12 0.032,0.232 0.036,0.112 0.104,0.196 0.068,0.084 0.172,0.136 0.104,0.048 0.248,0.048 0.2,0 0.32,-0.084 0.124,-0.088 0.184,-0.26 h 0.432 q -0.036,0.168 -0.124,0.3 -0.088,0.132 -0.212,0.224 -0.124,0.088 -0.28,0.132 -0.152,0.048 -0.32,0.048 -0.244,0 -0.432,-0.08 -0.188,-0.08 -0.32,-0.224 -0.128,-0.144 -0.196,-0.344 -0.064,-0.2 -0.064,-0.44 0,-0.22 0.068,-0.416 0.072,-0.2 0.2,-0.348 0.132,-0.152 0.316,-0.24 0.184,-0.088 0.416,-0.088 0.244,0 0.436,0.104 0.196,0.1 0.324,0.268 0.128,0.168 0.184,0.388 0.06,0.216 0.032,0.448 z" id="path62"/>
        <path d="m 45.499931,-0.108 q 0,0.468 -0.264,0.696 -0.26,0.232 -0.752,0.232 -0.156,0 -0.316,-0.032 -0.156,-0.032 -0.288,-0.108 -0.128,-0.076 -0.216,-0.2 -0.088,-0.124 -0.104,-0.304 h 0.456 q 0.02,0.096 0.068,0.156 0.048,0.06 0.112,0.092 0.068,0.036 0.148,0.044 0.08,0.012 0.168,0.012 0.276,0 0.404,-0.136 0.128,-0.136 0.128,-0.392 v -0.316 h -0.008 q -0.096,0.172 -0.264,0.268 -0.164,0.096 -0.356,0.096 -0.248,0 -0.424,-0.084 -0.172,-0.088 -0.288,-0.236 -0.112,-0.152 -0.164,-0.348 -0.052,-0.196 -0.052,-0.42 0,-0.208 0.064,-0.396 0.064,-0.188 0.184,-0.328 0.12,-0.144 0.292,-0.228 0.176,-0.084 0.396,-0.084 0.196,0 0.36,0.084 0.164,0.08 0.252,0.256 h 0.008 v -0.284 h 0.456 z m -1.012,-0.252 q 0.152,0 0.256,-0.06 0.108,-0.064 0.172,-0.164 0.068,-0.104 0.096,-0.232 0.032,-0.132 0.032,-0.264 0,-0.132 -0.032,-0.256 -0.032,-0.124 -0.1,-0.22 -0.064,-0.096 -0.172,-0.152 -0.104,-0.056 -0.252,-0.056 -0.152,0 -0.256,0.064 -0.104,0.064 -0.168,0.168 -0.064,0.1 -0.092,0.232 -0.028,0.128 -0.028,0.256 0,0.128 0.032,0.252 0.032,0.12 0.096,0.216 0.068,0.096 0.168,0.156 0.104,0.06 0.248,0.06 z" id="path64"/>
        <path d="m 45.959925,-2.068 h 0.428 v 0.4 h 0.008 q 0.02,-0.084 0.076,-0.164 0.06,-0.08 0.14,-0.144 0.084,-0.068 0.184,-0.108 0.1,-0.04 0.204,-0.04 0.08,0 0.108,0.004 0.032,0.004 0.064,0.008 v 0.44 q -0.048,-0.008 -0.1,-0.012 -0.048,-0.008 -0.096,-0.008 -0.116,0 -0.22,0.048 -0.1,0.044 -0.176,0.136 -0.076,0.088 -0.12,0.22 -0.044,0.132 -0.044,0.304 V 0 h -0.456 z" id="path66"/>
        <path d="m 47.379922,-2.856 h 0.456 v 0.432 h -0.456 z m 0,0.788 h 0.456 V 0 h -0.456 z" id="path68"/>
        <path d="m 48.123919,-2.068 h 0.344 v -0.62 h 0.456 v 0.62 h 0.412 v 0.34 h -0.412 v 1.104 q 0,0.072 0.004,0.124 0.008,0.052 0.028,0.088 0.024,0.036 0.068,0.056 0.044,0.016 0.12,0.016 0.048,0 0.096,0 0.048,-0.004 0.096,-0.016 v 0.352 q -0.076,0.008 -0.148,0.016 -0.072,0.008 -0.148,0.008 -0.18,0 -0.292,-0.032 -0.108,-0.036 -0.172,-0.1 -0.06,-0.068 -0.084,-0.168 -0.02,-0.1 -0.024,-0.228 v -1.22 h -0.344 z" id="path70"/>
        <path d="m 49.435912,-2.068 h 0.5 l 0.54,1.544 h 0.008 l 0.524,-1.544 h 0.476 l -0.804,2.18 q -0.056,0.14 -0.112,0.268 -0.052,0.128 -0.132,0.224 -0.076,0.1 -0.192,0.156 -0.116,0.06 -0.296,0.06 -0.16,0 -0.316,-0.024 V 0.412 q 0.056,0.008 0.108,0.016 0.052,0.012 0.108,0.012 0.08,0 0.132,-0.02 0.052,-0.02 0.084,-0.06 0.036,-0.036 0.06,-0.088 0.024,-0.052 0.044,-0.12 l 0.052,-0.16 z" id="path72"/>
        <path d="m 54.583908,-0.46 q 0,0.084 0.02,0.12 0.024,0.036 0.088,0.036 0.02,0 0.048,0 0.028,0 0.064,-0.008 v 0.316 q -0.024,0.008 -0.064,0.016 -0.036,0.012 -0.076,0.02 -0.04,0.008 -0.08,0.012 -0.04,0.004 -0.068,0.004 -0.14,0 -0.232,-0.056 -0.092,-0.056 -0.12,-0.196 -0.136,0.132 -0.336,0.192 -0.196,0.06 -0.38,0.06 -0.14,0 -0.268,-0.04 -0.128,-0.036 -0.228,-0.108 -0.096,-0.076 -0.156,-0.188 -0.056,-0.116 -0.056,-0.268 0,-0.192 0.068,-0.312 0.072,-0.12 0.184,-0.188 0.116,-0.068 0.256,-0.096 0.144,-0.032 0.288,-0.048 0.124,-0.024 0.236,-0.032 0.112,-0.012 0.196,-0.036 0.088,-0.024 0.136,-0.072 0.052,-0.052 0.052,-0.152 0,-0.088 -0.044,-0.144 -0.04,-0.056 -0.104,-0.084 -0.06,-0.032 -0.136,-0.04 -0.076,-0.012 -0.144,-0.012 -0.192,0 -0.316,0.08 -0.124,0.08 -0.14,0.248 h -0.456 q 0.012,-0.2 0.096,-0.332 0.084,-0.132 0.212,-0.212 0.132,-0.08 0.296,-0.112 0.164,-0.032 0.336,-0.032 0.152,0 0.3,0.032 0.148,0.032 0.264,0.104 0.12,0.072 0.192,0.188 0.072,0.112 0.072,0.276 z m -0.456,-0.576 q -0.104,0.068 -0.256,0.084 -0.152,0.012 -0.304,0.04 -0.072,0.012 -0.14,0.036 -0.068,0.02 -0.12,0.06 -0.052,0.036 -0.084,0.1 -0.028,0.06 -0.028,0.148 0,0.076 0.044,0.128 0.044,0.052 0.104,0.084 0.064,0.028 0.136,0.04 0.076,0.012 0.136,0.012 0.076,0 0.164,-0.02 0.088,-0.02 0.164,-0.068 0.08,-0.048 0.132,-0.12 0.052,-0.076 0.052,-0.184 z" id="path74"/>
        <path d="m 54.867907,-2.068 h 0.344 v -0.62 h 0.456 v 0.62 h 0.412 v 0.34 h -0.412 v 1.104 q 0,0.072 0.004,0.124 0.008,0.052 0.028,0.088 0.024,0.036 0.068,0.056 0.044,0.016 0.12,0.016 0.048,0 0.096,0 0.048,-0.004 0.096,-0.016 v 0.352 q -0.076,0.008 -0.148,0.016 -0.072,0.008 -0.148,0.008 -0.18,0 -0.292,-0.032 -0.108,-0.036 -0.172,-0.1 -0.06,-0.068 -0.084,-0.168 -0.02,-0.1 -0.024,-0.228 v -1.22 h -0.344 z" id="path76"/>
        <path d="m 59.2519,-0.46 q 0,0.084 0.02,0.12 0.024,0.036 0.088,0.036 0.02,0 0.048,0 0.028,0 0.064,-0.008 v 0.316 q -0.024,0.008 -0.064,0.016 -0.036,0.012 -0.076,0.02 -0.04,0.008 -0.08,0.012 -0.04,0.004 -0.068,0.004 -0.14,0 -0.232,-0.056 -0.092,-0.056 -0.12,-0.196 -0.136,0.132 -0.336,0.192 -0.196,0.06 -0.38,0.06 -0.14,0 -0.268,-0.04 -0.128,-0.036 -0.228,-0.108 -0.096,-0.076 -0.156,-0.188 -0.056,-0.116 -0.056,-0.268 0,-0.192 0.068,-0.312 0.072,-0.12 0.184,-0.188 0.116,-0.068 0.256,-0.096 0.144,-0.032 0.288,-0.048 0.124,-0.024 0.236,-0.032 0.112,-0.012 0.196,-0.036 0.088,-0.024 0.136,-0.072 0.052,-0.052 0.052,-0.152 0,-0.088 -0.044,-0.144 -0.04,-0.056 -0.104,-0.084 -0.06,-0.032 -0.136,-0.04 -0.076,-0.012 -0.144,-0.012 -0.192,0 -0.316,0.08 -0.124,0.08 -0.14,0.248 h -0.456 q 0.012,-0.2 0.096,-0.332 0.084,-0.132 0.212,-0.212 0.132,-0.08 0.296,-0.112 0.164,-0.032 0.336,-0.032 0.152,0 0.3,0.032 0.148,0.032 0.264,0.104 0.12,0.072 0.192,0.188 0.072,0.112 0.072,0.276 z m -0.456,-0.576 q -0.104,0.068 -0.256,0.084 -0.152,0.012 -0.304,0.04 -0.072,0.012 -0.14,0.036 -0.068,0.02 -0.12,0.06 -0.052,0.036 -0.084,0.1 -0.028,0.06 -0.028,0.148 0,0.076 0.044,0.128 0.044,0.052 0.104,0.084 0.064,0.028 0.136,0.04 0.076,0.012 0.136,0.012 0.076,0 0.164,-0.02 0.088,-0.02 0.164,-0.068 0.08,-0.048 0.132,-0.12 0.052,-0.076 0.052,-0.184 z" id="path78"/>
        <path d="m 59.755899,-2.856 h 0.456 V 0 h -0.456 z" id="path80"/>
        <path d="m 60.719896,-2.856 h 0.456 V 0 h -0.456 z" id="path82"/>
        <path d="m 62.575892,-2.068 h 0.344 v -0.62 h 0.456 v 0.62 h 0.412 v 0.34 h -0.412 v 1.104 q 0,0.072 0.004,0.124 0.008,0.052 0.028,0.088 0.024,0.036 0.068,0.056 0.044,0.016 0.12,0.016 0.048,0 0.096,0 0.048,-0.004 0.096,-0.016 v 0.352 q -0.076,0.008 -0.148,0.016 -0.072,0.008 -0.148,0.008 -0.18,0 -0.292,-0.032 -0.108,-0.036 -0.172,-0.1 -0.06,-0.068 -0.084,-0.168 -0.02,-0.1 -0.024,-0.228 v -1.22 h -0.344 z" id="path84"/>
        <path d="m 64.127885,-2.856 h 0.456 v 0.432 h -0.456 z m 0,0.788 h 0.456 V 0 h -0.456 z" id="path86"/>
        <path d="m 65.079882,-2.068 h 0.432 v 0.288 h 0.012 q 0.052,-0.076 0.112,-0.14 0.06,-0.064 0.132,-0.108 0.076,-0.044 0.172,-0.068 0.096,-0.028 0.22,-0.028 0.188,0 0.348,0.084 0.164,0.084 0.232,0.26 0.116,-0.16 0.268,-0.252 0.152,-0.092 0.38,-0.092 0.328,0 0.508,0.16 0.184,0.16 0.184,0.536 V 0 h -0.456 v -1.208 q 0,-0.124 -0.008,-0.224 -0.008,-0.104 -0.048,-0.176 -0.036,-0.076 -0.112,-0.116 -0.076,-0.04 -0.208,-0.04 -0.232,0 -0.336,0.144 -0.104,0.144 -0.104,0.408 V 0 h -0.456 v -1.328 q 0,-0.216 -0.08,-0.324 -0.076,-0.112 -0.284,-0.112 -0.088,0 -0.172,0.036 -0.08,0.036 -0.144,0.104 -0.06,0.068 -0.1,0.168 -0.036,0.1 -0.036,0.228 V 0 h -0.456 z" id="path88"/>
        <path d="m 69.979878,-1.216 q -0.008,-0.108 -0.048,-0.208 -0.036,-0.1 -0.104,-0.172 -0.064,-0.076 -0.16,-0.12 -0.092,-0.048 -0.208,-0.048 -0.12,0 -0.22,0.044 -0.096,0.04 -0.168,0.116 -0.068,0.072 -0.112,0.172 -0.04,0.1 -0.044,0.216 z m -1.064,0.3 q 0,0.12 0.032,0.232 0.036,0.112 0.104,0.196 0.068,0.084 0.172,0.136 0.104,0.048 0.248,0.048 0.2,0 0.32,-0.084 0.124,-0.088 0.184,-0.26 h 0.432 q -0.036,0.168 -0.124,0.3 -0.088,0.132 -0.212,0.224 -0.124,0.088 -0.28,0.132 -0.152,0.048 -0.32,0.048 -0.244,0 -0.432,-0.08 -0.188,-0.08 -0.32,-0.224 -0.128,-0.144 -0.196,-0.344 -0.064,-0.2 -0.064,-0.44 0,-0.22 0.068,-0.416 0.072,-0.2 0.2,-0.348 0.132,-0.152 0.316,-0.24 0.184,-0.088 0.416,-0.088 0.244,0 0.436,0.104 0.196,0.1 0.324,0.268 0.128,0.168 0.184,0.388 0.06,0.216 0.032,0.448 z" id="path90"/>
        <path d="m 71.127877,-0.664 q 0.02,0.2 0.152,0.28 0.132,0.08 0.316,0.08 0.064,0 0.144,-0.008 0.084,-0.012 0.156,-0.04 0.072,-0.028 0.116,-0.08 0.048,-0.056 0.044,-0.144 -0.004,-0.088 -0.064,-0.144 -0.06,-0.056 -0.156,-0.088 -0.092,-0.036 -0.212,-0.06 -0.12,-0.024 -0.244,-0.052 -0.128,-0.028 -0.248,-0.068 -0.116,-0.04 -0.212,-0.108 -0.092,-0.068 -0.148,-0.172 -0.056,-0.108 -0.056,-0.264 0,-0.168 0.08,-0.28 0.084,-0.116 0.208,-0.184 0.128,-0.072 0.28,-0.1 0.156,-0.028 0.296,-0.028 0.16,0 0.304,0.036 0.148,0.032 0.264,0.108 0.12,0.076 0.196,0.2 0.08,0.12 0.1,0.292 h -0.476 q -0.032,-0.164 -0.152,-0.22 -0.116,-0.056 -0.268,-0.056 -0.048,0 -0.116,0.008 -0.064,0.008 -0.124,0.032 -0.056,0.02 -0.096,0.064 -0.04,0.04 -0.04,0.108 0,0.084 0.056,0.136 0.06,0.052 0.152,0.088 0.096,0.032 0.216,0.056 0.12,0.024 0.248,0.052 0.124,0.028 0.244,0.068 0.12,0.04 0.212,0.108 0.096,0.068 0.152,0.172 0.06,0.104 0.06,0.256 0,0.184 -0.084,0.312 -0.084,0.128 -0.22,0.208 -0.132,0.08 -0.296,0.116 -0.164,0.036 -0.324,0.036 -0.196,0 -0.364,-0.044 -0.164,-0.044 -0.288,-0.132 -0.12,-0.092 -0.192,-0.224 -0.068,-0.136 -0.072,-0.32 z" id="path92"/>
        <path d="m 74.007873,-0.54 h 0.556 V 0 h -0.556 z" id="path94"/>
        <path d="m 75.119872,-0.54 h 0.556 V 0 h -0.556 z" id="path96"/>
        <path d="m 76.231872,-0.54 h 0.556 V 0 h -0.556 z" id="path98"/>
      </g>
      <g aria-label="His principles are key to how he performs his work." transform="translate(22.8241,6.8544)" id="text6">
        <path d="m 0.292,-2.856 h 0.5 v 1.136 h 1.3 v -1.136 h 0.5 V 0 h -0.5 v -1.288 h -1.3 V 0 h -0.5 z" id="path101"/>
        <path d="m 3.1399929,-2.856 h 0.456 v 0.432 h -0.456 z m 0,0.788 h 0.456 V 0 h -0.456 z" id="path103"/>
        <path d="m 4.4359897,-0.664 q 0.02,0.2 0.152,0.28 0.132,0.08 0.316,0.08 0.064,0 0.144,-0.008 0.084,-0.012 0.156,-0.04 0.072,-0.028 0.116,-0.08 0.048,-0.056 0.044,-0.144 -0.004,-0.088 -0.064,-0.144 -0.06,-0.056 -0.156,-0.088 -0.092,-0.036 -0.212,-0.06 -0.12,-0.024 -0.244,-0.052 -0.128,-0.028 -0.248,-0.068 -0.116,-0.04 -0.212,-0.108 -0.092,-0.068 -0.148,-0.172 -0.056,-0.108 -0.056,-0.264 0,-0.168 0.08,-0.28 0.084,-0.116 0.208,-0.184 0.128,-0.072 0.28,-0.1 0.156,-0.028 0.296,-0.028 0.16,0 0.304,0.036 0.148,0.032 0.264,0.108 0.12,0.076 0.196,0.2 0.08,0.12 0.1,0.292 h -0.476 q -0.032,-0.164 -0.152,-0.22 -0.116,-0.056 -0.268,-0.056 -0.048,0 -0.116,0.008 -0.064,0.008 -0.124,0.032 -0.056,0.02 -0.096,0.064 -0.04,0.04 -0.04,0.108 0,0.084 0.056,0.136 0.06,0.052 0.152,0.088 0.096,0.032 0.216,0.056 0.12,0.024 0.248,0.052 0.124,0.028 0.244,0.068 0.12,0.04 0.212,0.108 0.096,0.068 0.152,0.172 0.06,0.104 0.06,0.256 0,0.184 -0.084,0.312 -0.084,0.128 -0.22,0.208 -0.132,0.08 -0.296,0.116 -0.164,0.036 -0.324,0.036 -0.196,0 -0.364,-0.044 -0.164,-0.044 -0.288,-0.132 -0.12,-0.092 -0.192,-0.224 -0.068,-0.136 -0.072,-0.32 z" id="path105"/>
        <path d="m 7.2919857,-2.068 h 0.432 v 0.28 h 0.008 q 0.096,-0.18 0.268,-0.256 0.172,-0.08 0.372,-0.08 0.244,0 0.424,0.088 0.184,0.084 0.304,0.236 0.12,0.148 0.18,0.348 0.06,0.2 0.06,0.428 0,0.208 -0.056,0.404 -0.052,0.196 -0.164,0.348 -0.108,0.148 -0.276,0.24 -0.168,0.088 -0.396,0.088 -0.1,0 -0.2,-0.02 -0.1,-0.016 -0.192,-0.056 -0.092,-0.04 -0.172,-0.1 -0.076,-0.064 -0.128,-0.148 h -0.008 v 1.032 h -0.456 z m 1.592,1.036 q 0,-0.14 -0.036,-0.272 -0.036,-0.132 -0.108,-0.232 -0.072,-0.104 -0.18,-0.164 -0.108,-0.064 -0.248,-0.064 -0.288,0 -0.436,0.2 -0.144,0.2 -0.144,0.532 0,0.156 0.036,0.292 0.04,0.132 0.116,0.228 0.076,0.096 0.18,0.152 0.108,0.056 0.248,0.056 0.156,0 0.264,-0.064 0.108,-0.064 0.176,-0.164 0.072,-0.104 0.1,-0.232 0.032,-0.132 0.032,-0.268 z" id="path107"/>
        <path d="m 9.7239783,-2.068 h 0.4279997 v 0.4 h 0.008 q 0.02,-0.084 0.076,-0.164 0.06,-0.08 0.14,-0.144 0.084,-0.068 0.184,-0.108 0.1,-0.04 0.204,-0.04 0.08,0 0.108,0.004 0.032,0.004 0.064,0.008 v 0.44 q -0.048,-0.008 -0.1,-0.012 -0.048,-0.008 -0.096,-0.008 -0.116,0 -0.22,0.048 -0.1,0.044 -0.176,0.136 -0.076,0.088 -0.12,0.22 -0.044,0.132 -0.044,0.304 V 0 H 9.7239783 Z" id="path109"/>
        <path d="m 11.143975,-2.856 h 0.456 v 0.432 h -0.456 z m 0,0.788 h 0.456 V 0 h -0.456 z" id="path111"/>
        <path d="m 12.095972,-2.068 h 0.432 v 0.304 l 0.008,0.008 q 0.104,-0.172 0.272,-0.268 0.168,-0.1 0.372,-0.1 0.34,0 0.536,0.176 0.196,0.176 0.196,0.528 V 0 h -0.456 v -1.3 q -0.008,-0.244 -0.104,-0.352 -0.096,-0.112 -0.3,-0.112 -0.116,0 -0.208,0.044 -0.092,0.04 -0.156,0.116 -0.064,0.072 -0.1,0.172 -0.036,0.1 -0.036,0.212 V 0 h -0.456 z" id="path113"/>
        <path d="m 15.78797,-1.376 q -0.028,-0.192 -0.156,-0.288 -0.124,-0.1 -0.316,-0.1 -0.088,0 -0.188,0.032 -0.1,0.028 -0.184,0.112 -0.084,0.08 -0.14,0.228 -0.056,0.144 -0.056,0.38 0,0.128 0.028,0.256 0.032,0.128 0.096,0.228 0.068,0.1 0.172,0.164 0.104,0.06 0.252,0.06 0.2,0 0.328,-0.124 0.132,-0.124 0.164,-0.348 h 0.456 q -0.064,0.404 -0.308,0.62 -0.24,0.212 -0.64,0.212 -0.244,0 -0.432,-0.08 -0.184,-0.084 -0.312,-0.224 -0.128,-0.144 -0.196,-0.34 -0.064,-0.196 -0.064,-0.424 0,-0.232 0.064,-0.436 0.064,-0.204 0.192,-0.352 0.128,-0.152 0.316,-0.236 0.192,-0.088 0.448,-0.088 0.18,0 0.34,0.048 0.164,0.044 0.288,0.136 0.128,0.092 0.208,0.232 0.08,0.14 0.096,0.332 z" id="path115"/>
        <path d="m 16.627969,-2.856 h 0.456 v 0.432 h -0.456 z m 0,0.788 h 0.456 V 0 h -0.456 z" id="path117"/>
        <path d="m 17.591966,-2.068 h 0.432 v 0.28 h 0.008 q 0.096,-0.18 0.268,-0.256 0.172,-0.08 0.372,-0.08 0.244,0 0.424,0.088 0.184,0.084 0.304,0.236 0.12,0.148 0.18,0.348 0.06,0.2 0.06,0.428 0,0.208 -0.056,0.404 -0.052,0.196 -0.164,0.348 -0.108,0.148 -0.276,0.24 -0.168,0.088 -0.396,0.088 -0.1,0 -0.2,-0.02 -0.1,-0.016 -0.192,-0.056 -0.092,-0.04 -0.172,-0.1 -0.076,-0.064 -0.128,-0.148 h -0.008 v 1.032 h -0.456 z m 1.592,1.036 q 0,-0.14 -0.036,-0.272 -0.036,-0.132 -0.108,-0.232 -0.072,-0.104 -0.18,-0.164 -0.108,-0.064 -0.248,-0.064 -0.288,0 -0.436,0.2 -0.144,0.2 -0.144,0.532 0,0.156 0.036,0.292 0.04,0.132 0.116,0.228 0.076,0.096 0.18,0.152 0.108,0.056 0.248,0.056 0.156,0 0.264,-0.064 0.108,-0.064 0.176,-0.164 0.072,-0.104 0.1,-0.232 0.032,-0.132 0.032,-0.268 z" id="path119"/>
        <path d="m 20.035958,-2.856 h 0.456 V 0 h -0.456 z" id="path121"/>
        <path d="m 22.407955,-1.216 q -0.008,-0.108 -0.048,-0.208 -0.036,-0.1 -0.104,-0.172 -0.064,-0.076 -0.16,-0.12 -0.092,-0.048 -0.208,-0.048 -0.12,0 -0.22,0.044 -0.096,0.04 -0.168,0.116 -0.068,0.072 -0.112,0.172 -0.04,0.1 -0.044,0.216 z m -1.064,0.3 q 0,0.12 0.032,0.232 0.036,0.112 0.104,0.196 0.068,0.084 0.172,0.136 0.104,0.048 0.248,0.048 0.2,0 0.32,-0.084 0.124,-0.088 0.184,-0.26 h 0.432 q -0.036,0.168 -0.124,0.3 -0.088,0.132 -0.212,0.224 -0.124,0.088 -0.28,0.132 -0.152,0.048 -0.32,0.048 -0.244,0 -0.432,-0.08 -0.188,-0.08 -0.32,-0.224 -0.128,-0.144 -0.196,-0.344 -0.064,-0.2 -0.064,-0.44 0,-0.22 0.068,-0.416 0.072,-0.2 0.2,-0.348 0.132,-0.152 0.316,-0.24 0.184,-0.088 0.416,-0.088 0.244,0 0.436,0.104 0.196,0.1 0.324,0.268 0.128,0.168 0.184,0.388 0.06,0.216 0.032,0.448 z" id="path123"/>
        <path d="m 23.555954,-0.664 q 0.02,0.2 0.152,0.28 0.132,0.08 0.316,0.08 0.064,0 0.144,-0.008 0.084,-0.012 0.156,-0.04 0.072,-0.028 0.116,-0.08 0.048,-0.056 0.044,-0.144 -0.004,-0.088 -0.064,-0.144 -0.06,-0.056 -0.156,-0.088 -0.092,-0.036 -0.212,-0.06 -0.12,-0.024 -0.244,-0.052 -0.128,-0.028 -0.248,-0.068 -0.116,-0.04 -0.212,-0.108 -0.092,-0.068 -0.148,-0.172 -0.056,-0.108 -0.056,-0.264 0,-0.168 0.08,-0.28 0.084,-0.116 0.208,-0.184 0.128,-0.072 0.28,-0.1 0.156,-0.028 0.296,-0.028 0.16,0 0.304,0.036 0.148,0.032 0.264,0.108 0.12,0.076 0.196,0.2 0.08,0.12 0.1,0.292 h -0.476 q -0.032,-0.164 -0.152,-0.22 -0.116,-0.056 -0.268,-0.056 -0.048,0 -0.116,0.008 -0.064,0.008 -0.124,0.032 -0.056,0.02 -0.096,0.064 -0.04,0.04 -0.04,0.108 0,0.084 0.056,0.136 0.06,0.052 0.152,0.088 0.096,0.032 0.216,0.056 0.12,0.024 0.248,0.052 0.124,0.028 0.244,0.068 0.12,0.04 0.212,0.108 0.096,0.068 0.152,0.172 0.06,0.104 0.06,0.256 0,0.184 -0.084,0.312 -0.084,0.128 -0.22,0.208 -0.132,0.08 -0.296,0.116 -0.164,0.036 -0.324,0.036 -0.196,0 -0.364,-0.044 -0.164,-0.044 -0.288,-0.132 -0.12,-0.092 -0.192,-0.224 -0.068,-0.136 -0.072,-0.32 z" id="path125"/>
        <path d="m 28.13195,-0.46 q 0,0.084 0.02,0.12 0.024,0.036 0.088,0.036 0.02,0 0.048,0 0.028,0 0.064,-0.008 v 0.316 q -0.024,0.008 -0.064,0.016 -0.036,0.012 -0.076,0.02 -0.04,0.008 -0.08,0.012 -0.04,0.004 -0.068,0.004 -0.14,0 -0.232,-0.056 -0.092,-0.056 -0.12,-0.196 -0.136,0.132 -0.336,0.192 -0.196,0.06 -0.38,0.06 -0.14,0 -0.268,-0.04 -0.128,-0.036 -0.228,-0.108 -0.096,-0.076 -0.156,-0.188 -0.056,-0.116 -0.056,-0.268 0,-0.192 0.068,-0.312 0.072,-0.12 0.184,-0.188 0.116,-0.068 0.256,-0.096 0.144,-0.032 0.288,-0.048 0.124,-0.024 0.236,-0.032 0.112,-0.012 0.196,-0.036 0.088,-0.024 0.136,-0.072 0.052,-0.052 0.052,-0.152 0,-0.088 -0.044,-0.144 -0.04,-0.056 -0.104,-0.084 -0.06,-0.032 -0.136,-0.04 -0.076,-0.012 -0.144,-0.012 -0.192,0 -0.316,0.08 -0.124,0.08 -0.14,0.248 h -0.456 q 0.012,-0.2 0.096,-0.332 0.084,-0.132 0.212,-0.212 0.132,-0.08 0.296,-0.112 0.164,-0.032 0.336,-0.032 0.152,0 0.3,0.032 0.148,0.032 0.264,0.104 0.12,0.072 0.192,0.188 0.072,0.112 0.072,0.276 z m -0.456,-0.576 q -0.104,0.068 -0.256,0.084 -0.152,0.012 -0.304,0.04 -0.072,0.012 -0.14,0.036 -0.068,0.02 -0.12,0.06 -0.052,0.036 -0.084,0.1 -0.028,0.06 -0.028,0.148 0,0.076 0.044,0.128 0.044,0.052 0.104,0.084 0.064,0.028 0.136,0.04 0.076,0.012 0.136,0.012 0.076,0 0.164,-0.02 0.088,-0.02 0.164,-0.068 0.08,-0.048 0.132,-0.12 0.052,-0.076 0.052,-0.184 z" id="path127"/>
        <path d="m 28.623949,-2.068 h 0.428 v 0.4 h 0.008 q 0.02,-0.084 0.076,-0.164 0.06,-0.08 0.14,-0.144 0.084,-0.068 0.184,-0.108 0.1,-0.04 0.204,-0.04 0.08,0 0.108,0.004 0.032,0.004 0.064,0.008 v 0.44 q -0.048,-0.008 -0.1,-0.012 -0.048,-0.008 -0.096,-0.008 -0.116,0 -0.22,0.048 -0.1,0.044 -0.176,0.136 -0.076,0.088 -0.12,0.22 -0.044,0.132 -0.044,0.304 V 0 h -0.456 z" id="path129"/>
        <path d="m 31.37994,-1.216 q -0.008,-0.108 -0.048,-0.208 -0.036,-0.1 -0.104,-0.172 -0.064,-0.076 -0.16,-0.12 -0.092,-0.048 -0.208,-0.048 -0.12,0 -0.22,0.044 -0.096,0.04 -0.168,0.116 -0.068,0.072 -0.112,0.172 -0.04,0.1 -0.044,0.216 z m -1.064,0.3 q 0,0.12 0.032,0.232 0.036,0.112 0.104,0.196 0.068,0.084 0.172,0.136 0.104,0.048 0.248,0.048 0.2,0 0.32,-0.084 0.124,-0.088 0.184,-0.26 h 0.432 q -0.036,0.168 -0.124,0.3 -0.088,0.132 -0.212,0.224 -0.124,0.088 -0.28,0.132 -0.152,0.048 -0.32,0.048 -0.244,0 -0.432,-0.08 -0.188,-0.08 -0.32,-0.224 -0.128,-0.144 -0.196,-0.344 -0.064,-0.2 -0.064,-0.44 0,-0.22 0.068,-0.416 0.072,-0.2 0.2,-0.348 0.132,-0.152 0.316,-0.24 0.184,-0.088 0.416,-0.088 0.244,0 0.436,0.104 0.196,0.1 0.324,0.268 0.128,0.168 0.184,0.388 0.06,0.216 0.032,0.448 z" id="path131"/>
        <path d="m 33.307939,-2.856 h 0.456 v 1.624 l 0.824,-0.836 h 0.56 l -0.792,0.76 0.868,1.308 h -0.556 l -0.632,-1.004 -0.272,0.264 V 0 h -0.456 z" id="path133"/>
        <path d="m 36.863934,-1.216 q -0.008,-0.108 -0.048,-0.208 -0.036,-0.1 -0.104,-0.172 -0.064,-0.076 -0.16,-0.12 -0.092,-0.048 -0.208,-0.048 -0.12,0 -0.22,0.044 -0.096,0.04 -0.168,0.116 -0.068,0.072 -0.112,0.172 -0.04,0.1 -0.044,0.216 z m -1.064,0.3 q 0,0.12 0.032,0.232 0.036,0.112 0.104,0.196 0.068,0.084 0.172,0.136 0.104,0.048 0.248,0.048 0.2,0 0.32,-0.084 0.124,-0.088 0.184,-0.26 h 0.432 q -0.036,0.168 -0.124,0.3 -0.088,0.132 -0.212,0.224 -0.124,0.088 -0.28,0.132 -0.152,0.048 -0.32,0.048 -0.244,0 -0.432,-0.08 -0.188,-0.08 -0.32,-0.224 -0.128,-0.144 -0.196,-0.344 -0.064,-0.2 -0.064,-0.44 0,-0.22 0.068,-0.416 0.072,-0.2 0.2,-0.348 0.132,-0.152 0.316,-0.24 0.184,-0.088 0.416,-0.088 0.244,0 0.436,0.104 0.196,0.1 0.324,0.268 0.128,0.168 0.184,0.388 0.06,0.216 0.032,0.448 z" id="path135"/>
        <path d="m 37.439933,-2.068 h 0.5 l 0.54,1.544 h 0.008 l 0.524,-1.544 h 0.476 l -0.804,2.18 q -0.056,0.14 -0.112,0.268 -0.052,0.128 -0.132,0.224 -0.076,0.1 -0.192,0.156 -0.116,0.06 -0.296,0.06 -0.16,0 -0.316,-0.024 V 0.412 q 0.056,0.008 0.108,0.016 0.052,0.012 0.108,0.012 0.08,0 0.132,-0.02 0.052,-0.02 0.084,-0.06 0.036,-0.036 0.06,-0.088 0.024,-0.052 0.044,-0.12 l 0.052,-0.16 z" id="path137"/>
        <path d="m 40.647929,-2.068 h 0.344 v -0.62 h 0.456 v 0.62 h 0.412 v 0.34 h -0.412 v 1.104 q 0,0.072 0.004,0.124 0.008,0.052 0.028,0.088 0.024,0.036 0.068,0.056 0.044,0.016 0.12,0.016 0.048,0 0.096,0 0.048,-0.004 0.096,-0.016 v 0.352 q -0.076,0.008 -0.148,0.016 -0.072,0.008 -0.148,0.008 -0.18,0 -0.292,-0.032 -0.108,-0.036 -0.172,-0.1 -0.06,-0.068 -0.084,-0.168 -0.02,-0.1 -0.024,-0.228 v -1.22 h -0.344 z" id="path139"/>
        <path d="m 43.135922,0.056 q -0.248,0 -0.444,-0.08 -0.192,-0.084 -0.328,-0.228 -0.132,-0.144 -0.204,-0.344 -0.068,-0.2 -0.068,-0.44 0,-0.236 0.068,-0.436 0.072,-0.2 0.204,-0.344 0.136,-0.144 0.328,-0.224 0.196,-0.084 0.444,-0.084 0.248,0 0.44,0.084 0.196,0.08 0.328,0.224 0.136,0.144 0.204,0.344 0.072,0.2 0.072,0.436 0,0.24 -0.072,0.44 -0.068,0.2 -0.204,0.344 -0.132,0.144 -0.328,0.228 -0.192,0.08 -0.44,0.08 z m 0,-0.36 q 0.152,0 0.264,-0.064 0.112,-0.064 0.184,-0.168 0.072,-0.104 0.104,-0.232 0.036,-0.132 0.036,-0.268 0,-0.132 -0.036,-0.264 -0.032,-0.132 -0.104,-0.232 -0.072,-0.104 -0.184,-0.168 -0.112,-0.064 -0.264,-0.064 -0.152,0 -0.264,0.064 -0.112,0.064 -0.184,0.168 -0.072,0.1 -0.108,0.232 -0.032,0.132 -0.032,0.264 0,0.136 0.032,0.268 0.036,0.128 0.108,0.232 0.072,0.104 0.184,0.168 0.112,0.064 0.264,0.064 z" id="path141"/>
        <path d="m 45.671915,-2.856 h 0.456 v 1.06 h 0.008 q 0.084,-0.14 0.248,-0.232 0.168,-0.096 0.372,-0.096 0.34,0 0.536,0.176 0.196,0.176 0.196,0.528 V 0 h -0.456 v -1.3 q -0.008,-0.244 -0.104,-0.352 -0.096,-0.112 -0.3,-0.112 -0.116,0 -0.208,0.044 -0.092,0.04 -0.156,0.116 -0.064,0.072 -0.1,0.172 -0.036,0.1 -0.036,0.212 V 0 h -0.456 z" id="path143"/>
        <path d="m 48.915913,0.056 q -0.248,0 -0.444,-0.08 -0.192,-0.084 -0.328,-0.228 -0.132,-0.144 -0.204,-0.344 -0.068,-0.2 -0.068,-0.44 0,-0.236 0.068,-0.436 0.072,-0.2 0.204,-0.344 0.136,-0.144 0.328,-0.224 0.196,-0.084 0.444,-0.084 0.248,0 0.44,0.084 0.196,0.08 0.328,0.224 0.136,0.144 0.204,0.344 0.072,0.2 0.072,0.436 0,0.24 -0.072,0.44 -0.068,0.2 -0.204,0.344 -0.132,0.144 -0.328,0.228 -0.192,0.08 -0.44,0.08 z m 0,-0.36 q 0.152,0 0.264,-0.064 0.112,-0.064 0.184,-0.168 0.072,-0.104 0.104,-0.232 0.036,-0.132 0.036,-0.268 0,-0.132 -0.036,-0.264 -0.032,-0.132 -0.104,-0.232 -0.072,-0.104 -0.184,-0.168 -0.112,-0.064 -0.264,-0.064 -0.152,0 -0.264,0.064 -0.112,0.064 -0.184,0.168 -0.072,0.1 -0.108,0.232 -0.032,0.132 -0.032,0.264 0,0.136 0.032,0.268 0.036,0.128 0.108,0.232 0.072,0.104 0.184,0.168 0.112,0.064 0.264,0.064 z" id="path145"/>
        <path d="m 50.151907,-2.068 h 0.484 l 0.404,1.544 h 0.008 l 0.388,-1.544 h 0.46 l 0.372,1.544 h 0.008 l 0.42,-1.544 h 0.464 L 52.511907,0 h -0.468 l -0.384,-1.536 h -0.008 l -0.38,1.536 h -0.48 z" id="path147"/>
        <path d="m 54.563906,-2.856 h 0.456 v 1.06 h 0.008 q 0.084,-0.14 0.248,-0.232 0.168,-0.096 0.372,-0.096 0.34,0 0.536,0.176 0.196,0.176 0.196,0.528 V 0 h -0.456 v -1.3 q -0.008,-0.244 -0.104,-0.352 -0.096,-0.112 -0.3,-0.112 -0.116,0 -0.208,0.044 -0.092,0.04 -0.156,0.116 -0.064,0.072 -0.1,0.172 -0.036,0.1 -0.036,0.212 V 0 h -0.456 z" id="path149"/>
        <path d="m 58.279904,-1.216 q -0.008,-0.108 -0.048,-0.208 -0.036,-0.1 -0.104,-0.172 -0.064,-0.076 -0.16,-0.12 -0.092,-0.048 -0.208,-0.048 -0.12,0 -0.22,0.044 -0.096,0.04 -0.168,0.116 -0.068,0.072 -0.112,0.172 -0.04,0.1 -0.044,0.216 z m -1.064,0.3 q 0,0.12 0.032,0.232 0.036,0.112 0.104,0.196 0.068,0.084 0.172,0.136 0.104,0.048 0.248,0.048 0.2,0 0.32,-0.084 0.124,-0.088 0.184,-0.26 h 0.432 q -0.036,0.168 -0.124,0.3 -0.088,0.132 -0.212,0.224 -0.124,0.088 -0.28,0.132 -0.152,0.048 -0.32,0.048 -0.244,0 -0.432,-0.08 -0.188,-0.08 -0.32,-0.224 -0.128,-0.144 -0.196,-0.344 -0.064,-0.2 -0.064,-0.44 0,-0.22 0.068,-0.416 0.072,-0.2 0.2,-0.348 0.132,-0.152 0.316,-0.24 0.184,-0.088 0.416,-0.088 0.244,0 0.436,0.104 0.196,0.1 0.324,0.268 0.128,0.168 0.184,0.388 0.06,0.216 0.032,0.448 z" id="path151"/>
        <path d="m 60.207902,-2.068 h 0.432 v 0.28 h 0.008 q 0.096,-0.18 0.268,-0.256 0.172,-0.08 0.372,-0.08 0.244,0 0.424,0.088 0.184,0.084 0.304,0.236 0.12,0.148 0.18,0.348 0.06,0.2 0.06,0.428 0,0.208 -0.056,0.404 -0.052,0.196 -0.164,0.348 -0.108,0.148 -0.276,0.24 -0.168,0.088 -0.396,0.088 -0.1,0 -0.2,-0.02 -0.1,-0.016 -0.192,-0.056 -0.092,-0.04 -0.172,-0.1 -0.076,-0.064 -0.128,-0.148 h -0.008 v 1.032 h -0.456 z m 1.592,1.036 q 0,-0.14 -0.036,-0.272 -0.036,-0.132 -0.108,-0.232 -0.072,-0.104 -0.18,-0.164 -0.108,-0.064 -0.248,-0.064 -0.288,0 -0.436,0.2 -0.144,0.2 -0.144,0.532 0,0.156 0.036,0.292 0.04,0.132 0.116,0.228 0.076,0.096 0.18,0.152 0.108,0.056 0.248,0.056 0.156,0 0.264,-0.064 0.108,-0.064 0.176,-0.164 0.072,-0.104 0.1,-0.232 0.032,-0.132 0.032,-0.268 z" id="path153"/>
        <path d="m 64.059895,-1.216 q -0.008,-0.108 -0.048,-0.208 -0.036,-0.1 -0.104,-0.172 -0.064,-0.076 -0.16,-0.12 -0.092,-0.048 -0.208,-0.048 -0.12,0 -0.22,0.044 -0.096,0.04 -0.168,0.116 -0.068,0.072 -0.112,0.172 -0.04,0.1 -0.044,0.216 z m -1.064,0.3 q 0,0.12 0.032,0.232 0.036,0.112 0.104,0.196 0.068,0.084 0.172,0.136 0.104,0.048 0.248,0.048 0.2,0 0.32,-0.084 0.124,-0.088 0.184,-0.26 h 0.432 q -0.036,0.168 -0.124,0.3 -0.088,0.132 -0.212,0.224 -0.124,0.088 -0.28,0.132 -0.152,0.048 -0.32,0.048 -0.244,0 -0.432,-0.08 -0.188,-0.08 -0.32,-0.224 -0.128,-0.144 -0.196,-0.344 -0.064,-0.2 -0.064,-0.44 0,-0.22 0.068,-0.416 0.072,-0.2 0.2,-0.348 0.132,-0.152 0.316,-0.24 0.184,-0.088 0.416,-0.088 0.244,0 0.436,0.104 0.196,0.1 0.324,0.268 0.128,0.168 0.184,0.388 0.06,0.216 0.032,0.448 z" id="path155"/>
        <path d="m 64.863894,-2.068 h 0.428 v 0.4 h 0.008 q 0.02,-0.084 0.076,-0.164 0.06,-0.08 0.14,-0.144 0.084,-0.068 0.184,-0.108 0.1,-0.04 0.204,-0.04 0.08,0 0.108,0.004 0.032,0.004 0.064,0.008 v 0.44 q -0.048,-0.008 -0.1,-0.012 -0.048,-0.008 -0.096,-0.008 -0.116,0 -0.22,0.048 -0.1,0.044 -0.176,0.136 -0.076,0.088 -0.12,0.22 -0.044,0.132 -0.044,0.304 V 0 h -0.456 z" id="path157"/>
        <path d="m 66.067891,-2.068 h 0.34 V -2.24 q 0,-0.196 0.048,-0.316 0.048,-0.124 0.128,-0.188 0.08,-0.068 0.18,-0.088 0.104,-0.024 0.216,-0.024 0.22,0 0.32,0.028 v 0.356 q -0.044,-0.012 -0.096,-0.016 -0.048,-0.008 -0.116,-0.008 -0.092,0 -0.16,0.044 -0.064,0.044 -0.064,0.172 v 0.212 h 0.388 v 0.34 h -0.388 V 0 h -0.456 v -1.728 h -0.34 z" id="path159"/>
        <path d="m 68.479885,0.056 q -0.248,0 -0.444,-0.08 -0.192,-0.084 -0.328,-0.228 -0.132,-0.144 -0.204,-0.344 -0.068,-0.2 -0.068,-0.44 0,-0.236 0.068,-0.436 0.072,-0.2 0.204,-0.344 0.136,-0.144 0.328,-0.224 0.196,-0.084 0.444,-0.084 0.248,0 0.44,0.084 0.196,0.08 0.328,0.224 0.136,0.144 0.204,0.344 0.072,0.2 0.072,0.436 0,0.24 -0.072,0.44 -0.068,0.2 -0.204,0.344 -0.132,0.144 -0.328,0.228 -0.192,0.08 -0.44,0.08 z m 0,-0.36 q 0.152,0 0.264,-0.064 0.112,-0.064 0.184,-0.168 0.072,-0.104 0.104,-0.232 0.036,-0.132 0.036,-0.268 0,-0.132 -0.036,-0.264 -0.032,-0.132 -0.104,-0.232 -0.072,-0.104 -0.184,-0.168 -0.112,-0.064 -0.264,-0.064 -0.152,0 -0.264,0.064 -0.112,0.064 -0.184,0.168 -0.072,0.1 -0.108,0.232 -0.032,0.132 -0.032,0.264 0,0.136 0.032,0.268 0.036,0.128 0.108,0.232 0.072,0.104 0.184,0.168 0.112,0.064 0.264,0.064 z" id="path161"/>
        <path d="m 69.903879,-2.068 h 0.428 v 0.4 h 0.008 q 0.02,-0.084 0.076,-0.164 0.06,-0.08 0.14,-0.144 0.084,-0.068 0.184,-0.108 0.1,-0.04 0.204,-0.04 0.08,0 0.108,0.004 0.032,0.004 0.064,0.008 v 0.44 q -0.048,-0.008 -0.1,-0.012 -0.048,-0.008 -0.096,-0.008 -0.116,0 -0.22,0.048 -0.1,0.044 -0.176,0.136 -0.076,0.088 -0.12,0.22 -0.044,0.132 -0.044,0.304 V 0 h -0.456 z" id="path163"/>
        <path d="m 71.311877,-2.068 h 0.432 v 0.288 h 0.012 q 0.052,-0.076 0.112,-0.14 0.06,-0.064 0.132,-0.108 0.076,-0.044 0.172,-0.068 0.096,-0.028 0.22,-0.028 0.188,0 0.348,0.084 0.164,0.084 0.232,0.26 0.116,-0.16 0.268,-0.252 0.152,-0.092 0.38,-0.092 0.328,0 0.508,0.16 0.184,0.16 0.184,0.536 V 0 h -0.456 v -1.208 q 0,-0.124 -0.008,-0.224 -0.008,-0.104 -0.048,-0.176 -0.036,-0.076 -0.112,-0.116 -0.076,-0.04 -0.208,-0.04 -0.232,0 -0.336,0.144 -0.104,0.144 -0.104,0.408 V 0 h -0.456 v -1.328 q 0,-0.216 -0.08,-0.324 -0.076,-0.112 -0.284,-0.112 -0.088,0 -0.172,0.036 -0.08,0.036 -0.144,0.104 -0.06,0.068 -0.1,0.168 -0.036,0.1 -0.036,0.228 V 0 h -0.456 z" id="path165"/>
        <path d="m 75.135872,-0.664 q 0.02,0.2 0.152,0.28 0.132,0.08 0.316,0.08 0.064,0 0.144,-0.008 0.084,-0.012 0.156,-0.04 0.072,-0.028 0.116,-0.08 0.048,-0.056 0.044,-0.144 -0.004,-0.088 -0.064,-0.144 -0.06,-0.056 -0.156,-0.088 -0.092,-0.036 -0.212,-0.06 -0.12,-0.024 -0.244,-0.052 -0.128,-0.028 -0.248,-0.068 -0.116,-0.04 -0.212,-0.108 -0.092,-0.068 -0.148,-0.172 -0.056,-0.108 -0.056,-0.264 0,-0.168 0.08,-0.28 0.084,-0.116 0.208,-0.184 0.128,-0.072 0.28,-0.1 0.156,-0.028 0.296,-0.028 0.16,0 0.304,0.036 0.148,0.032 0.264,0.108 0.12,0.076 0.196,0.2 0.08,0.12 0.1,0.292 h -0.476 q -0.032,-0.164 -0.152,-0.22 -0.116,-0.056 -0.268,-0.056 -0.048,0 -0.116,0.008 -0.064,0.008 -0.124,0.032 -0.056,0.02 -0.096,0.064 -0.04,0.04 -0.04,0.108 0,0.084 0.056,0.136 0.06,0.052 0.152,0.088 0.096,0.032 0.216,0.056 0.12,0.024 0.248,0.052 0.124,0.028 0.244,0.068 0.12,0.04 0.212,0.108 0.096,0.068 0.152,0.172 0.06,0.104 0.06,0.256 0,0.184 -0.084,0.312 -0.084,0.128 -0.22,0.208 -0.132,0.08 -0.296,0.116 -0.164,0.036 -0.324,0.036 -0.196,0 -0.364,-0.044 -0.164,-0.044 -0.288,-0.132 -0.12,-0.092 -0.192,-0.224 -0.068,-0.136 -0.072,-0.32 z" id="path167"/>
        <path d="m 77.979868,-2.856 h 0.456 v 1.06 h 0.008 q 0.084,-0.14 0.248,-0.232 0.168,-0.096 0.372,-0.096 0.34,0 0.536,0.176 0.196,0.176 0.196,0.528 V 0 h -0.456 v -1.3 q -0.008,-0.244 -0.104,-0.352 -0.096,-0.112 -0.3,-0.112 -0.116,0 -0.208,0.044 -0.092,0.04 -0.156,0.116 -0.064,0.072 -0.1,0.172 -0.036,0.1 -0.036,0.212 V 0 h -0.456 z" id="path169"/>
        <path d="m 80.287866,-2.856 h 0.456 v 0.432 h -0.456 z m 0,0.788 h 0.456 V 0 h -0.456 z" id="path171"/>
        <path d="m 81.583863,-0.664 q 0.02,0.2 0.152,0.28 0.132,0.08 0.316,0.08 0.064,0 0.144,-0.008 0.084,-0.012 0.156,-0.04 0.072,-0.028 0.116,-0.08 0.048,-0.056 0.044,-0.144 -0.004,-0.088 -0.064,-0.144 -0.06,-0.056 -0.156,-0.088 -0.092,-0.036 -0.212,-0.06 -0.12,-0.024 -0.244,-0.052 -0.128,-0.028 -0.248,-0.068 -0.116,-0.04 -0.212,-0.108 -0.092,-0.068 -0.148,-0.172 -0.056,-0.108 -0.056,-0.264 0,-0.168 0.08,-0.28 0.084,-0.116 0.208,-0.184 0.128,-0.072 0.28,-0.1 0.156,-0.028 0.296,-0.028 0.16,0 0.304,0.036 0.148,0.032 0.264,0.108 0.12,0.076 0.196,0.2 0.08,0.12 0.1,0.292 h -0.476 q -0.032,-0.164 -0.152,-0.22 -0.116,-0.056 -0.268,-0.056 -0.048,0 -0.116,0.008 -0.064,0.008 -0.124,0.032 -0.056,0.02 -0.096,0.064 -0.04,0.04 -0.04,0.108 0,0.084 0.056,0.136 0.06,0.052 0.152,0.088 0.096,0.032 0.216,0.056 0.12,0.024 0.248,0.052 0.124,0.028 0.244,0.068 0.12,0.04 0.212,0.108 0.096,0.068 0.152,0.172 0.06,0.104 0.06,0.256 0,0.184 -0.084,0.312 -0.084,0.128 -0.22,0.208 -0.132,0.08 -0.296,0.116 -0.164,0.036 -0.324,0.036 -0.196,0 -0.364,-0.044 -0.164,-0.044 -0.288,-0.132 -0.12,-0.092 -0.192,-0.224 -0.068,-0.136 -0.072,-0.32 z" id="path173"/>
        <path d="m 84.239859,-2.068 h 0.484 l 0.404,1.544 h 0.008 l 0.388,-1.544 h 0.46 l 0.372,1.544 h 0.008 l 0.42,-1.544 h 0.464 L 86.599859,0 h -0.468 l -0.384,-1.536 h -0.008 l -0.38,1.536 h -0.48 z" id="path175"/>
        <path d="m 88.487858,0.056 q -0.248,0 -0.444,-0.08 -0.192,-0.084 -0.328,-0.228 -0.132,-0.144 -0.204,-0.344 -0.068,-0.2 -0.068,-0.44 0,-0.236 0.068,-0.436 0.072,-0.2 0.204,-0.344 0.136,-0.144 0.328,-0.224 0.196,-0.084 0.444,-0.084 0.248,0 0.44,0.084 0.196,0.08 0.328,0.224 0.136,0.144 0.204,0.344 0.072,0.2 0.072,0.436 0,0.24 -0.072,0.44 -0.068,0.2 -0.204,0.344 -0.132,0.144 -0.328,0.228 -0.192,0.08 -0.44,0.08 z m 0,-0.36 q 0.152,0 0.264,-0.064 0.112,-0.064 0.184,-0.168 0.072,-0.104 0.104,-0.232 0.036,-0.132 0.036,-0.268 0,-0.132 -0.036,-0.264 -0.032,-0.132 -0.104,-0.232 -0.072,-0.104 -0.184,-0.168 -0.112,-0.064 -0.264,-0.064 -0.152,0 -0.264,0.064 -0.112,0.064 -0.184,0.168 -0.072,0.1 -0.108,0.232 -0.032,0.132 -0.032,0.264 0,0.136 0.032,0.268 0.036,0.128 0.108,0.232 0.072,0.104 0.184,0.168 0.112,0.064 0.264,0.064 z" id="path177"/>
        <path d="m 89.911852,-2.068 h 0.428 v 0.4 h 0.008 q 0.02,-0.084 0.076,-0.164 0.06,-0.08 0.14,-0.144 0.084,-0.068 0.184,-0.108 0.1,-0.04 0.204,-0.04 0.08,0 0.108,0.004 0.032,0.004 0.064,0.008 v 0.44 q -0.048,-0.008 -0.1,-0.012 -0.048,-0.008 -0.096,-0.008 -0.116,0 -0.22,0.048 -0.1,0.044 -0.176,0.136 -0.076,0.088 -0.12,0.22 -0.044,0.132 -0.044,0.304 V 0 h -0.456 z" id="path179"/>
        <path d="m 91.331849,-2.856 h 0.456 v 1.624 l 0.824,-0.836 h 0.56 l -0.792,0.76 0.868,1.308 h -0.556 l -0.632,-1.004 -0.272,0.264 V 0 h -0.456 z" id="path181"/>
        <path d="m 93.503844,-0.54 h 0.556 V 0 h -0.556 z" id="path183"/>
      </g>
    </g>
    <g font-family="'HelveticaNeueLT Com 65 Md'" fill="#444444" font-size="2.66667px" transform="translate(84.653333,25.7608)" id="g14">
      <g aria-label="&#8212;Vincent" id="text10">
        <path d="M 0.34666671,-0.86933344 H 2.3200003 V -0.5813334 H 0.34666671 Z" id="path186"/>
        <path d="m 2.6533286,-1.9040002 h 0.3466668 l 0.4773333,1.50666682 h 0.00533 l 0.488,-1.50666682 H 4.3093288 L 3.6586621,0 H 3.2879954 Z" id="path188"/>
        <path d="m 4.4906524,-1.9040002 h 0.304 v 0.288 h -0.304 z m 0,0.5253334 h 0.304 V 0 h -0.304 z" id="path190"/>
        <path d="m 5.1253173,-1.3786668 h 0.288 v 0.2026667 l 0.00533,0.00533 q 0.069333,-0.1146667 0.1813334,-0.1786667 0.112,-0.066667 0.248,-0.066667 0.2266667,0 0.3573334,0.1173334 0.1306667,0.1173333 0.1306667,0.35200002 V 0 H 6.031984 v -0.86666677 q -0.00533,-0.16266673 -0.069333,-0.23466673 -0.064,-0.074667 -0.2,-0.074667 -0.077333,0 -0.1386667,0.029333 -0.061333,0.026667 -0.104,0.077333 -0.042667,0.048 -0.066667,0.11466672 -0.024,0.0666667 -0.024,0.14133335 V 0 h -0.304 z" id="path192"/>
        <path d="m 7.5866494,-0.91733344 q -0.018667,-0.12800006 -0.104,-0.19200006 -0.082667,-0.066667 -0.2106667,-0.066667 -0.058667,0 -0.1253333,0.021333 -0.066667,0.018667 -0.1226667,0.074667 -0.056,0.053333 -0.093333,0.15199999 -0.037333,0.096 -0.037333,0.25333336 0,0.0853333 0.018667,0.17066669 0.021333,0.0853333 0.064,0.15200002 0.045333,0.0666667 0.1146667,0.10933334 0.069333,0.04 0.168,0.04 0.1333334,0 0.2186667,-0.0826667 0.088,-0.0826667 0.1093333,-0.23200003 h 0.3040001 q -0.042667,0.26933337 -0.2053334,0.41333339 -0.16,0.14133335 -0.4266667,0.14133335 -0.1626667,0 -0.288,-0.05333334 -0.1226667,-0.05600001 -0.2080001,-0.14933335 -0.085333,-0.096 -0.1306666,-0.2266667 -0.042667,-0.13066668 -0.042667,-0.2826667 0,-0.15466668 0.042667,-0.2906667 0.042667,-0.13600005 0.128,-0.23466665 0.085333,-0.1013334 0.2106667,-0.1573334 0.128,-0.058667 0.2986667,-0.058667 0.12,0 0.2266667,0.032 0.1093333,0.029333 0.192,0.090667 0.085333,0.061333 0.1386667,0.1546667 0.053333,0.093333 0.064,0.22133336 z" id="path194"/>
        <path d="m 9.0853155,-0.81066676 q -0.00533,-0.072 -0.032,-0.13866669 -0.024,-0.0666667 -0.069333,-0.11466665 -0.042667,-0.050667 -0.1066667,-0.08 -0.061333,-0.032 -0.1386666,-0.032 -0.08,0 -0.1466667,0.029333 -0.064,0.026667 -0.112,0.077333 -0.045333,0.048 -0.074667,0.11466672 -0.026667,0.0666667 -0.029333,0.14400002 z M 8.375982,-0.61066674 q 0,0.08 0.021333,0.15466669 0.024,0.0746667 0.069333,0.13066668 0.045333,0.056 0.1146667,0.0906667 0.069333,0.032 0.1653334,0.032 0.1333333,0 0.2133333,-0.056 0.082667,-0.0586667 0.1226667,-0.17333335 h 0.288 q -0.024,0.11200001 -0.082667,0.20000002 -0.058667,0.088 -0.1413334,0.14933335 Q 9.0639821,-0.024 8.9599821,0.00533333 8.8586488,0.03733334 8.7466488,0.03733334 q -0.1626667,0 -0.2880001,-0.05333334 -0.1253333,-0.05333334 -0.2133333,-0.14933335 -0.085333,-0.096 -0.1306667,-0.22933336 -0.042667,-0.13333335 -0.042667,-0.29333337 0,-0.14666669 0.045333,-0.27733337 0.048,-0.13333335 0.1333334,-0.23200005 0.088,-0.1013333 0.2106667,-0.16 0.1226667,-0.058667 0.2773334,-0.058667 0.1626666,0 0.2906667,0.069333 0.1306666,0.066667 0.216,0.1786667 0.085333,0.112 0.1226667,0.25866666 0.04,0.14400002 0.021333,0.2986667 z" id="path196"/>
        <path d="m 9.6213152,-1.3786668 h 0.288 v 0.2026667 l 0.00533,0.00533 q 0.069333,-0.1146667 0.1813335,-0.1786667 0.112,-0.066667 0.248,-0.066667 0.226667,0 0.357333,0.1173334 0.130667,0.1173333 0.130667,0.35200002 V 0 h -0.304 v -0.86666677 q -0.0053,-0.16266673 -0.06933,-0.23466673 -0.064,-0.074667 -0.2,-0.074667 -0.07733,0 -0.138667,0.029333 -0.06133,0.026667 -0.104,0.077333 -0.042667,0.048 -0.066667,0.11466672 -0.024,0.0666667 -0.024,0.14133335 V 0 h -0.304 z" id="path198"/>
        <path d="m 11.013314,-1.3786668 h 0.229333 v -0.4133334 h 0.304 v 0.4133334 h 0.274667 v 0.2266667 h -0.274667 v 0.73600005 q 0,0.048 0.0027,0.0826667 0.0053,0.0346667 0.01867,0.0586667 0.016,0.024 0.04533,0.0373333 0.02933,0.0106667 0.08,0.0106667 0.032,0 0.064,0 0.032,-0.002667 0.064,-0.0106667 v 0.23466669 Q 11.770647,0.00266667 11.722647,0.008 q -0.048,0.00533333 -0.09867,0.00533333 -0.12,0 -0.194667,-0.02133333 -0.072,-0.024 -0.114667,-0.06666668 -0.04,-0.04533333 -0.056,-0.11200001 -0.01333,-0.0666667 -0.016,-0.15200002 V -1.1520001 h -0.229333 z" id="path200"/>
      </g>
      <g aria-label="Clinic Support Manager" transform="translate(3,3.2368)" id="text12" style="font-style:italic">
        <path d="m 1.5226668,-1.2693335 q 0,-0.2 -0.112,-0.304 -0.112,-0.104 -0.3173333,-0.104 -0.17066672,0 -0.29866674,0.077333 -0.12533335,0.077333 -0.21066669,0.2026667 -0.0826667,0.1253333 -0.12533335,0.2826667 -0.0426667,0.15733335 -0.0426667,0.31733337 0,0.2666667 0.13600002,0.41866672 0.13600001,0.15200002 0.38666671,0.15200002 0.12800002,0 0.21600002,-0.048 0.088,-0.0506667 0.144,-0.12000001 0.058667,-0.072 0.088,-0.14666669 0.032,-0.0746667 0.045333,-0.12266668 h 0.3333333 q -0.04,0.18133336 -0.12,0.31466671 -0.08,0.13333334 -0.192,0.22133335 Q 1.3440002,-0.04 1.2106668,0.00266667 1.0773335,0.04533334 0.92800011,0.04533334 q -0.20533336,0 -0.36266671,-0.06400001 Q 0.40800005,-0.08266668 0.30133337,-0.19466669 0.19466669,-0.3066667 0.13866668,-0.45866672 q -0.056,-0.15200002 -0.056,-0.32800004 0,-0.29866674 0.08800001,-0.51733344 0.0906667,-0.2213333 0.23466669,-0.3626667 0.14666669,-0.144 0.32800004,-0.2133333 0.18400002,-0.069333 0.37066668,-0.069333 0.1680001,0 0.3093334,0.045333 0.1413334,0.045333 0.24,0.1306667 0.1013334,0.085333 0.1546667,0.2133333 0.053333,0.128 0.048,0.2906667 z" style="font-style:italic" id="path203"/>
        <path d="m 2.2879956,-1.9040002 h 0.304 L 2.1973289,0 H 1.8933288 Z" style="font-style:italic" id="path205"/>
        <path d="m 2.9306604,-1.9040002 h 0.3013333 l -0.058667,0.288 H 2.8719937 Z M 2.821327,-1.3786668 h 0.304 L 2.8399937,0 H 2.5359936 Z" style="font-style:italic" id="path207"/>
        <path d="m 3.4639914,-1.3786668 h 0.2853334 l -0.042667,0.2 0.00533,0.00533 q 0.082667,-0.1146667 0.2053333,-0.1786667 0.1253334,-0.064 0.2693334,-0.064 0.208,0 0.304,0.098667 0.098667,0.098667 0.098667,0.2666667 0,0.037333 -0.00267,0.0853333 -0.00267,0.048 -0.010667,0.0853334 L 4.3919915,0 h -0.304 l 0.176,-0.85066677 q 0.008,-0.0346667 0.013333,-0.0666667 0.008,-0.032 0.008,-0.0613333 0,-0.016 -0.00267,-0.048 0,-0.034667 -0.018667,-0.066667 -0.018667,-0.034667 -0.064,-0.058667 -0.042667,-0.024 -0.1253333,-0.024 -0.090667,0 -0.1626667,0.04 -0.069333,0.037333 -0.1253334,0.093333 -0.053333,0.0533333 -0.093333,0.13333336 -0.037333,0.0773333 -0.056,0.16266668 L 3.4826581,0 h -0.304 z" style="font-style:italic" id="path209"/>
        <path d="m 5.1039902,-1.9040002 h 0.3013334 l -0.058667,0.288 H 5.0453235 Z M 4.9946568,-1.3786668 H 5.2986569 L 5.0133235,0 h -0.304 z" style="font-style:italic" id="path211"/>
        <path d="m 6.4453218,-0.92266678 q 0.00533,-0.12800002 -0.072,-0.18933332 -0.074667,-0.064 -0.2,-0.064 -0.1146667,0 -0.2,0.058667 -0.085333,0.058667 -0.1413334,0.14933338 -0.056,0.0906667 -0.085333,0.20000003 -0.026667,0.10666668 -0.026667,0.20533336 0,0.0773333 0.016,0.14400001 0.016,0.064 0.050667,0.11200002 0.037333,0.048 0.096,0.0773333 0.058667,0.0266667 0.144,0.0266667 0.136,0 0.2213334,-0.072 0.088,-0.0746667 0.1253333,-0.20000002 h 0.3040001 q -0.074667,0.2666667 -0.2533334,0.38933338 -0.176,0.12266668 -0.448,0.12266668 -0.1360001,0 -0.2400001,-0.04266667 -0.104,-0.04266668 -0.176,-0.12000002 -0.069333,-0.08 -0.1066667,-0.18666669 -0.037333,-0.10933334 -0.037333,-0.24000003 0,-0.17333335 0.053333,-0.3306667 0.053333,-0.15733333 0.1546667,-0.27466673 0.1013334,-0.12 0.2453334,-0.1893333 0.1466667,-0.069333 0.3306667,-0.069333 0.1146667,0 0.216,0.032 0.1013333,0.032 0.176,0.093333 0.077333,0.061333 0.1173334,0.1546667 0.042667,0.093333 0.04,0.21333332 z" style="font-style:italic" id="path213"/>
        <path d="m 7.9626541,-0.62933341 q -0.010667,0.22133336 0.1093334,0.31200004 0.12,0.0906667 0.328,0.0906667 0.066667,0 0.1413333,-0.016 0.077333,-0.016 0.1386667,-0.0506667 0.061333,-0.0373333 0.1013334,-0.096 0.042667,-0.0586667 0.042667,-0.14133335 0,-0.08 -0.04,-0.13333335 -0.037333,-0.0533333 -0.1013333,-0.088 -0.061333,-0.0373333 -0.144,-0.0613333 -0.082667,-0.0266667 -0.1706667,-0.0506667 -0.064,-0.016 -0.152,-0.0453333 -0.088,-0.0293333 -0.1706667,-0.0826667 -0.082667,-0.0533334 -0.1413334,-0.14133338 -0.056,-0.088 -0.056,-0.224 0,-0.128 0.048,-0.2373334 0.048,-0.1093333 0.1386667,-0.1866666 0.090667,-0.08 0.2213334,-0.1226667 0.1333333,-0.045333 0.3013334,-0.045333 0.1493333,0 0.28,0.032 0.1306667,0.032 0.2266667,0.1040001 0.096,0.072 0.1493333,0.1893333 0.053333,0.1146667 0.048,0.2826667 h -0.32 q -0.00267,-0.1786667 -0.098667,-0.256 -0.096,-0.08 -0.2906667,-0.08 -0.034667,0 -0.096,0.008 -0.061333,0.008 -0.1226667,0.037333 -0.061333,0.029333 -0.1066667,0.085333 -0.045333,0.053333 -0.045333,0.1493334 0,0.069333 0.032,0.1173333 0.032,0.045333 0.085333,0.077333 0.056,0.029333 0.128,0.050667 0.072,0.021333 0.152,0.04 0.1013333,0.026667 0.2026667,0.058667 0.104,0.029333 0.1866667,0.088 0.085333,0.0586667 0.136,0.15200002 0.053333,0.0933333 0.053333,0.2426667 0,0.11200001 -0.042667,0.22133336 -0.042667,0.10933334 -0.1386667,0.19733335 Q 8.8826542,-0.06400001 8.7306542,-0.008 8.5813209,0.04533334 8.3653208,0.04533334 q -0.168,0 -0.304,-0.04000001 -0.136,-0.03733333 -0.232,-0.11733334 -0.093333,-0.0826667 -0.1440001,-0.2106667 -0.048,-0.12800001 -0.042667,-0.3066667 z" style="font-style:italic" id="path215"/>
        <path d="m 10.506651,0 h -0.285333 l 0.04267,-0.20000002 -0.0053,-0.005333 q -0.08267,0.11466668 -0.208,0.17866669 -0.1226667,0.06400001 -0.2666667,0.06400001 -0.208,0 -0.3066667,-0.09866668 -0.096,-0.09866668 -0.096,-0.2666667 0,-0.0373333 0.00267,-0.0853333 0.00267,-0.048 0.010667,-0.0853334 l 0.184,-0.88000007 H 9.882651 l -0.1760001,0.85066674 q -0.008,0.0346667 -0.016,0.0666667 -0.00533,0.032 -0.00533,0.0613333 0,0.016 0,0.0506667 0.00267,0.032 0.021333,0.0666667 0.018667,0.032 0.061333,0.056 0.042667,0.024 0.128,0.024 0.088,0 0.1599997,-0.0373333 0.07467,-0.04 0.130667,-0.10133334 0.056,-0.0613333 0.09333,-0.13600002 0.03733,-0.0773333 0.05333,-0.15466669 l 0.154666,-0.74666672 h 0.304 z" style="font-style:italic" id="path217"/>
        <path d="m 11.269316,-0.5573334 q 0,0.0746667 0.016,0.13866668 0.01867,0.064 0.05333,0.11200002 0.03733,0.048 0.096,0.0773333 0.05867,0.0266667 0.138666,0.0266667 0.122667,0 0.210667,-0.0533333 0.09067,-0.056 0.146667,-0.14400002 0.05867,-0.088 0.08533,-0.19733335 0.02933,-0.10933335 0.02933,-0.2186667 0,-0.0746667 -0.01867,-0.13866668 -0.016,-0.0666667 -0.05333,-0.11466672 -0.03733,-0.050667 -0.096,-0.077333 -0.056,-0.029333 -0.136,-0.029333 -0.122666,0 -0.213333,0.056 -0.088,0.056 -0.146667,0.14666665 -0.056,0.088 -0.08533,0.20000002 -0.02667,0.10933335 -0.02667,0.21600003 z m -0.144,-0.8213334 h 0.301334 l -0.04,0.176 0.0053,0.00533 q 0.072,-0.104 0.189333,-0.16 0.117334,-0.058667 0.245334,-0.058667 0.128,0 0.226666,0.042667 0.09867,0.042667 0.162667,0.12 0.06667,0.074667 0.09867,0.1813334 0.03467,0.10399998 0.03467,0.22666667 0,0.15733335 -0.04267,0.31733337 -0.04267,0.15733335 -0.130667,0.2826667 -0.088,0.12533335 -0.221333,0.20533336 -0.133334,0.07733334 -0.312,0.07733334 -0.152,0 -0.269334,-0.05066667 -0.117333,-0.05333334 -0.181333,-0.20000003 h -0.0053 l -0.149334,0.72266675 h -0.304 z" style="font-style:italic" id="path219"/>
        <path d="m 12.898645,-0.5573334 q 0,0.0746667 0.016,0.13866668 0.01867,0.064 0.05333,0.11200002 0.03733,0.048 0.096,0.0773333 0.05867,0.0266667 0.138667,0.0266667 0.122667,0 0.210667,-0.0533333 0.09067,-0.056 0.146666,-0.14400002 0.05867,-0.088 0.08533,-0.19733335 0.02933,-0.10933335 0.02933,-0.2186667 0,-0.0746667 -0.01867,-0.13866668 -0.016,-0.0666667 -0.05333,-0.11466672 -0.03733,-0.050667 -0.096,-0.077333 -0.056,-0.029333 -0.136,-0.029333 -0.122667,0 -0.213333,0.056 -0.088,0.056 -0.146667,0.14666665 -0.056,0.088 -0.08533,0.20000002 -0.02667,0.10933335 -0.02667,0.21600003 z m -0.144,-0.8213334 h 0.301333 l -0.04,0.176 0.0053,0.00533 q 0.072,-0.104 0.189333,-0.16 0.117333,-0.058667 0.245333,-0.058667 0.128,0 0.226667,0.042667 0.09867,0.042667 0.162667,0.12 0.06667,0.074667 0.09867,0.1813334 0.03467,0.10399998 0.03467,0.22666667 0,0.15733335 -0.04267,0.31733337 -0.04267,0.15733335 -0.130667,0.2826667 -0.088,0.12533335 -0.221334,0.20533336 -0.133333,0.07733334 -0.312,0.07733334 -0.152,0 -0.269333,-0.05066667 -0.117333,-0.05333334 -0.181333,-0.20000003 h -0.0053 l -0.149333,0.72266675 h -0.304 z" style="font-style:italic" id="path221"/>
        <path d="m 14.925307,-1.1760001 q -0.117333,0 -0.205333,0.058667 -0.08533,0.058667 -0.144,0.14933338 -0.05867,0.088 -0.088,0.19733336 -0.02667,0.10933335 -0.02667,0.21333336 0,0.15200002 0.07467,0.25333336 0.07733,0.10133335 0.242666,0.10133335 0.117334,0 0.202667,-0.056 0.088,-0.0586667 0.146667,-0.14666668 0.05867,-0.0906667 0.08533,-0.20000003 0.02933,-0.11200001 0.02933,-0.21600002 0,-0.15200002 -0.07733,-0.25333337 -0.07467,-0.1013333 -0.24,-0.1013333 z m -0.165333,1.21333344 q -0.285334,0 -0.445334,-0.15466669 -0.157333,-0.15733335 -0.157333,-0.44800005 0,-0.17066669 0.056,-0.32266671 0.056,-0.15466669 0.157333,-0.27199999 0.104,-0.1173334 0.248,-0.1866667 0.146667,-0.069333 0.325334,-0.069333 0.285333,0 0.442667,0.152 0.16,0.1493334 0.16,0.4400001 0,0.18133336 -0.05333,0.33866671 -0.05333,0.15733335 -0.157333,0.2746667 -0.101333,0.11466668 -0.248,0.18133335 -0.144,0.06666668 -0.328,0.06666668 z" style="font-style:italic" id="path223"/>
        <path d="m 15.95997,-1.3786668 h 0.288 l -0.056,0.2693333 0.0053,0.00533 q 0.032,-0.056 0.07733,-0.112 0.04533,-0.056 0.101334,-0.098667 0.05867,-0.045333 0.125333,-0.072 0.06667,-0.029333 0.136,-0.029333 0.03733,0 0.072,0.00267 0.03733,0 0.07467,0.00533 l -0.064,0.2906667 q -0.02667,-0.00533 -0.05333,-0.008 -0.02667,-0.00267 -0.05333,-0.00267 -0.117333,0 -0.205333,0.042667 -0.08533,0.04 -0.146667,0.11200005 -0.05867,0.072 -0.096,0.16533335 -0.03733,0.0933333 -0.05867,0.19733336 L 15.978636,0 h -0.304 z" style="font-style:italic" id="path225"/>
        <path d="m 17.1173,-1.7920002 h 0.296 l -0.08533,0.4133334 h 0.274667 l -0.048,0.2266667 h -0.274667 l -0.141333,0.67466671 q -0.01067,0.0453333 -0.01867,0.0853333 -0.008,0.04 -0.008,0.064 0,0.0453333 0.01867,0.0746667 0.02133,0.0266667 0.09067,0.0266667 0.03467,0 0.07467,0 0.04267,-0.002667 0.088,-0.0133333 L 17.3333,-0.016 q -0.05867,0.01333333 -0.125333,0.02133333 -0.06667,0.008 -0.125333,0.008 -0.08267,0 -0.136,-0.02133333 -0.05333,-0.02133334 -0.08533,-0.05600001 -0.02933,-0.03733334 -0.04267,-0.08266667 -0.01067,-0.048 -0.01067,-0.096 0,-0.04 0.0053,-0.088 0.008,-0.048 0.01333,-0.0666667 l 0.157333,-0.75466672 h -0.24 l 0.048,-0.2266667 h 0.24 z" style="font-style:italic" id="path227"/>
        <path d="m 18.727961,-1.9040002 h 0.458667 l 0.208,1.45066681 h 0.0053 l 0.826667,-1.45066681 h 0.472 L 20.306628,0 h -0.32 l 0.330667,-1.5253335 h -0.0053 L 19.450628,0 h -0.261333 l -0.24,-1.5253335 h -0.0053 L 18.653295,0 h -0.32 z" style="font-style:italic" id="path229"/>
        <path d="m 20.973296,-0.37866671 q 0,0.0506667 0.02133,0.0853333 0.024,0.032 0.05867,0.0533333 0.03467,0.0186667 0.07733,0.0293333 0.04267,0.008 0.08533,0.008 0.112,0 0.186667,-0.0373333 0.07733,-0.0373333 0.125333,-0.10133334 0.05067,-0.064 0.07733,-0.14933336 0.02933,-0.088 0.04533,-0.18666668 l -0.0053,-0.005333 q -0.032,0.032 -0.08533,0.0453333 -0.05333,0.0133333 -0.104,0.0186667 -0.064,0.005333 -0.149333,0.0106667 -0.08267,0.005333 -0.157334,0.0293333 -0.072,0.0213333 -0.125333,0.0693333 -0.05067,0.0453333 -0.05067,0.13066668 z m 0.914667,-0.0213333 q -0.008,0.0373333 -0.01867,0.072 -0.008,0.0346667 -0.008,0.064 0,0.0293333 0.01333,0.0453333 0.01333,0.016 0.05067,0.016 0.02667,0 0.05333,-0.005333 0.02667,-0.008 0.05333,-0.0106667 L 21.983963,0 q -0.05867,0.01333333 -0.117333,0.024 -0.05867,0.01333334 -0.12,0.01333334 -0.07733,0 -0.128,-0.04800001 -0.05067,-0.048 -0.056,-0.12800001 -0.09067,0.09066667 -0.213333,0.13333335 -0.122667,0.04266667 -0.250667,0.04266667 -0.08533,0 -0.162667,-0.02400001 -0.07733,-0.024 -0.138667,-0.06933334 -0.05867,-0.04533334 -0.09333,-0.11466668 -0.03467,-0.0693333 -0.03467,-0.16000002 0,-0.12800001 0.048,-0.21333335 0.048,-0.088 0.128,-0.14400002 0.08,-0.056 0.184,-0.0826667 0.104,-0.0266667 0.218667,-0.0346667 0.07733,-0.005333 0.152,-0.0106667 0.07733,-0.008 0.152,-0.0133333 0.08267,-0.005333 0.12,-0.0533333 0.04,-0.0506667 0.04,-0.12800003 0,-0.098667 -0.06933,-0.1306667 -0.06933,-0.034667 -0.162667,-0.034667 -0.125333,0 -0.218666,0.045333 -0.09333,0.042667 -0.125334,0.17066669 h -0.288 q 0.024,-0.12799999 0.08267,-0.21333339 0.05867,-0.088 0.144,-0.1413333 0.08533,-0.056 0.192,-0.077333 0.109333,-0.024 0.232,-0.024 0.186667,0 0.290667,0.037333 0.106666,0.034667 0.154666,0.085333 0.05067,0.050667 0.06133,0.1066667 0.01067,0.053333 0.01067,0.090667 0,0.085333 -0.02667,0.20799999 z" style="font-style:italic" id="path231"/>
        <path d="m 22.429296,-1.3786668 h 0.285333 l -0.04267,0.2 0.0053,0.00533 q 0.08267,-0.1146667 0.205333,-0.1786667 0.125334,-0.064 0.269334,-0.064 0.208,0 0.304,0.098667 0.09867,0.098667 0.09867,0.2666667 0,0.037333 -0.0027,0.0853333 -0.0027,0.048 -0.01067,0.0853334 L 23.357296,0 h -0.304 l 0.176,-0.85066677 q 0.008,-0.0346667 0.01333,-0.0666667 0.008,-0.032 0.008,-0.0613333 0,-0.016 -0.0027,-0.048 0,-0.034667 -0.01867,-0.066667 -0.01867,-0.034667 -0.064,-0.058667 -0.04267,-0.024 -0.125333,-0.024 -0.09067,0 -0.162667,0.04 -0.06933,0.037333 -0.125333,0.093333 -0.05333,0.0533333 -0.09333,0.13333336 -0.03733,0.0773333 -0.056,0.16266668 L 22.447962,0 h -0.304 z" style="font-style:italic" id="path233"/>
        <path d="m 23.986627,-0.37866671 q 0,0.0506667 0.02133,0.0853333 0.024,0.032 0.05867,0.0533333 0.03467,0.0186667 0.07733,0.0293333 0.04267,0.008 0.08533,0.008 0.112,0 0.186666,-0.0373333 0.07733,-0.0373333 0.125334,-0.10133334 0.05067,-0.064 0.07733,-0.14933336 0.02933,-0.088 0.04533,-0.18666668 l -0.0053,-0.005333 q -0.032,0.032 -0.08533,0.0453333 -0.05333,0.0133333 -0.104,0.0186667 -0.064,0.005333 -0.149334,0.0106667 -0.08267,0.005333 -0.157333,0.0293333 -0.072,0.0213333 -0.125333,0.0693333 -0.05067,0.0453333 -0.05067,0.13066668 z m 0.914667,-0.0213333 q -0.008,0.0373333 -0.01867,0.072 -0.008,0.0346667 -0.008,0.064 0,0.0293333 0.01333,0.0453333 0.01333,0.016 0.05067,0.016 0.02667,0 0.05333,-0.005333 0.02667,-0.008 0.05333,-0.0106667 L 24.997294,0 q -0.05867,0.01333333 -0.117334,0.024 -0.05867,0.01333334 -0.12,0.01333334 -0.07733,0 -0.128,-0.04800001 -0.05067,-0.048 -0.056,-0.12800001 -0.09067,0.09066667 -0.213333,0.13333335 -0.122667,0.04266667 -0.250667,0.04266667 -0.08533,0 -0.162666,-0.02400001 -0.07733,-0.024 -0.138667,-0.06933334 -0.05867,-0.04533334 -0.09333,-0.11466668 -0.03467,-0.0693333 -0.03467,-0.16000002 0,-0.12800001 0.048,-0.21333335 0.048,-0.088 0.128,-0.14400002 0.08,-0.056 0.184,-0.0826667 0.104,-0.0266667 0.218667,-0.0346667 0.07733,-0.005333 0.152,-0.0106667 0.07733,-0.008 0.152,-0.0133333 0.08267,-0.005333 0.12,-0.0533333 0.04,-0.0506667 0.04,-0.12800003 0,-0.098667 -0.06933,-0.1306667 -0.06933,-0.034667 -0.162666,-0.034667 -0.125334,0 -0.218667,0.045333 -0.09333,0.042667 -0.125333,0.17066669 h -0.288 q 0.024,-0.12799999 0.08267,-0.21333339 0.05867,-0.088 0.144,-0.1413333 0.08533,-0.056 0.192,-0.077333 0.109334,-0.024 0.232,-0.024 0.186667,0 0.290667,0.037333 0.106667,0.034667 0.154667,0.085333 0.05067,0.050667 0.06133,0.1066667 0.01067,0.053333 0.01067,0.090667 0,0.085333 -0.02667,0.20799999 z" style="font-style:italic" id="path235"/>
        <path d="m 25.54396,-0.5813334 q 0,0.0693333 0.016,0.13333335 0.016,0.0613333 0.05067,0.10933334 0.03467,0.0453333 0.088,0.072 0.056,0.0266667 0.133334,0.0266667 0.122666,0 0.208,-0.056 0.088,-0.056 0.144,-0.14400001 0.056,-0.088 0.08,-0.19733336 0.02667,-0.10933335 0.02667,-0.21333336 0,-0.14933333 -0.07733,-0.23733333 -0.07733,-0.088 -0.229333,-0.088 -0.112,0 -0.194667,0.058667 -0.08267,0.056 -0.138667,0.14400005 -0.05333,0.088 -0.08,0.19466669 -0.02667,0.10400001 -0.02667,0.19733336 z m 0.877333,0.54400006 q -0.03467,0.15733335 -0.088,0.26933337 -0.05067,0.11200001 -0.133333,0.18133335 -0.08,0.0693333 -0.197334,0.10133335 -0.114666,0.032 -0.277333,0.032 -0.114667,0 -0.221333,-0.024 -0.106667,-0.024 -0.189334,-0.0773333 -0.08,-0.0506667 -0.128,-0.13600002 -0.05067,-0.0826667 -0.05333,-0.20266669 h 0.304 q 0.0053,0.11733335 0.09333,0.16533335 0.09067,0.048 0.221334,0.048 0.101333,0 0.168,-0.0293333 0.06667,-0.0293333 0.109333,-0.08 0.04533,-0.0506667 0.06933,-0.12266668 0.024,-0.06933334 0.04267,-0.15466668 l 0.02933,-0.13600002 -0.0053,-0.005333 q -0.06933,0.10133334 -0.168,0.15466668 Q 25.898626,0 25.77596,0 25.517293,0 25.378626,-0.15200002 25.23996,-0.30400004 25.23996,-0.5653334 q 0,-0.15466669 0.04533,-0.3066667 0.048,-0.1546667 0.136,-0.2746667 0.09067,-0.12 0.224,-0.1946667 0.133333,-0.074667 0.306667,-0.074667 0.149333,0 0.258666,0.061333 0.112,0.061333 0.168,0.2053333 h 0.0053 l 0.04,-0.2293333 h 0.288 z" style="font-style:italic" id="path237"/>
        <path d="m 27.842622,-0.81066676 q 0.0027,-0.024 0.0027,-0.0426667 0,-0.0213333 0,-0.0426667 0,-0.12266669 -0.07733,-0.19999999 -0.07733,-0.08 -0.213334,-0.08 -0.170666,0 -0.272,0.104 -0.101333,0.10133332 -0.146666,0.26133334 z m 0.221334,0.38400004 q -0.072,0.2426667 -0.245334,0.35466671 -0.170666,0.10933335 -0.418666,0.10933335 -0.130667,0 -0.242667,-0.04000001 -0.109333,-0.04266667 -0.189333,-0.12000001 -0.08,-0.08 -0.125334,-0.18933336 -0.04533,-0.11200001 -0.04533,-0.25333336 0,-0.16000002 0.05067,-0.31200004 0.05067,-0.15200006 0.146666,-0.27200006 0.09867,-0.12 0.24,-0.192 0.144,-0.074667 0.328,-0.074667 0.184,0 0.298667,0.061333 0.114667,0.061333 0.178667,0.1546667 0.064,0.093333 0.08533,0.20533331 0.024,0.11200002 0.024,0.21333336 0,0.0506667 -0.0053,0.0933333 -0.0053,0.0426667 -0.01067,0.0773333 h -1.026667 q -0.0053,0.024 -0.0053,0.0453333 0,0.0213333 0,0.0426667 0,0.14400002 0.07733,0.23200003 0.07733,0.088 0.250667,0.088 0.122667,0 0.210667,-0.056 0.088,-0.0586667 0.12,-0.16800002 z" style="font-style:italic" id="path239"/>
        <path d="m 28.506622,-1.3786668 h 0.288 l -0.056,0.2693333 0.0053,0.00533 q 0.032,-0.056 0.07733,-0.112 0.04533,-0.056 0.101334,-0.098667 0.05867,-0.045333 0.125333,-0.072 0.06667,-0.029333 0.136,-0.029333 0.03733,0 0.072,0.00267 0.03733,0 0.07467,0.00533 l -0.064,0.2906667 q -0.02667,-0.00533 -0.05333,-0.008 -0.02667,-0.00267 -0.05333,-0.00267 -0.117333,0 -0.205333,0.042667 -0.08533,0.04 -0.146667,0.11200005 -0.05867,0.072 -0.096,0.16533335 -0.03733,0.0933333 -0.05867,0.19733336 L 28.525288,0 h -0.304 z" style="font-style:italic" id="path241"/>
      </g>
    </g>
  </g>
</svg>
