<svg xmlns="http://www.w3.org/2000/svg" xmlns:svg="http://www.w3.org/2000/svg" viewBox="-0.35 -0.35 140.7 40.7" width="804px" height="232.571429px" version="1.1" id="svg16">
  <defs id="defs20"/>
  <g id="g14">
    <path d="m 84,20.428 h 24.68595 a 4,4 90 0 0 4,-4 v -0.856 a 4,4 90 0 0 -4,-4 h -77.3719 a 4,4 90 0 0 -4,4 v 0.856 a 4,4 90 0 0 4,4 H 70 a 8,8 90 0 1 8,8" fill="none" stroke="#00aa00" stroke-width="0.2" id="path2"/>
    <g font-family="'HelveticaNeueLT Com 65 Md'" font-size="4px" fill="#000000" transform="translate(0,14.572)" id="g6">
      <g aria-label="I really didn't like Shay when I first met him." transform="translate(30.01005,2.856)" id="text4">
        <path d="m 0.304,-2.856 h 0.5 V 0 h -0.5 z" id="path22"/>
        <path d="m 2.463999,-2.068 h 0.428 v 0.4 h 0.008 q 0.02,-0.084 0.076,-0.164 0.06,-0.08 0.14,-0.144 0.084,-0.068 0.184,-0.108 0.1,-0.04 0.204,-0.04 0.08,0 0.108,0.004 0.032,0.004 0.064,0.008 v 0.44 q -0.048,-0.008 -0.1,-0.012 -0.048,-0.008 -0.096,-0.008 -0.116,0 -0.22,0.048 -0.1,0.044 -0.176,0.136 -0.076,0.088 -0.12,0.22 -0.044,0.132 -0.044,0.304 V 0 h -0.456 z" id="path24"/>
        <path d="m 5.2199899,-1.216 q -0.008,-0.108 -0.048,-0.208 -0.036,-0.1 -0.104,-0.172 -0.064,-0.076 -0.16,-0.12 -0.092,-0.048 -0.208,-0.048 -0.12,0 -0.22,0.044 -0.096,0.04 -0.168,0.116 -0.068,0.072 -0.112,0.172 -0.04,0.1 -0.044,0.216 z m -1.064,0.3 q 0,0.12 0.032,0.232 0.036,0.112 0.104,0.196 0.068,0.084 0.172,0.136 0.104,0.048 0.248,0.048 0.2,0 0.32,-0.084 0.124,-0.088 0.184,-0.26 h 0.432 q -0.036,0.168 -0.124,0.3 -0.088,0.132 -0.212,0.224 -0.124,0.088 -0.28,0.132 -0.152,0.048 -0.32,0.048 -0.244,0 -0.432,-0.08 -0.188,-0.08 -0.32,-0.224 -0.128,-0.144 -0.196,-0.344 -0.064,-0.2 -0.064,-0.44 0,-0.22 0.068,-0.416 0.072,-0.2 0.2,-0.348 0.132,-0.152 0.316,-0.24 0.184,-0.088 0.416,-0.088 0.244,0 0.436,0.104 0.196,0.1 0.324,0.268 0.128,0.168 0.184,0.388 0.06,0.216 0.032,0.448 z" id="path26"/>
        <path d="m 7.755989,-0.46 q 0,0.084 0.02,0.12 0.024,0.036 0.088,0.036 0.02,0 0.048,0 0.028,0 0.064,-0.008 v 0.316 q -0.024,0.008 -0.064,0.016 -0.036,0.012 -0.076,0.02 -0.04,0.008 -0.08,0.012 -0.04,0.004 -0.068,0.004 -0.14,0 -0.232,-0.056 -0.092,-0.056 -0.12,-0.196 -0.136,0.132 -0.336,0.192 -0.196,0.06 -0.38,0.06 -0.14,0 -0.268,-0.04 -0.128,-0.036 -0.228,-0.108 -0.096,-0.076 -0.156,-0.188 -0.056,-0.116 -0.056,-0.268 0,-0.192 0.068,-0.312 0.072,-0.12 0.184,-0.188 0.116,-0.068 0.256,-0.096 0.144,-0.032 0.288,-0.048 0.124,-0.024 0.236,-0.032 0.112,-0.012 0.196,-0.036 0.088,-0.024 0.136,-0.072 0.052,-0.052 0.052,-0.152 0,-0.088 -0.044,-0.144 -0.04,-0.056 -0.104,-0.084 -0.06,-0.032 -0.136,-0.04 -0.076,-0.012 -0.144,-0.012 -0.192,0 -0.316,0.08 -0.124,0.08 -0.14,0.248 h -0.456 q 0.012,-0.2 0.096,-0.332 0.084,-0.132 0.212,-0.212 0.132,-0.08 0.296,-0.112 0.164,-0.032 0.336,-0.032 0.152,0 0.3,0.032 0.148,0.032 0.264,0.104 0.12,0.072 0.192,0.188 0.072,0.112 0.072,0.276 z m -0.456,-0.576 q -0.104,0.068 -0.256,0.084 -0.152,0.012 -0.304,0.04 -0.072,0.012 -0.14,0.036 -0.068,0.02 -0.12,0.06 -0.052,0.036 -0.084,0.1 -0.028,0.06 -0.028,0.148 0,0.076 0.044,0.128 0.044,0.052 0.104,0.084 0.064,0.028 0.136,0.04 0.076,0.012 0.136,0.012 0.076,0 0.164,-0.02 0.088,-0.02 0.164,-0.068 0.08,-0.048 0.132,-0.12 0.052,-0.076 0.052,-0.184 z" id="path28"/>
        <path d="m 8.259988,-2.856 h 0.456 V 0 h -0.456 z" id="path30"/>
        <path d="m 9.2239849,-2.856 h 0.456 V 0 h -0.456 z" id="path32"/>
        <path d="m 9.9479818,-2.068 h 0.5000002 l 0.54,1.544 h 0.008 l 0.524,-1.544 h 0.476 l -0.804,2.18 q -0.056,0.14 -0.112,0.268 -0.052,0.128 -0.132,0.224 -0.076,0.1 -0.192,0.156 -0.116,0.06 -0.296,0.06 -0.16,0 -0.316,-0.024 V 0.412 q 0.056,0.008 0.108,0.016 0.052,0.012 0.108,0.012 0.08,0 0.132,-0.02 0.052,-0.02 0.084,-0.06 0.036,-0.036 0.06,-0.088 0.024,-0.052 0.044,-0.12 l 0.052,-0.16 z" id="path34"/>
        <path d="m 15.311978,0 h -0.432 v -0.28 h -0.008 q -0.092,0.18 -0.268,0.26 -0.176,0.076 -0.372,0.076 -0.244,0 -0.428,-0.084 -0.18,-0.088 -0.3,-0.236 -0.12,-0.148 -0.18,-0.348 -0.06,-0.204 -0.06,-0.436 0,-0.28 0.076,-0.484 0.076,-0.204 0.2,-0.336 0.128,-0.132 0.288,-0.192 0.164,-0.064 0.332,-0.064 0.096,0 0.196,0.02 0.1,0.016 0.192,0.056 0.092,0.04 0.168,0.104 0.08,0.06 0.132,0.144 h 0.008 v -1.056 h 0.456 z m -1.592,-1.012 q 0,0.132 0.032,0.26 0.036,0.128 0.104,0.228 0.072,0.1 0.18,0.16 0.108,0.06 0.256,0.06 0.152,0 0.26,-0.064 0.112,-0.064 0.18,-0.168 0.072,-0.104 0.104,-0.232 0.036,-0.132 0.036,-0.268 0,-0.344 -0.156,-0.536 -0.152,-0.192 -0.416,-0.192 -0.16,0 -0.272,0.068 -0.108,0.064 -0.18,0.172 -0.068,0.104 -0.1,0.24 -0.028,0.132 -0.028,0.272 z" id="path36"/>
        <path d="m 15.81997,-2.856 h 0.456 v 0.432 h -0.456 z m 0,0.788 h 0.456 V 0 h -0.456 z" id="path38"/>
        <path d="m 18.719967,0 h -0.432 v -0.28 h -0.008 q -0.092,0.18 -0.268,0.26 -0.176,0.076 -0.372,0.076 -0.244,0 -0.428,-0.084 -0.18,-0.088 -0.3,-0.236 -0.12,-0.148 -0.18,-0.348 -0.06,-0.204 -0.06,-0.436 0,-0.28 0.076,-0.484 0.076,-0.204 0.2,-0.336 0.128,-0.132 0.288,-0.192 0.164,-0.064 0.332,-0.064 0.096,0 0.196,0.02 0.1,0.016 0.192,0.056 0.092,0.04 0.168,0.104 0.08,0.06 0.132,0.144 h 0.008 v -1.056 h 0.456 z m -1.592,-1.012 q 0,0.132 0.032,0.26 0.036,0.128 0.104,0.228 0.072,0.1 0.18,0.16 0.108,0.06 0.256,0.06 0.152,0 0.26,-0.064 0.112,-0.064 0.18,-0.168 0.072,-0.104 0.104,-0.232 0.036,-0.132 0.036,-0.268 0,-0.344 -0.156,-0.536 -0.152,-0.192 -0.416,-0.192 -0.16,0 -0.272,0.068 -0.108,0.064 -0.18,0.172 -0.068,0.104 -0.1,0.24 -0.028,0.132 -0.028,0.272 z" id="path40"/>
        <path d="m 19.21596,-2.068 h 0.432 v 0.304 l 0.008,0.008 q 0.104,-0.172 0.272,-0.268 0.168,-0.1 0.372,-0.1 0.34,0 0.536,0.176 0.196,0.176 0.196,0.528 V 0 h -0.456 v -1.3 q -0.008,-0.244 -0.104,-0.352 -0.096,-0.112 -0.3,-0.112 -0.116,0 -0.208,0.044 -0.092,0.04 -0.156,0.116 -0.064,0.072 -0.1,0.172 -0.036,0.1 -0.036,0.212 V 0 h -0.456 z" id="path42"/>
        <path d="m 21.623957,-2.856 h 0.408 v 1.128 h -0.408 z" id="path44"/>
        <path d="m 22.415957,-2.068 h 0.344 v -0.62 h 0.456 v 0.62 h 0.412 v 0.34 h -0.412 v 1.104 q 0,0.072 0.004,0.124 0.008,0.052 0.028,0.088 0.024,0.036 0.068,0.056 0.044,0.016 0.12,0.016 0.048,0 0.096,0 0.048,-0.004 0.096,-0.016 v 0.352 q -0.076,0.008 -0.148,0.016 -0.072,0.008 -0.148,0.008 -0.18,0 -0.292,-0.032 -0.108,-0.036 -0.172,-0.1 -0.06,-0.068 -0.084,-0.168 -0.02,-0.1 -0.024,-0.228 v -1.22 h -0.344 z" id="path46"/>
        <path d="m 25.07995,-2.856 h 0.456 V 0 h -0.456 z" id="path48"/>
        <path d="m 26.043946,-2.856 h 0.456 v 0.432 h -0.456 z m 0,0.788 h 0.456 V 0 h -0.456 z" id="path50"/>
        <path d="m 27.007943,-2.856 h 0.456 v 1.624 l 0.824,-0.836 h 0.56 l -0.792,0.76 0.868,1.308 h -0.556 l -0.632,-1.004 -0.272,0.264 V 0 h -0.456 z" id="path52"/>
        <path d="m 30.563938,-1.216 q -0.008,-0.108 -0.048,-0.208 -0.036,-0.1 -0.104,-0.172 -0.064,-0.076 -0.16,-0.12 -0.092,-0.048 -0.208,-0.048 -0.12,0 -0.22,0.044 -0.096,0.04 -0.168,0.116 -0.068,0.072 -0.112,0.172 -0.04,0.1 -0.044,0.216 z m -1.064,0.3 q 0,0.12 0.032,0.232 0.036,0.112 0.104,0.196 0.068,0.084 0.172,0.136 0.104,0.048 0.248,0.048 0.2,0 0.32,-0.084 0.124,-0.088 0.184,-0.26 h 0.432 q -0.036,0.168 -0.124,0.3 -0.088,0.132 -0.212,0.224 -0.124,0.088 -0.28,0.132 -0.152,0.048 -0.32,0.048 -0.244,0 -0.432,-0.08 -0.188,-0.08 -0.32,-0.224 -0.128,-0.144 -0.196,-0.344 -0.064,-0.2 -0.064,-0.44 0,-0.22 0.068,-0.416 0.072,-0.2 0.2,-0.348 0.132,-0.152 0.316,-0.24 0.184,-0.088 0.416,-0.088 0.244,0 0.436,0.104 0.196,0.1 0.324,0.268 0.128,0.168 0.184,0.388 0.06,0.216 0.032,0.448 z" id="path54"/>
        <path d="m 32.871937,-0.952 q 0,0.164 0.056,0.28 0.056,0.116 0.156,0.192 0.1,0.072 0.228,0.108 0.132,0.032 0.284,0.032 0.164,0 0.28,-0.036 0.116,-0.04 0.188,-0.1 0.072,-0.06 0.104,-0.136 0.032,-0.08 0.032,-0.16 0,-0.164 -0.076,-0.24 -0.072,-0.08 -0.16,-0.112 -0.152,-0.056 -0.356,-0.104 -0.2,-0.052 -0.496,-0.132 -0.184,-0.048 -0.308,-0.124 -0.12,-0.08 -0.192,-0.176 -0.072,-0.096 -0.104,-0.204 -0.028,-0.108 -0.028,-0.22 0,-0.216 0.088,-0.372 0.092,-0.16 0.24,-0.264 0.148,-0.104 0.336,-0.152 0.188,-0.052 0.38,-0.052 0.224,0 0.42,0.06 0.2,0.056 0.348,0.172 0.152,0.116 0.24,0.288 0.088,0.168 0.088,0.392 h -0.5 q -0.02,-0.276 -0.188,-0.388 -0.168,-0.116 -0.428,-0.116 -0.088,0 -0.18,0.02 -0.092,0.016 -0.168,0.06 -0.076,0.04 -0.128,0.112 -0.048,0.072 -0.048,0.18 0,0.152 0.092,0.24 0.096,0.084 0.248,0.128 0.016,0.004 0.124,0.036 0.112,0.028 0.248,0.064 0.136,0.036 0.264,0.072 0.132,0.032 0.188,0.048 0.14,0.044 0.244,0.12 0.104,0.076 0.172,0.176 0.072,0.096 0.104,0.208 0.036,0.112 0.036,0.224 0,0.24 -0.1,0.412 -0.096,0.168 -0.256,0.276 -0.16,0.108 -0.364,0.156 -0.204,0.052 -0.416,0.052 -0.244,0 -0.46,-0.06 -0.216,-0.06 -0.376,-0.184 -0.16,-0.124 -0.256,-0.316 -0.096,-0.196 -0.1,-0.46 z" id="path56"/>
        <path d="m 35.071932,-2.856 h 0.456 v 1.06 h 0.008 q 0.084,-0.14 0.248,-0.232 0.168,-0.096 0.372,-0.096 0.34,0 0.536,0.176 0.196,0.176 0.196,0.528 V 0 h -0.456 v -1.3 q -0.008,-0.244 -0.104,-0.352 -0.096,-0.112 -0.3,-0.112 -0.116,0 -0.208,0.044 -0.092,0.04 -0.156,0.116 -0.064,0.072 -0.1,0.172 -0.036,0.1 -0.036,0.212 V 0 h -0.456 z" id="path58"/>
        <path d="m 39.09993,-0.46 q 0,0.084 0.02,0.12 0.024,0.036 0.088,0.036 0.02,0 0.048,0 0.028,0 0.064,-0.008 v 0.316 q -0.024,0.008 -0.064,0.016 -0.036,0.012 -0.076,0.02 -0.04,0.008 -0.08,0.012 -0.04,0.004 -0.068,0.004 -0.14,0 -0.232,-0.056 -0.092,-0.056 -0.12,-0.196 -0.136,0.132 -0.336,0.192 -0.196,0.06 -0.38,0.06 -0.14,0 -0.268,-0.04 -0.128,-0.036 -0.228,-0.108 -0.096,-0.076 -0.156,-0.188 -0.056,-0.116 -0.056,-0.268 0,-0.192 0.068,-0.312 0.072,-0.12 0.184,-0.188 0.116,-0.068 0.256,-0.096 0.144,-0.032 0.288,-0.048 0.124,-0.024 0.236,-0.032 0.112,-0.012 0.196,-0.036 0.088,-0.024 0.136,-0.072 0.052,-0.052 0.052,-0.152 0,-0.088 -0.044,-0.144 -0.04,-0.056 -0.104,-0.084 -0.06,-0.032 -0.136,-0.04 -0.076,-0.012 -0.144,-0.012 -0.192,0 -0.316,0.08 -0.124,0.08 -0.14,0.248 h -0.456 q 0.012,-0.2 0.096,-0.332 0.084,-0.132 0.212,-0.212 0.132,-0.08 0.296,-0.112 0.164,-0.032 0.336,-0.032 0.152,0 0.3,0.032 0.148,0.032 0.264,0.104 0.12,0.072 0.192,0.188 0.072,0.112 0.072,0.276 z m -0.456,-0.576 q -0.104,0.068 -0.256,0.084 -0.152,0.012 -0.304,0.04 -0.072,0.012 -0.14,0.036 -0.068,0.02 -0.12,0.06 -0.052,0.036 -0.084,0.1 -0.028,0.06 -0.028,0.148 0,0.076 0.044,0.128 0.044,0.052 0.104,0.084 0.064,0.028 0.136,0.04 0.076,0.012 0.136,0.012 0.076,0 0.164,-0.02 0.088,-0.02 0.164,-0.068 0.08,-0.048 0.132,-0.12 0.052,-0.076 0.052,-0.184 z" id="path60"/>
        <path d="m 39.363929,-2.068 h 0.5 l 0.54,1.544 h 0.008 l 0.524,-1.544 h 0.476 l -0.804,2.18 q -0.056,0.14 -0.112,0.268 -0.052,0.128 -0.132,0.224 -0.076,0.1 -0.192,0.156 -0.116,0.06 -0.296,0.06 -0.16,0 -0.316,-0.024 V 0.412 q 0.056,0.008 0.108,0.016 0.052,0.012 0.108,0.012 0.08,0 0.132,-0.02 0.052,-0.02 0.084,-0.06 0.036,-0.036 0.06,-0.088 0.024,-0.052 0.044,-0.12 l 0.052,-0.16 z" id="path62"/>
        <path d="m 42.591925,-2.068 h 0.484 l 0.404,1.544 h 0.008 l 0.388,-1.544 h 0.46 l 0.372,1.544 h 0.008 l 0.42,-1.544 h 0.464 L 44.951925,0 h -0.468 l -0.384,-1.536 h -0.008 l -0.38,1.536 h -0.48 z" id="path64"/>
        <path d="m 45.891924,-2.856 h 0.456 v 1.06 h 0.008 q 0.084,-0.14 0.248,-0.232 0.168,-0.096 0.372,-0.096 0.34,0 0.536,0.176 0.196,0.176 0.196,0.528 V 0 h -0.456 v -1.3 q -0.008,-0.244 -0.104,-0.352 -0.096,-0.112 -0.3,-0.112 -0.116,0 -0.208,0.044 -0.092,0.04 -0.156,0.116 -0.064,0.072 -0.1,0.172 -0.036,0.1 -0.036,0.212 V 0 h -0.456 z" id="path66"/>
        <path d="m 49.607922,-1.216 q -0.008,-0.108 -0.048,-0.208 -0.036,-0.1 -0.104,-0.172 -0.064,-0.076 -0.16,-0.12 -0.092,-0.048 -0.208,-0.048 -0.12,0 -0.22,0.044 -0.096,0.04 -0.168,0.116 -0.068,0.072 -0.112,0.172 -0.04,0.1 -0.044,0.216 z m -1.064,0.3 q 0,0.12 0.032,0.232 0.036,0.112 0.104,0.196 0.068,0.084 0.172,0.136 0.104,0.048 0.248,0.048 0.2,0 0.32,-0.084 0.124,-0.088 0.184,-0.26 h 0.432 q -0.036,0.168 -0.124,0.3 -0.088,0.132 -0.212,0.224 -0.124,0.088 -0.28,0.132 -0.152,0.048 -0.32,0.048 -0.244,0 -0.432,-0.08 -0.188,-0.08 -0.32,-0.224 -0.128,-0.144 -0.196,-0.344 -0.064,-0.2 -0.064,-0.44 0,-0.22 0.068,-0.416 0.072,-0.2 0.2,-0.348 0.132,-0.152 0.316,-0.24 0.184,-0.088 0.416,-0.088 0.244,0 0.436,0.104 0.196,0.1 0.324,0.268 0.128,0.168 0.184,0.388 0.06,0.216 0.032,0.448 z" id="path68"/>
        <path d="m 50.411921,-2.068 h 0.432 v 0.304 l 0.008,0.008 q 0.104,-0.172 0.272,-0.268 0.168,-0.1 0.372,-0.1 0.34,0 0.536,0.176 0.196,0.176 0.196,0.528 V 0 h -0.456 v -1.3 q -0.008,-0.244 -0.104,-0.352 -0.096,-0.112 -0.3,-0.112 -0.116,0 -0.208,0.044 -0.092,0.04 -0.156,0.116 -0.064,0.072 -0.1,0.172 -0.036,0.1 -0.036,0.212 V 0 h -0.456 z" id="path70"/>
        <path d="m 53.883918,-2.856 h 0.5 V 0 h -0.5 z" id="path72"/>
        <path d="m 57.315917,-2.856 h 0.456 v 0.432 h -0.456 z m -1.476,0.788 h 0.34 V -2.24 q 0,-0.196 0.048,-0.316 0.048,-0.124 0.128,-0.188 0.08,-0.068 0.18,-0.088 0.104,-0.024 0.216,-0.024 0.22,0 0.32,0.028 v 0.356 q -0.044,-0.012 -0.096,-0.016 -0.048,-0.008 -0.116,-0.008 -0.092,0 -0.16,0.044 -0.064,0.044 -0.064,0.172 v 0.212 h 0.388 v 0.34 h -0.388 V 0 h -0.456 v -1.728 h -0.34 z m 1.476,0 h 0.456 V 0 h -0.456 z" id="path74"/>
        <path d="m 58.267916,-2.068 h 0.428 v 0.4 h 0.008 q 0.02,-0.084 0.076,-0.164 0.06,-0.08 0.14,-0.144 0.084,-0.068 0.184,-0.108 0.1,-0.04 0.204,-0.04 0.08,0 0.108,0.004 0.032,0.004 0.064,0.008 v 0.44 q -0.048,-0.008 -0.1,-0.012 -0.048,-0.008 -0.096,-0.008 -0.116,0 -0.22,0.048 -0.1,0.044 -0.176,0.136 -0.076,0.088 -0.12,0.22 -0.044,0.132 -0.044,0.304 V 0 h -0.456 z" id="path76"/>
        <path d="m 60.019913,-0.664 q 0.02,0.2 0.152,0.28 0.132,0.08 0.316,0.08 0.064,0 0.144,-0.008 0.084,-0.012 0.156,-0.04 0.072,-0.028 0.116,-0.08 0.048,-0.056 0.044,-0.144 -0.004,-0.088 -0.064,-0.144 -0.06,-0.056 -0.156,-0.088 -0.092,-0.036 -0.212,-0.06 -0.12,-0.024 -0.244,-0.052 -0.128,-0.028 -0.248,-0.068 -0.116,-0.04 -0.212,-0.108 -0.092,-0.068 -0.148,-0.172 -0.056,-0.108 -0.056,-0.264 0,-0.168 0.08,-0.28 0.084,-0.116 0.208,-0.184 0.128,-0.072 0.28,-0.1 0.156,-0.028 0.296,-0.028 0.16,0 0.304,0.036 0.148,0.032 0.264,0.108 0.12,0.076 0.196,0.2 0.08,0.12 0.1,0.292 h -0.476 q -0.032,-0.164 -0.152,-0.22 -0.116,-0.056 -0.268,-0.056 -0.048,0 -0.116,0.008 -0.064,0.008 -0.124,0.032 -0.056,0.02 -0.096,0.064 -0.04,0.04 -0.04,0.108 0,0.084 0.056,0.136 0.06,0.052 0.152,0.088 0.096,0.032 0.216,0.056 0.12,0.024 0.248,0.052 0.124,0.028 0.244,0.068 0.12,0.04 0.212,0.108 0.096,0.068 0.152,0.172 0.06,0.104 0.06,0.256 0,0.184 -0.084,0.312 -0.084,0.128 -0.22,0.208 -0.132,0.08 -0.296,0.116 -0.164,0.036 -0.324,0.036 -0.196,0 -0.364,-0.044 -0.164,-0.044 -0.288,-0.132 -0.12,-0.092 -0.192,-0.224 -0.068,-0.136 -0.072,-0.32 z" id="path78"/>
        <path d="m 61.543909,-2.068 h 0.344 v -0.62 h 0.456 v 0.62 h 0.412 v 0.34 h -0.412 v 1.104 q 0,0.072 0.004,0.124 0.008,0.052 0.028,0.088 0.024,0.036 0.068,0.056 0.044,0.016 0.12,0.016 0.048,0 0.096,0 0.048,-0.004 0.096,-0.016 v 0.352 q -0.076,0.008 -0.148,0.016 -0.072,0.008 -0.148,0.008 -0.18,0 -0.292,-0.032 -0.108,-0.036 -0.172,-0.1 -0.06,-0.068 -0.084,-0.168 -0.02,-0.1 -0.024,-0.228 v -1.22 h -0.344 z" id="path80"/>
        <path d="m 64.195902,-2.068 h 0.432 v 0.288 h 0.012 q 0.052,-0.076 0.112,-0.14 0.06,-0.064 0.132,-0.108 0.076,-0.044 0.172,-0.068 0.096,-0.028 0.22,-0.028 0.188,0 0.348,0.084 0.164,0.084 0.232,0.26 0.116,-0.16 0.268,-0.252 0.152,-0.092 0.38,-0.092 0.328,0 0.508,0.16 0.184,0.16 0.184,0.536 V 0 h -0.456 v -1.208 q 0,-0.124 -0.008,-0.224 -0.008,-0.104 -0.048,-0.176 -0.036,-0.076 -0.112,-0.116 -0.076,-0.04 -0.208,-0.04 -0.232,0 -0.336,0.144 -0.104,0.144 -0.104,0.408 V 0 h -0.456 v -1.328 q 0,-0.216 -0.08,-0.324 -0.076,-0.112 -0.284,-0.112 -0.088,0 -0.172,0.036 -0.08,0.036 -0.144,0.104 -0.06,0.068 -0.1,0.168 -0.036,0.1 -0.036,0.228 V 0 h -0.456 z" id="path82"/>
        <path d="m 69.095898,-1.216 q -0.008,-0.108 -0.048,-0.208 -0.036,-0.1 -0.104,-0.172 -0.064,-0.076 -0.16,-0.12 -0.092,-0.048 -0.208,-0.048 -0.12,0 -0.22,0.044 -0.096,0.04 -0.168,0.116 -0.068,0.072 -0.112,0.172 -0.04,0.1 -0.044,0.216 z m -1.064,0.3 q 0,0.12 0.032,0.232 0.036,0.112 0.104,0.196 0.068,0.084 0.172,0.136 0.104,0.048 0.248,0.048 0.2,0 0.32,-0.084 0.124,-0.088 0.184,-0.26 h 0.432 q -0.036,0.168 -0.124,0.3 -0.088,0.132 -0.212,0.224 -0.124,0.088 -0.28,0.132 -0.152,0.048 -0.32,0.048 -0.244,0 -0.432,-0.08 -0.188,-0.08 -0.32,-0.224 -0.128,-0.144 -0.196,-0.344 -0.064,-0.2 -0.064,-0.44 0,-0.22 0.068,-0.416 0.072,-0.2 0.2,-0.348 0.132,-0.152 0.316,-0.24 0.184,-0.088 0.416,-0.088 0.244,0 0.436,0.104 0.196,0.1 0.324,0.268 0.128,0.168 0.184,0.388 0.06,0.216 0.032,0.448 z" id="path84"/>
        <path d="m 69.691897,-2.068 h 0.344 v -0.62 h 0.456 v 0.62 h 0.412 v 0.34 h -0.412 v 1.104 q 0,0.072 0.004,0.124 0.008,0.052 0.028,0.088 0.024,0.036 0.068,0.056 0.044,0.016 0.12,0.016 0.048,0 0.096,0 0.048,-0.004 0.096,-0.016 v 0.352 q -0.076,0.008 -0.148,0.016 -0.072,0.008 -0.148,0.008 -0.18,0 -0.292,-0.032 -0.108,-0.036 -0.172,-0.1 -0.06,-0.068 -0.084,-0.168 -0.02,-0.1 -0.024,-0.228 v -1.22 h -0.344 z" id="path86"/>
        <path d="m 72.343889,-2.856 h 0.456 v 1.06 h 0.008 q 0.084,-0.14 0.248,-0.232 0.168,-0.096 0.372,-0.096 0.34,0 0.536,0.176 0.196,0.176 0.196,0.528 V 0 h -0.456 v -1.3 q -0.008,-0.244 -0.104,-0.352 -0.096,-0.112 -0.3,-0.112 -0.116,0 -0.208,0.044 -0.092,0.04 -0.156,0.116 -0.064,0.072 -0.1,0.172 -0.036,0.1 -0.036,0.212 V 0 h -0.456 z" id="path88"/>
        <path d="m 74.651887,-2.856 h 0.456 v 0.432 h -0.456 z m 0,0.788 h 0.456 V 0 h -0.456 z" id="path90"/>
        <path d="m 75.603884,-2.068 h 0.432 v 0.288 h 0.012 q 0.052,-0.076 0.112,-0.14 0.06,-0.064 0.132,-0.108 0.076,-0.044 0.172,-0.068 0.096,-0.028 0.22,-0.028 0.188,0 0.348,0.084 0.164,0.084 0.232,0.26 0.116,-0.16 0.268,-0.252 0.152,-0.092 0.38,-0.092 0.328,0 0.508,0.16 0.184,0.16 0.184,0.536 V 0 h -0.456 v -1.208 q 0,-0.124 -0.008,-0.224 -0.008,-0.104 -0.048,-0.176 -0.036,-0.076 -0.112,-0.116 -0.076,-0.04 -0.208,-0.04 -0.232,0 -0.336,0.144 -0.104,0.144 -0.104,0.408 V 0 h -0.456 v -1.328 q 0,-0.216 -0.08,-0.324 -0.076,-0.112 -0.284,-0.112 -0.088,0 -0.172,0.036 -0.08,0.036 -0.144,0.104 -0.06,0.068 -0.1,0.168 -0.036,0.1 -0.036,0.228 V 0 h -0.456 z" id="path92"/>
        <path d="m 79.11988,-0.54 h 0.556 V 0 h -0.556 z" id="path94"/>
      </g>
    </g>
    <g font-family="'HelveticaNeueLT Com 65 Md'" fill="#444444" font-size="2.66667px" transform="translate(84.653333,23.7616)" id="g12">
      <g aria-label="&#8212;Ernest" id="text8">
        <path d="M 0.34666671,-0.86933344 H 2.3200003 V -0.5813334 H 0.34666671 Z" id="path97"/>
        <path d="m 2.8693287,-1.9040002 h 1.3706668 v 0.288 H 3.202662 v 0.4986667 h 0.9600002 v 0.27200007 H 3.202662 v 0.5573334 H 4.2586622 V 0 H 2.8693287 Z" id="path99"/>
        <path d="M 4.5066597,-1.3786668 H 4.791993 v 0.2666667 h 0.00533 q 0.013333,-0.056 0.050667,-0.1093334 0.04,-0.053333 0.093333,-0.096 0.056,-0.045333 0.1226667,-0.072 0.066667,-0.026667 0.136,-0.026667 0.053333,0 0.072,0.00267 0.021333,0.00267 0.042667,0.00533 v 0.2933334 q -0.032,-0.00533 -0.066667,-0.008 -0.032,-0.00533 -0.064,-0.00533 -0.077333,0 -0.1466667,0.032 -0.066667,0.029333 -0.1173333,0.090667 -0.050667,0.0586667 -0.08,0.14666673 -0.029333,0.088 -0.029333,0.20266669 V 0 h -0.304 z" id="path101"/>
        <path d="m 5.493324,-1.3786668 h 0.288 v 0.2026667 l 0.00533,0.00533 q 0.069333,-0.1146667 0.1813334,-0.1786667 0.112,-0.066667 0.248,-0.066667 0.2266667,0 0.3573334,0.1173334 0.1306667,0.1173333 0.1306667,0.35200002 V 0 H 6.3999907 v -0.86666677 q -0.00533,-0.16266673 -0.069333,-0.23466673 -0.064,-0.074667 -0.2,-0.074667 -0.077333,0 -0.1386667,0.029333 -0.061333,0.026667 -0.104,0.077333 -0.042667,0.048 -0.066667,0.11466672 -0.024,0.0666667 -0.024,0.14133335 V 0 h -0.304 z" id="path103"/>
        <path d="m 7.9706557,-0.81066676 q -0.00533,-0.072 -0.032,-0.13866669 -0.024,-0.0666667 -0.069333,-0.11466665 -0.042667,-0.050667 -0.1066666,-0.08 -0.061333,-0.032 -0.1386667,-0.032 -0.08,0 -0.1466667,0.029333 -0.064,0.026667 -0.112,0.077333 -0.045333,0.048 -0.074667,0.11466672 -0.026667,0.0666667 -0.029333,0.14400002 z m -0.7093334,0.20000002 q 0,0.08 0.021333,0.15466669 0.024,0.0746667 0.069333,0.13066668 0.045333,0.056 0.1146667,0.0906667 0.069333,0.032 0.1653334,0.032 0.1333333,0 0.2133333,-0.056 0.082667,-0.0586667 0.1226667,-0.17333335 h 0.288 q -0.024,0.11200001 -0.082667,0.20000002 -0.058667,0.088 -0.1413334,0.14933335 Q 7.9493223,-0.024 7.8453223,0.00533333 7.743989,0.03733334 7.631989,0.03733334 q -0.1626667,0 -0.2880001,-0.05333334 -0.1253333,-0.05333334 -0.2133333,-0.14933335 -0.085333,-0.096 -0.1306667,-0.22933336 -0.042667,-0.13333335 -0.042667,-0.29333337 0,-0.14666669 0.045333,-0.27733337 0.048,-0.13333335 0.1333333,-0.23200005 0.088,-0.1013333 0.2106667,-0.16 0.1226667,-0.058667 0.2773334,-0.058667 0.1626667,0 0.2906667,0.069333 0.1306667,0.066667 0.216,0.1786667 0.085333,0.112 0.1226667,0.25866666 0.04,0.14400002 0.021333,0.2986667 z" id="path105"/>
        <path d="m 8.7359883,-0.44266672 q 0.013333,0.13333335 0.1013333,0.18666669 0.088,0.0533333 0.2106667,0.0533333 0.042667,0 0.096,-0.005333 0.056,-0.008 0.104,-0.0266667 0.048,-0.0186667 0.077333,-0.0533333 0.032,-0.0373333 0.029333,-0.096 -0.00267,-0.0586667 -0.042667,-0.096 -0.04,-0.0373333 -0.104,-0.0586667 -0.061333,-0.024 -0.1413333,-0.04 -0.08,-0.016 -0.1626667,-0.0346667 -0.085333,-0.0186667 -0.1653334,-0.0453333 -0.077333,-0.0266667 -0.1413333,-0.072 -0.061333,-0.0453333 -0.098667,-0.11466668 -0.037333,-0.072 -0.037333,-0.17600007 0,-0.112 0.053333,-0.1866666 0.056,-0.077333 0.1386667,-0.1226667 0.085333,-0.048 0.1866667,-0.066667 0.104,-0.018667 0.1973333,-0.018667 0.1066667,0 0.2026667,0.024 0.098667,0.021333 0.1760001,0.072 0.08,0.050667 0.1306666,0.1333334 0.053333,0.08 0.066667,0.19466668 H 9.2959883 Q 9.274655,-1.1013335 9.194655,-1.1386668 q -0.077333,-0.037333 -0.1786667,-0.037333 -0.032,0 -0.077333,0.00533 -0.042667,0.00533 -0.082667,0.021333 -0.037333,0.013333 -0.064,0.042667 -0.026667,0.026667 -0.026667,0.072 0,0.056 0.037333,0.0906667 0.04,0.0346667 0.1013334,0.0586667 0.064,0.0213333 0.144,0.0373333 0.08,0.016 0.1653334,0.0346667 0.082667,0.0186667 0.1626666,0.0453333 0.08,0.0266667 0.1413334,0.072 0.064,0.0453333 0.1013333,0.11466668 0.04,0.0693333 0.04,0.17066668 0,0.12266669 -0.056,0.20800003 -0.056,0.0853333 -0.1466666,0.13866668 -0.088,0.05333334 -0.1973334,0.07733334 -0.1093333,0.02400001 -0.216,0.02400001 -0.1306667,0 -0.2426667,-0.02933334 -0.1093334,-0.02933334 -0.192,-0.08800001 -0.08,-0.06133334 -0.1280001,-0.14933335 -0.045333,-0.0906667 -0.048,-0.21333336 z" id="path107"/>
        <path d="M 9.7519861,-1.3786668 H 9.9813195 V -1.7920002 H 10.28532 v 0.4133334 h 0.274666 v 0.2266667 H 10.28532 v 0.73600005 q 0,0.048 0.0027,0.0826667 0.0053,0.0346667 0.01867,0.0586667 0.016,0.024 0.04533,0.0373333 0.02933,0.0106667 0.08,0.0106667 0.032,0 0.064,0 0.032,-0.002667 0.064,-0.0106667 v 0.23466669 Q 10.50932,0.00266667 10.46132,0.008 q -0.048,0.00533333 -0.09867,0.00533333 -0.12,0 -0.194667,-0.02133333 -0.072,-0.024 -0.114666,-0.06666668 -0.04,-0.04533333 -0.056,-0.11200001 -0.013333,-0.0666667 -0.016,-0.15200002 V -1.1520001 H 9.7519861 Z" id="path109"/>
      </g>
      <g aria-label="Chemical Engineer" transform="translate(3,3.2368)" id="text10" style="font-style:italic">
        <path d="m 1.5226668,-1.2693335 q 0,-0.2 -0.112,-0.304 -0.112,-0.104 -0.3173333,-0.104 -0.17066672,0 -0.29866674,0.077333 -0.12533335,0.077333 -0.21066669,0.2026667 -0.0826667,0.1253333 -0.12533335,0.2826667 -0.0426667,0.15733335 -0.0426667,0.31733337 0,0.2666667 0.13600002,0.41866672 0.13600001,0.15200002 0.38666671,0.15200002 0.12800002,0 0.21600002,-0.048 0.088,-0.0506667 0.144,-0.12000001 0.058667,-0.072 0.088,-0.14666669 0.032,-0.0746667 0.045333,-0.12266668 h 0.3333333 q -0.04,0.18133336 -0.12,0.31466671 -0.08,0.13333334 -0.192,0.22133335 Q 1.3440002,-0.04 1.2106668,0.00266667 1.0773335,0.04533334 0.92800011,0.04533334 q -0.20533336,0 -0.36266671,-0.06400001 Q 0.40800005,-0.08266668 0.30133337,-0.19466669 0.19466669,-0.3066667 0.13866668,-0.45866672 q -0.056,-0.15200002 -0.056,-0.32800004 0,-0.29866674 0.08800001,-0.51733344 0.0906667,-0.2213333 0.23466669,-0.3626667 0.14666669,-0.144 0.32800004,-0.2133333 0.18400002,-0.069333 0.37066668,-0.069333 0.1680001,0 0.3093334,0.045333 0.1413334,0.045333 0.24,0.1306667 0.1013334,0.085333 0.1546667,0.2133333 0.053333,0.128 0.048,0.2906667 z" style="font-style:italic" id="path112"/>
        <path d="m 2.2879956,-1.9040002 h 0.304 l -0.1493334,0.7200001 h 0.00533 q 0.077333,-0.1040001 0.2,-0.1680001 0.1226667,-0.064 0.2533334,-0.064 0.208,0 0.304,0.098667 0.098667,0.098667 0.098667,0.2666667 0,0.037333 -0.00267,0.0853333 -0.00267,0.048 -0.010667,0.0853334 L 3.1066623,0 h -0.304 l 0.176,-0.85066677 q 0.008,-0.0346667 0.013333,-0.0666667 0.008,-0.032 0.008,-0.0613333 0,-0.016 -0.00267,-0.048 0,-0.034667 -0.018667,-0.066667 -0.018667,-0.034667 -0.064,-0.058667 -0.042667,-0.024 -0.1253333,-0.024 -0.090667,0 -0.1626667,0.04 -0.069333,0.037333 -0.1253334,0.093333 -0.053333,0.0533333 -0.093333,0.13333336 -0.037333,0.0773333 -0.056,0.16266668 L 2.1973289,0 H 1.8933288 Z" style="font-style:italic" id="path114"/>
        <path d="m 4.5279943,-0.81066676 q 0.00267,-0.024 0.00267,-0.0426667 0,-0.0213333 0,-0.0426667 0,-0.12266669 -0.077333,-0.19999999 -0.077333,-0.08 -0.2133334,-0.08 -0.1706667,0 -0.272,0.104 -0.1013334,0.10133332 -0.1466667,0.26133334 z m 0.2213333,0.38400004 q -0.072,0.2426667 -0.2453333,0.35466671 -0.1706667,0.10933335 -0.4186668,0.10933335 -0.1306666,0 -0.2426667,-0.04000001 -0.1093333,-0.04266667 -0.1893333,-0.12000001 -0.08,-0.08 -0.1253334,-0.18933336 -0.045333,-0.11200001 -0.045333,-0.25333336 0,-0.16000002 0.050667,-0.31200004 0.050667,-0.15200006 0.1466667,-0.27200006 0.098667,-0.12 0.24,-0.192 0.144,-0.074667 0.328,-0.074667 0.184,0 0.2986667,0.061333 0.1146667,0.061333 0.1786667,0.1546667 0.064,0.093333 0.085333,0.20533331 0.024,0.11200002 0.024,0.21333336 0,0.0506667 -0.00533,0.0933333 -0.00533,0.0426667 -0.010667,0.0773333 H 3.7919942 q -0.00533,0.024 -0.00533,0.0453333 0,0.0213333 0,0.0426667 0,0.14400002 0.077333,0.23200003 0.077333,0.088 0.2506667,0.088 0.1226667,0 0.2106667,-0.056 0.088,-0.0586667 0.12,-0.16800002 z" style="font-style:italic" id="path116"/>
        <path d="m 5.2079935,-1.3786668 h 0.288 l -0.04,0.1946667 0.00533,0.00533 q 0.085333,-0.1093334 0.2053333,-0.1733334 0.1226667,-0.064 0.2666667,-0.064 0.064,0 0.12,0.013333 0.058667,0.013333 0.1040001,0.042667 0.048,0.026667 0.08,0.074667 0.032,0.048 0.045333,0.1146667 0.093333,-0.1066667 0.208,-0.176 0.1173334,-0.069333 0.2586667,-0.069333 0.2000001,0 0.2960001,0.098667 0.096,0.098667 0.096,0.2666667 0,0.037333 -0.008,0.0853333 -0.00533,0.048 -0.013333,0.0853334 L 6.9439937,0 h -0.304 l 0.1706667,-0.8160001 q 0.00533,-0.024 0.013333,-0.0666667 0.010667,-0.0453333 0.013333,-0.096 0,-0.0373333 -0.008,-0.072 -0.00533,-0.034667 -0.026667,-0.061333 -0.021333,-0.029333 -0.058667,-0.045333 -0.037333,-0.018667 -0.096,-0.018667 -0.088,0 -0.1573334,0.037333 -0.066667,0.034667 -0.1173333,0.090667 -0.048,0.0533333 -0.08,0.11999999 -0.029333,0.064 -0.04,0.12266668 L 6.0853269,0 h -0.304 l 0.1573334,-0.75733342 q 0.010667,-0.0533333 0.024,-0.12000002 0.016,-0.0666667 0.016,-0.12800006 0,-0.069333 -0.037333,-0.12 -0.034667,-0.050667 -0.1306667,-0.050667 -0.088,0 -0.152,0.032 -0.061333,0.032 -0.1066666,0.077333 -0.045333,0.045333 -0.093333,0.11733335 -0.048,0.0693334 -0.066667,0.15200002 L 5.2266602,0 H 4.9226601 Z" style="font-style:italic" id="path118"/>
        <path d="m 7.6719938,-1.9040002 h 0.3013334 l -0.058667,0.288 H 7.6133272 Z m -0.1093333,0.5253334 h 0.304 L 7.5813272,0 H 7.2773271 Z" style="font-style:italic" id="path120"/>
        <path d="m 9.013325,-0.92266678 q 0.00533,-0.12800002 -0.072,-0.18933332 -0.074667,-0.064 -0.2,-0.064 -0.1146667,0 -0.2,0.058667 -0.085333,0.058667 -0.1413334,0.14933338 -0.056,0.0906667 -0.085333,0.20000003 -0.026667,0.10666668 -0.026667,0.20533336 0,0.0773333 0.016,0.14400001 0.016,0.064 0.050667,0.11200002 0.037333,0.048 0.096,0.0773333 0.058667,0.0266667 0.144,0.0266667 0.136,0 0.2213334,-0.072 0.088,-0.0746667 0.1253333,-0.20000002 h 0.304 q -0.074667,0.2666667 -0.2533333,0.38933338 -0.176,0.12266668 -0.4480001,0.12266668 -0.136,0 -0.24,-0.04266667 -0.104,-0.04266668 -0.176,-0.12000002 -0.069333,-0.08 -0.1066667,-0.18666669 -0.037333,-0.10933334 -0.037333,-0.24000003 0,-0.17333335 0.053333,-0.3306667 0.053333,-0.15733333 0.1546667,-0.27466673 0.1013333,-0.12 0.2453333,-0.1893333 0.1466667,-0.069333 0.3306668,-0.069333 0.1146666,0 0.216,0.032 0.1013333,0.032 0.176,0.093333 0.077333,0.061333 0.1173333,0.1546667 0.042667,0.093333 0.04,0.21333332 z" style="font-style:italic" id="path122"/>
        <path d="m 9.7146581,-0.37866671 q 0,0.0506667 0.021333,0.0853333 0.024,0.032 0.058667,0.0533333 0.034667,0.0186667 0.077333,0.0293333 0.042667,0.008 0.085333,0.008 0.1120002,0 0.1866662,-0.0373333 0.07733,-0.0373333 0.125334,-0.10133334 0.05067,-0.064 0.07733,-0.14933336 0.02933,-0.088 0.04533,-0.18666668 l -0.0053,-0.005333 q -0.032,0.032 -0.08533,0.0453333 -0.05333,0.0133333 -0.104,0.0186667 -0.064,0.005333 -0.149334,0.0106667 -0.082666,0.005333 -0.1573329,0.0293333 -0.072,0.0213333 -0.1253333,0.0693333 -0.050667,0.0453333 -0.050667,0.13066668 z m 0.9146669,-0.0213333 q -0.008,0.0373333 -0.01867,0.072 -0.008,0.0346667 -0.008,0.064 0,0.0293333 0.01333,0.0453333 0.01333,0.016 0.05067,0.016 0.02667,0 0.05333,-0.005333 0.02667,-0.008 0.05333,-0.0106667 L 10.725325,0 q -0.05867,0.01333333 -0.117333,0.024 -0.05867,0.01333334 -0.12,0.01333334 -0.07733,0 -0.128001,-0.04800001 -0.05067,-0.048 -0.056,-0.12800001 -0.09067,0.09066667 -0.213333,0.13333335 -0.1226666,0.04266667 -0.2506666,0.04266667 -0.085333,0 -0.1626667,-0.02400001 -0.077333,-0.024 -0.1386666,-0.06933334 -0.058667,-0.04533334 -0.093333,-0.11466668 -0.034667,-0.0693333 -0.034667,-0.16000002 0,-0.12800001 0.048,-0.21333335 0.048,-0.088 0.128,-0.14400002 0.08,-0.056 0.184,-0.0826667 0.104,-0.0266667 0.2186667,-0.0346667 0.077333,-0.005333 0.1520002,-0.0106667 0.07733,-0.008 0.152,-0.0133333 0.08267,-0.005333 0.12,-0.0533333 0.04,-0.0506667 0.04,-0.12800003 0,-0.098667 -0.06933,-0.1306667 -0.06933,-0.034667 -0.162666,-0.034667 -0.125334,0 -0.218667,0.045333 -0.093333,0.042667 -0.1253332,0.17066669 H 9.5893247 q 0.024,-0.12799999 0.082667,-0.21333339 0.058667,-0.088 0.144,-0.1413333 0.085333,-0.056 0.1919996,-0.077333 0.109334,-0.024 0.232,-0.024 0.186667,0 0.290667,0.037333 0.106667,0.034667 0.154667,0.085333 0.05067,0.050667 0.06133,0.1066667 0.01067,0.053333 0.01067,0.090667 0,0.085333 -0.02667,0.20799999 z" style="font-style:italic" id="path124"/>
        <path d="m 11.279991,-1.9040002 h 0.304 L 11.189324,0 h -0.304 z" style="font-style:italic" id="path126"/>
        <path d="m 12.698655,-1.9040002 h 1.386667 l -0.05867,0.288 h -1.058667 l -0.104,0.4986667 h 0.981333 l -0.056,0.27200007 h -0.984 l -0.114667,0.5573334 h 1.066667 L 13.698655,0 h -1.394666 z" style="font-style:italic" id="path128"/>
        <path d="m 14.234653,-1.3786668 h 0.285333 l -0.04267,0.2 0.0053,0.00533 q 0.08267,-0.1146667 0.205333,-0.1786667 0.125334,-0.064 0.269334,-0.064 0.208,0 0.304,0.098667 0.09867,0.098667 0.09867,0.2666667 0,0.037333 -0.0027,0.0853333 -0.0027,0.048 -0.01067,0.0853334 L 15.162653,0 h -0.304 l 0.176,-0.85066677 q 0.008,-0.0346667 0.01333,-0.0666667 0.008,-0.032 0.008,-0.0613333 0,-0.016 -0.0027,-0.048 0,-0.034667 -0.01867,-0.066667 -0.01867,-0.034667 -0.064,-0.058667 -0.04267,-0.024 -0.125333,-0.024 -0.09067,0 -0.162667,0.04 -0.06933,0.037333 -0.125334,0.093333 -0.05333,0.0533333 -0.09333,0.13333336 -0.03733,0.0773333 -0.056,0.16266668 L 14.253319,0 h -0.304 z" style="font-style:italic" id="path130"/>
        <path d="m 15.866652,-0.5813334 q 0,0.0693333 0.016,0.13333335 0.016,0.0613333 0.05067,0.10933334 0.03467,0.0453333 0.088,0.072 0.056,0.0266667 0.133334,0.0266667 0.122666,0 0.208,-0.056 0.088,-0.056 0.144,-0.14400001 0.056,-0.088 0.08,-0.19733336 0.02667,-0.10933335 0.02667,-0.21333336 0,-0.14933333 -0.07733,-0.23733333 -0.07733,-0.088 -0.229333,-0.088 -0.112,0 -0.194667,0.058667 -0.08267,0.056 -0.138667,0.14400005 -0.05333,0.088 -0.08,0.19466669 -0.02667,0.10400001 -0.02667,0.19733336 z m 0.877333,0.54400006 q -0.03467,0.15733335 -0.088,0.26933337 -0.05067,0.11200001 -0.133333,0.18133335 -0.08,0.0693333 -0.197334,0.10133335 -0.114666,0.032 -0.277333,0.032 -0.114667,0 -0.221333,-0.024 -0.106667,-0.024 -0.189334,-0.0773333 -0.08,-0.0506667 -0.128,-0.13600002 -0.05067,-0.0826667 -0.05333,-0.20266669 h 0.304 q 0.0053,0.11733335 0.09333,0.16533335 0.09067,0.048 0.221334,0.048 0.101333,0 0.168,-0.0293333 0.06667,-0.0293333 0.109333,-0.08 0.04533,-0.0506667 0.06933,-0.12266668 0.024,-0.06933334 0.04267,-0.15466668 l 0.02933,-0.13600002 -0.0053,-0.005333 q -0.06933,0.10133334 -0.168,0.15466668 Q 16.221318,0 16.098652,0 15.839985,0 15.701318,-0.15200002 15.562651,-0.30400004 15.562651,-0.5653334 q 0,-0.15466669 0.04533,-0.3066667 0.048,-0.1546667 0.136,-0.2746667 0.09067,-0.12 0.224,-0.1946667 0.133333,-0.074667 0.306667,-0.074667 0.149333,0 0.258666,0.061333 0.112,0.061333 0.168,0.2053333 h 0.0053 l 0.04,-0.2293333 h 0.288 z" style="font-style:italic" id="path132"/>
        <path d="m 17.455982,-1.9040002 h 0.301333 l -0.05867,0.288 h -0.301334 z m -0.109334,0.5253334 h 0.304001 L 17.365315,0 h -0.304 z" style="font-style:italic" id="path134"/>
        <path d="m 17.989312,-1.3786668 h 0.285334 l -0.04267,0.2 0.0053,0.00533 q 0.08267,-0.1146667 0.205334,-0.1786667 0.125333,-0.064 0.269333,-0.064 0.208,0 0.304,0.098667 0.09867,0.098667 0.09867,0.2666667 0,0.037333 -0.0027,0.0853333 -0.0027,0.048 -0.01067,0.0853334 L 18.917313,0 h -0.304 l 0.176,-0.85066677 q 0.008,-0.0346667 0.01333,-0.0666667 0.008,-0.032 0.008,-0.0613333 0,-0.016 -0.0027,-0.048 0,-0.034667 -0.01867,-0.066667 -0.01867,-0.034667 -0.064,-0.058667 -0.04267,-0.024 -0.125334,-0.024 -0.09067,0 -0.162667,0.04 -0.06933,0.037333 -0.125333,0.093333 -0.05333,0.0533333 -0.09333,0.13333336 -0.03733,0.0773333 -0.056,0.16266668 L 18.007979,0 h -0.304 z" style="font-style:italic" id="path136"/>
        <path d="m 20.338644,-0.81066676 q 0.0027,-0.024 0.0027,-0.0426667 0,-0.0213333 0,-0.0426667 0,-0.12266669 -0.07733,-0.19999999 -0.07733,-0.08 -0.213333,-0.08 -0.170667,0 -0.272,0.104 -0.101334,0.10133332 -0.146667,0.26133334 z m 0.221333,0.38400004 q -0.072,0.2426667 -0.245333,0.35466671 -0.170667,0.10933335 -0.418667,0.10933335 -0.130667,0 -0.242667,-0.04000001 -0.109333,-0.04266667 -0.189333,-0.12000001 -0.08,-0.08 -0.125333,-0.18933336 -0.04533,-0.11200001 -0.04533,-0.25333336 0,-0.16000002 0.05067,-0.31200004 0.05067,-0.15200006 0.146667,-0.27200006 0.09867,-0.12 0.24,-0.192 0.144,-0.074667 0.328,-0.074667 0.184,0 0.298666,0.061333 0.114667,0.061333 0.178667,0.1546667 0.064,0.093333 0.08533,0.20533331 0.024,0.11200002 0.024,0.21333336 0,0.0506667 -0.0053,0.0933333 -0.0053,0.0426667 -0.01067,0.0773333 h -1.026666 q -0.0053,0.024 -0.0053,0.0453333 0,0.0213333 0,0.0426667 0,0.14400002 0.07733,0.23200003 0.07733,0.088 0.250666,0.088 0.122667,0 0.210667,-0.056 0.088,-0.0586667 0.12,-0.16800002 z" style="font-style:italic" id="path138"/>
        <path d="m 21.821312,-0.81066676 q 0.0027,-0.024 0.0027,-0.0426667 0,-0.0213333 0,-0.0426667 0,-0.12266669 -0.07733,-0.19999999 -0.07733,-0.08 -0.213333,-0.08 -0.170667,0 -0.272,0.104 -0.101334,0.10133332 -0.146667,0.26133334 z m 0.221333,0.38400004 q -0.072,0.2426667 -0.245333,0.35466671 -0.170667,0.10933335 -0.418667,0.10933335 -0.130667,0 -0.242667,-0.04000001 -0.109333,-0.04266667 -0.189333,-0.12000001 -0.08,-0.08 -0.125334,-0.18933336 -0.04533,-0.11200001 -0.04533,-0.25333336 0,-0.16000002 0.05067,-0.31200004 0.05067,-0.15200006 0.146666,-0.27200006 0.09867,-0.12 0.240001,-0.192 0.144,-0.074667 0.328,-0.074667 0.184,0 0.298666,0.061333 0.114667,0.061333 0.178667,0.1546667 0.064,0.093333 0.08533,0.20533331 0.024,0.11200002 0.024,0.21333336 0,0.0506667 -0.0053,0.0933333 -0.0053,0.0426667 -0.01067,0.0773333 h -1.026667 q -0.0053,0.024 -0.0053,0.0453333 0,0.0213333 0,0.0426667 0,0.14400002 0.07733,0.23200003 0.07733,0.088 0.250667,0.088 0.122667,0 0.210667,-0.056 0.088,-0.0586667 0.12,-0.16800002 z" style="font-style:italic" id="path140"/>
        <path d="m 22.485311,-1.3786668 h 0.288 l -0.056,0.2693333 0.0053,0.00533 q 0.032,-0.056 0.07733,-0.112 0.04533,-0.056 0.101333,-0.098667 0.05867,-0.045333 0.125333,-0.072 0.06667,-0.029333 0.136,-0.029333 0.03733,0 0.072,0.00267 0.03733,0 0.07467,0.00533 l -0.064,0.2906667 q -0.02667,-0.00533 -0.05333,-0.008 -0.02667,-0.00267 -0.05333,-0.00267 -0.117333,0 -0.205333,0.042667 -0.08533,0.04 -0.146667,0.11200005 -0.05867,0.072 -0.096,0.16533335 -0.03733,0.0933333 -0.05867,0.19733336 L 22.503977,0 h -0.304 z" style="font-style:italic" id="path142"/>
      </g>
    </g>
  </g>
</svg>
