<svg xmlns="http://www.w3.org/2000/svg" xmlns:dc="http://purl.org/dc/elements/1.1/" xmlns:cc="http://creativecommons.org/ns#" xmlns:rdf="http://www.w3.org/1999/02/22-rdf-syntax-ns#" xmlns:svg="http://www.w3.org/2000/svg" xmlns:xlink="http://www.w3.org/1999/xlink" xmlns:sodipodi="http://sodipodi.sourceforge.net/DTD/sodipodi-0.dtd" xmlns:inkscape="http://www.inkscape.org/namespaces/inkscape" viewBox="-1.785714 -17.892857 53.571429 29.785714" width="270pt" height="150.12pt">
  <g>
    <g fill="none" stroke-width="0.5" stroke-linecap="round" id="_49232d5c3875466d8443f30c39babb48">
      <path d="M 0.000000,0.000000 C 0.333333,0.333333 0.666667,0.666667 1.000000,0.666667 C 1.333333,0.666667 1.666667,0.333333 2.000000,0.000000 C 2.333333,-0.333333 2.666667,-0.666667 3.000000,-1.000000 C 3.333333,-1.333333 3.666667,-1.666667 4.000000,-2.000000 C 4.333333,-2.333333 4.666667,-2.666667 5.000000,-3.000000 C 5.333333,-3.333333 5.666667,-3.666667 6.000000,-4.000000 C 6.333333,-4.333333 6.666667,-4.666667 7.000000,-4.666667 C 7.333333,-4.666667 7.666667,-4.333333 8.000000,-4.333333 C 8.333333,-4.333333 8.666667,-4.666667 9.000000,-5.000000 C 9.333333,-5.333333 9.666667,-5.666667 10.000000,-6.000000 C 10.333333,-6.333333 10.666667,-6.666667 11.000000,-7.000000 C 11.333333,-7.333333 11.666667,-7.666667 12.000000,-7.666667 C 12.333333,-7.666667 12.666667,-7.333333 13.000000,-7.000000 C 13.333333,-6.666667 13.666667,-6.333333 14.000000,-6.000000 C 14.333333,-5.666667 14.666667,-5.333333 15.000000,-5.333333 C 15.333333,-5.333333 15.666667,-5.666667 16.000000,-6.000000 C 16.333333,-6.333333 16.666667,-6.666667 17.000000,-7.000000 C 17.333333,-7.333333 17.666667,-7.666667 18.000000,-8.000000 C 18.333333,-8.333333 18.666667,-8.666667 19.000000,-9.000000 C 19.333333,-9.333333 19.666667,-9.666667 20.000000,-9.666667 C 20.333333,-9.666667 20.666667,-9.333333 21.000000,-9.333333 C 21.333333,-9.333333 21.666667,-9.666667 22.000000,-10.000000 C 22.333333,-10.333333 22.666667,-10.666667 23.000000,-10.666667 C 23.333333,-10.666667 23.666667,-10.333333 24.000000,-10.333333 C 24.333333,-10.333333 24.666667,-10.666667 25.000000,-11.000000 C 25.333333,-11.333333 25.666667,-11.666667 26.000000,-12.000000 C 26.333333,-12.333333 26.666667,-12.666667 27.000000,-12.666667 C 27.333333,-12.666667 27.666667,-12.333333 28.000000,-12.333333 C 28.333333,-12.333333 28.666667,-12.666667 29.000000,-12.666667 C 29.333333,-12.666667 29.666667,-12.333333 30.000000,-12.000000 C 30.333333,-11.666667 30.666667,-11.333333 31.000000,-11.000000 C 31.333333,-10.666667 31.666667,-10.333333 32.000000,-10.000000 C 32.333333,-9.666667 32.666667,-9.333333 33.000000,-9.333333 C 33.333333,-9.333333 33.666667,-9.666667 34.000000,-10.000000 C 34.333333,-10.333333 34.666667,-10.666667 35.000000,-10.666667 C 35.333333,-10.666667 35.666667,-10.333333 36.000000,-10.333333 C 36.333333,-10.333333 36.666667,-10.666667 37.000000,-11.000000 C 37.333333,-11.333333 37.666667,-11.666667 38.000000,-12.000000 C 38.333333,-12.333333 38.666667,-12.666667 39.000000,-12.666667 C 39.333333,-12.666667 39.666667,-12.333333 40.000000,-12.333333 C 40.333333,-12.333333 40.666667,-12.666667 41.000000,-12.666667 C 41.333333,-12.666667 41.666667,-12.333333 42.000000,-12.000000 C 42.333333,-11.666667 42.666667,-11.333333 43.000000,-11.333333 C 43.333333,-11.333333 43.666667,-11.666667 44.000000,-12.000000 C 44.333333,-12.333333 44.666667,-12.666667 45.000000,-13.000000 C 45.333333,-13.333333 45.666667,-13.666667 46.000000,-13.666667 C 46.333333,-13.666667 46.666667,-13.333333 47.000000,-13.333333 C 47.333333,-13.333333 47.666667,-13.666667 48.000000,-14.000000 C 48.333333,-14.333333 48.666667,-14.666667 49.000000,-15.000000 C 49.333333,-15.333333 49.666667,-15.666667 50.000000,-16.000000" stroke="#ff0000" opacity="0.1"/>
      <path d="M 0.000000,0.000000 C 0.333333,-0.333333 0.666667,-0.666667 1.000000,-0.666667 C 1.333333,-0.666667 1.666667,-0.333333 2.000000,-0.333333 C 2.333333,-0.333333 2.666667,-0.666667 3.000000,-0.666667 C 3.333333,-0.666667 3.666667,-0.333333 4.000000,-0.333333 C 4.333333,-0.333333 4.666667,-0.666667 5.000000,-1.000000 C 5.333333,-1.333333 5.666667,-1.666667 6.000000,-1.666667 C 6.333333,-1.666667 6.666667,-1.333333 7.000000,-1.000000 C 7.333333,-0.666667 7.666667,-0.333333 8.000000,-0.333333 C 8.333333,-0.333333 8.666667,-0.666667 9.000000,-0.666667 C 9.333333,-0.666667 9.666667,-0.333333 10.000000,-0.333333 C 10.333333,-0.333333 10.666667,-0.666667 11.000000,-1.000000 C 11.333333,-1.333333 11.666667,-1.666667 12.000000,-1.666667 C 12.333333,-1.666667 12.666667,-1.333333 13.000000,-1.333333 C 13.333333,-1.333333 13.666667,-1.666667 14.000000,-1.666667 C 14.333333,-1.666667 14.666667,-1.333333 15.000000,-1.333333 C 15.333333,-1.333333 15.666667,-1.666667 16.000000,-1.666667 C 16.333333,-1.666667 16.666667,-1.333333 17.000000,-1.000000 C 17.333333,-0.666667 17.666667,-0.333333 18.000000,-0.333333 C 18.333333,-0.333333 18.666667,-0.666667 19.000000,-0.666667 C 19.333333,-0.666667 19.666667,-0.333333 20.000000,-0.333333 C 20.333333,-0.333333 20.666667,-0.666667 21.000000,-0.666667 C 21.333333,-0.666667 21.666667,-0.333333 22.000000,0.000000 C 22.333333,0.333333 22.666667,0.666667 23.000000,0.666667 C 23.333333,0.666667 23.666667,0.333333 24.000000,0.333333 C 24.333333,0.333333 24.666667,0.666667 25.000000,1.000000 C 25.333333,1.333333 25.666667,1.666667 26.000000,1.666667 C 26.333333,1.666667 26.666667,1.333333 27.000000,1.000000 C 27.333333,0.666667 27.666667,0.333333 28.000000,0.000000 C 28.333333,-0.333333 28.666667,-0.666667 29.000000,-0.666667 C 29.333333,-0.666667 29.666667,-0.333333 30.000000,0.000000 C 30.333333,0.333333 30.666667,0.666667 31.000000,0.666667 C 31.333333,0.666667 31.666667,0.333333 32.000000,0.333333 C 32.333333,0.333333 32.666667,0.666667 33.000000,0.666667 C 33.333333,0.666667 33.666667,0.333333 34.000000,0.333333 C 34.333333,0.333333 34.666667,0.666667 35.000000,1.000000 C 35.333333,1.333333 35.666667,1.666667 36.000000,2.000000 C 36.333333,2.333333 36.666667,2.666667 37.000000,2.666667 C 37.333333,2.666667 37.666667,2.333333 38.000000,2.000000 C 38.333333,1.666667 38.666667,1.333333 39.000000,1.333333 C 39.333333,1.333333 39.666667,1.666667 40.000000,2.000000 C 40.333333,2.333333 40.666667,2.666667 41.000000,2.666667 C 41.333333,2.666667 41.666667,2.333333 42.000000,2.333333 C 42.333333,2.333333 42.666667,2.666667 43.000000,3.000000 C 43.333333,3.333333 43.666667,3.666667 44.000000,3.666667 C 44.333333,3.666667 44.666667,3.333333 45.000000,3.333333 C 45.333333,3.333333 45.666667,3.666667 46.000000,3.666667 C 46.333333,3.666667 46.666667,3.333333 47.000000,3.333333 C 47.333333,3.333333 47.666667,3.666667 48.000000,3.666667 C 48.333333,3.666667 48.666667,3.333333 49.000000,3.000000 C 49.333333,2.666667 49.666667,2.333333 50.000000,2.000000" stroke="#ff9900" opacity="0.1"/>
      <path d="M 0.000000,0.000000 C 0.333333,0.333333 0.666667,0.666667 1.000000,1.000000 C 1.333333,1.333333 1.666667,1.666667 2.000000,2.000000 C 2.333333,2.333333 2.666667,2.666667 3.000000,3.000000 C 3.333333,3.333333 3.666667,3.666667 4.000000,3.666667 C 4.333333,3.666667 4.666667,3.333333 5.000000,3.000000 C 5.333333,2.666667 5.666667,2.333333 6.000000,2.333333 C 6.333333,2.333333 6.666667,2.666667 7.000000,3.000000 C 7.333333,3.333333 7.666667,3.666667 8.000000,3.666667 C 8.333333,3.666667 8.666667,3.333333 9.000000,3.000000 C 9.333333,2.666667 9.666667,2.333333 10.000000,2.000000 C 10.333333,1.666667 10.666667,1.333333 11.000000,1.333333 C 11.333333,1.333333 11.666667,1.666667 12.000000,2.000000 C 12.333333,2.333333 12.666667,2.666667 13.000000,3.000000 C 13.333333,3.333333 13.666667,3.666667 14.000000,4.000000 C 14.333333,4.333333 14.666667,4.666667 15.000000,5.000000 C 15.333333,5.333333 15.666667,5.666667 16.000000,5.666667 C 16.333333,5.666667 16.666667,5.333333 17.000000,5.333333 C 17.333333,5.333333 17.666667,5.666667 18.000000,6.000000 C 18.333333,6.333333 18.666667,6.666667 19.000000,6.666667 C 19.333333,6.666667 19.666667,6.333333 20.000000,6.000000 C 20.333333,5.666667 20.666667,5.333333 21.000000,5.333333 C 21.333333,5.333333 21.666667,5.666667 22.000000,6.000000 C 22.333333,6.333333 22.666667,6.666667 23.000000,6.666667 C 23.333333,6.666667 23.666667,6.333333 24.000000,6.000000 C 24.333333,5.666667 24.666667,5.333333 25.000000,5.000000 C 25.333333,4.666667 25.666667,4.333333 26.000000,4.000000 C 26.333333,3.666667 26.666667,3.333333 27.000000,3.000000 C 27.333333,2.666667 27.666667,2.333333 28.000000,2.333333 C 28.333333,2.333333 28.666667,2.666667 29.000000,3.000000 C 29.333333,3.333333 29.666667,3.666667 30.000000,3.666667 C 30.333333,3.666667 30.666667,3.333333 31.000000,3.333333 C 31.333333,3.333333 31.666667,3.666667 32.000000,3.666667 C 32.333333,3.666667 32.666667,3.333333 33.000000,3.000000 C 33.333333,2.666667 33.666667,2.333333 34.000000,2.000000 C 34.333333,1.666667 34.666667,1.333333 35.000000,1.000000 C 35.333333,0.666667 35.666667,0.333333 36.000000,0.333333 C 36.333333,0.333333 36.666667,0.666667 37.000000,0.666667 C 37.333333,0.666667 37.666667,0.333333 38.000000,0.333333 C 38.333333,0.333333 38.666667,0.666667 39.000000,1.000000 C 39.333333,1.333333 39.666667,1.666667 40.000000,1.666667 C 40.333333,1.666667 40.666667,1.333333 41.000000,1.333333 C 41.333333,1.333333 41.666667,1.666667 42.000000,2.000000 C 42.333333,2.333333 42.666667,2.666667 43.000000,2.666667 C 43.333333,2.666667 43.666667,2.333333 44.000000,2.333333 C 44.333333,2.333333 44.666667,2.666667 45.000000,3.000000 C 45.333333,3.333333 45.666667,3.666667 46.000000,3.666667 C 46.333333,3.666667 46.666667,3.333333 47.000000,3.333333 C 47.333333,3.333333 47.666667,3.666667 48.000000,3.666667 C 48.333333,3.666667 48.666667,3.333333 49.000000,3.333333 C 49.333333,3.333333 49.666667,3.666667 50.000000,4.000000" stroke="#cbff00" opacity="0.1"/>
      <path d="M 0.000000,0.000000 C 0.333333,0.333333 0.666667,0.666667 1.000000,0.666667 C 1.333333,0.666667 1.666667,0.333333 2.000000,0.000000 C 2.333333,-0.333333 2.666667,-0.666667 3.000000,-0.666667 C 3.333333,-0.666667 3.666667,-0.333333 4.000000,0.000000 C 4.333333,0.333333 4.666667,0.666667 5.000000,1.000000 C 5.333333,1.333333 5.666667,1.666667 6.000000,1.666667 C 6.333333,1.666667 6.666667,1.333333 7.000000,1.000000 C 7.333333,0.666667 7.666667,0.333333 8.000000,0.333333 C 8.333333,0.333333 8.666667,0.666667 9.000000,0.666667 C 9.333333,0.666667 9.666667,0.333333 10.000000,0.333333 C 10.333333,0.333333 10.666667,0.666667 11.000000,1.000000 C 11.333333,1.333333 11.666667,1.666667 12.000000,2.000000 C 12.333333,2.333333 12.666667,2.666667 13.000000,2.666667 C 13.333333,2.666667 13.666667,2.333333 14.000000,2.000000 C 14.333333,1.666667 14.666667,1.333333 15.000000,1.333333 C 15.333333,1.333333 15.666667,1.666667 16.000000,2.000000 C 16.333333,2.333333 16.666667,2.666667 17.000000,2.666667 C 17.333333,2.666667 17.666667,2.333333 18.000000,2.000000 C 18.333333,1.666667 18.666667,1.333333 19.000000,1.333333 C 19.333333,1.333333 19.666667,1.666667 20.000000,1.666667 C 20.333333,1.666667 20.666667,1.333333 21.000000,1.333333 C 21.333333,1.333333 21.666667,1.666667 22.000000,1.666667 C 22.333333,1.666667 22.666667,1.333333 23.000000,1.000000 C 23.333333,0.666667 23.666667,0.333333 24.000000,0.000000 C 24.333333,-0.333333 24.666667,-0.666667 25.000000,-0.666667 C 25.333333,-0.666667 25.666667,-0.333333 26.000000,-0.333333 C 26.333333,-0.333333 26.666667,-0.666667 27.000000,-0.666667 C 27.333333,-0.666667 27.666667,-0.333333 28.000000,0.000000 C 28.333333,0.333333 28.666667,0.666667 29.000000,0.666667 C 29.333333,0.666667 29.666667,0.333333 30.000000,0.333333 C 30.333333,0.333333 30.666667,0.666667 31.000000,0.666667 C 31.333333,0.666667 31.666667,0.333333 32.000000,0.333333 C 32.333333,0.333333 32.666667,0.666667 33.000000,0.666667 C 33.333333,0.666667 33.666667,0.333333 34.000000,0.333333 C 34.333333,0.333333 34.666667,0.666667 35.000000,0.666667 C 35.333333,0.666667 35.666667,0.333333 36.000000,0.000000 C 36.333333,-0.333333 36.666667,-0.666667 37.000000,-0.666667 C 37.333333,-0.666667 37.666667,-0.333333 38.000000,0.000000 C 38.333333,0.333333 38.666667,0.666667 39.000000,0.666667 C 39.333333,0.666667 39.666667,0.333333 40.000000,0.000000 C 40.333333,-0.333333 40.666667,-0.666667 41.000000,-1.000000 C 41.333333,-1.333333 41.666667,-1.666667 42.000000,-1.666667 C 42.333333,-1.666667 42.666667,-1.333333 43.000000,-1.000000 C 43.333333,-0.666667 43.666667,-0.333333 44.000000,0.000000 C 44.333333,0.333333 44.666667,0.666667 45.000000,1.000000 C 45.333333,1.333333 45.666667,1.666667 46.000000,2.000000 C 46.333333,2.333333 46.666667,2.666667 47.000000,2.666667 C 47.333333,2.666667 47.666667,2.333333 48.000000,2.000000 C 48.333333,1.666667 48.666667,1.333333 49.000000,1.333333 C 49.333333,1.333333 49.666667,1.666667 50.000000,2.000000" stroke="#33ff00" opacity="0.1"/>
      <path d="M 0.000000,0.000000 C 0.333333,-0.333333 0.666667,-0.666667 1.000000,-0.666667 C 1.333333,-0.666667 1.666667,-0.333333 2.000000,-0.333333 C 2.333333,-0.333333 2.666667,-0.666667 3.000000,-0.666667 C 3.333333,-0.666667 3.666667,-0.333333 4.000000,-0.333333 C 4.333333,-0.333333 4.666667,-0.666667 5.000000,-1.000000 C 5.333333,-1.333333 5.666667,-1.666667 6.000000,-1.666667 C 6.333333,-1.666667 6.666667,-1.333333 7.000000,-1.000000 C 7.333333,-0.666667 7.666667,-0.333333 8.000000,-0.333333 C 8.333333,-0.333333 8.666667,-0.666667 9.000000,-0.666667 C 9.333333,-0.666667 9.666667,-0.333333 10.000000,0.000000 C 10.333333,0.333333 10.666667,0.666667 11.000000,0.666667 C 11.333333,0.666667 11.666667,0.333333 12.000000,0.333333 C 12.333333,0.333333 12.666667,0.666667 13.000000,1.000000 C 13.333333,1.333333 13.666667,1.666667 14.000000,1.666667 C 14.333333,1.666667 14.666667,1.333333 15.000000,1.000000 C 15.333333,0.666667 15.666667,0.333333 16.000000,0.000000 C 16.333333,-0.333333 16.666667,-0.666667 17.000000,-1.000000 C 17.333333,-1.333333 17.666667,-1.666667 18.000000,-2.000000 C 18.333333,-2.333333 18.666667,-2.666667 19.000000,-3.000000 C 19.333333,-3.333333 19.666667,-3.666667 20.000000,-4.000000 C 20.333333,-4.333333 20.666667,-4.666667 21.000000,-4.666667 C 21.333333,-4.666667 21.666667,-4.333333 22.000000,-4.000000 C 22.333333,-3.666667 22.666667,-3.333333 23.000000,-3.000000 C 23.333333,-2.666667 23.666667,-2.333333 24.000000,-2.333333 C 24.333333,-2.333333 24.666667,-2.666667 25.000000,-2.666667 C 25.333333,-2.666667 25.666667,-2.333333 26.000000,-2.000000 C 26.333333,-1.666667 26.666667,-1.333333 27.000000,-1.000000 C 27.333333,-0.666667 27.666667,-0.333333 28.000000,0.000000 C 28.333333,0.333333 28.666667,0.666667 29.000000,1.000000 C 29.333333,1.333333 29.666667,1.666667 30.000000,2.000000 C 30.333333,2.333333 30.666667,2.666667 31.000000,3.000000 C 31.333333,3.333333 31.666667,3.666667 32.000000,4.000000 C 32.333333,4.333333 32.666667,4.666667 33.000000,5.000000 C 33.333333,5.333333 33.666667,5.666667 34.000000,6.000000 C 34.333333,6.333333 34.666667,6.666667 35.000000,7.000000 C 35.333333,7.333333 35.666667,7.666667 36.000000,7.666667 C 36.333333,7.666667 36.666667,7.333333 37.000000,7.333333 C 37.333333,7.333333 37.666667,7.666667 38.000000,8.000000 C 38.333333,8.333333 38.666667,8.666667 39.000000,9.000000 C 39.333333,9.333333 39.666667,9.666667 40.000000,10.000000 C 40.333333,10.333333 40.666667,10.666667 41.000000,10.666667 C 41.333333,10.666667 41.666667,10.333333 42.000000,10.333333 C 42.333333,10.333333 42.666667,10.666667 43.000000,10.666667 C 43.333333,10.666667 43.666667,10.333333 44.000000,10.333333 C 44.333333,10.333333 44.666667,10.666667 45.000000,10.666667 C 45.333333,10.666667 45.666667,10.333333 46.000000,10.000000 C 46.333333,9.666667 46.666667,9.333333 47.000000,9.333333 C 47.333333,9.333333 47.666667,9.666667 48.000000,9.666667 C 48.333333,9.666667 48.666667,9.333333 49.000000,9.000000 C 49.333333,8.666667 49.666667,8.333333 50.000000,8.000000" stroke="#00ff66" opacity="0.1"/>
      <path d="M 0.000000,0.000000 C 0.333333,-0.333333 0.666667,-0.666667 1.000000,-0.666667 C 1.333333,-0.666667 1.666667,-0.333333 2.000000,0.000000 C 2.333333,0.333333 2.666667,0.666667 3.000000,0.666667 C 3.333333,0.666667 3.666667,0.333333 4.000000,0.333333 C 4.333333,0.333333 4.666667,0.666667 5.000000,1.000000 C 5.333333,1.333333 5.666667,1.666667 6.000000,2.000000 C 6.333333,2.333333 6.666667,2.666667 7.000000,3.000000 C 7.333333,3.333333 7.666667,3.666667 8.000000,4.000000 C 8.333333,4.333333 8.666667,4.666667 9.000000,4.666667 C 9.333333,4.666667 9.666667,4.333333 10.000000,4.333333 C 10.333333,4.333333 10.666667,4.666667 11.000000,4.666667 C 11.333333,4.666667 11.666667,4.333333 12.000000,4.000000 C 12.333333,3.666667 12.666667,3.333333 13.000000,3.000000 C 13.333333,2.666667 13.666667,2.333333 14.000000,2.333333 C 14.333333,2.333333 14.666667,2.666667 15.000000,2.666667 C 15.333333,2.666667 15.666667,2.333333 16.000000,2.333333 C 16.333333,2.333333 16.666667,2.666667 17.000000,3.000000 C 17.333333,3.333333 17.666667,3.666667 18.000000,3.666667 C 18.333333,3.666667 18.666667,3.333333 19.000000,3.000000 C 19.333333,2.666667 19.666667,2.333333 20.000000,2.333333 C 20.333333,2.333333 20.666667,2.666667 21.000000,2.666667 C 21.333333,2.666667 21.666667,2.333333 22.000000,2.333333 C 22.333333,2.333333 22.666667,2.666667 23.000000,2.666667 C 23.333333,2.666667 23.666667,2.333333 24.000000,2.000000 C 24.333333,1.666667 24.666667,1.333333 25.000000,1.000000 C 25.333333,0.666667 25.666667,0.333333 26.000000,0.333333 C 26.333333,0.333333 26.666667,0.666667 27.000000,1.000000 C 27.333333,1.333333 27.666667,1.666667 28.000000,1.666667 C 28.333333,1.666667 28.666667,1.333333 29.000000,1.333333 C 29.333333,1.333333 29.666667,1.666667 30.000000,2.000000 C 30.333333,2.333333 30.666667,2.666667 31.000000,2.666667 C 31.333333,2.666667 31.666667,2.333333 32.000000,2.000000 C 32.333333,1.666667 32.666667,1.333333 33.000000,1.000000 C 33.333333,0.666667 33.666667,0.333333 34.000000,0.000000 C 34.333333,-0.333333 34.666667,-0.666667 35.000000,-0.666667 C 35.333333,-0.666667 35.666667,-0.333333 36.000000,0.000000 C 36.333333,0.333333 36.666667,0.666667 37.000000,1.000000 C 37.333333,1.333333 37.666667,1.666667 38.000000,2.000000 C 38.333333,2.333333 38.666667,2.666667 39.000000,2.666667 C 39.333333,2.666667 39.666667,2.333333 40.000000,2.333333 C 40.333333,2.333333 40.666667,2.666667 41.000000,3.000000 C 41.333333,3.333333 41.666667,3.666667 42.000000,3.666667 C 42.333333,3.666667 42.666667,3.333333 43.000000,3.000000 C 43.333333,2.666667 43.666667,2.333333 44.000000,2.000000 C 44.333333,1.666667 44.666667,1.333333 45.000000,1.333333 C 45.333333,1.333333 45.666667,1.666667 46.000000,1.666667 C 46.333333,1.666667 46.666667,1.333333 47.000000,1.000000 C 47.333333,0.666667 47.666667,0.333333 48.000000,0.333333 C 48.333333,0.333333 48.666667,0.666667 49.000000,0.666667 C 49.333333,0.666667 49.666667,0.333333 50.000000,0.000000" stroke="#00ffff" opacity="0.1"/>
      <path d="M 0.000000,0.000000 C 0.333333,0.333333 0.666667,0.666667 1.000000,0.666667 C 1.333333,0.666667 1.666667,0.333333 2.000000,0.333333 C 2.333333,0.333333 2.666667,0.666667 3.000000,0.666667 C 3.333333,0.666667 3.666667,0.333333 4.000000,0.000000 C 4.333333,-0.333333 4.666667,-0.666667 5.000000,-1.000000 C 5.333333,-1.333333 5.666667,-1.666667 6.000000,-1.666667 C 6.333333,-1.666667 6.666667,-1.333333 7.000000,-1.333333 C 7.333333,-1.333333 7.666667,-1.666667 8.000000,-2.000000 C 8.333333,-2.333333 8.666667,-2.666667 9.000000,-2.666667 C 9.333333,-2.666667 9.666667,-2.333333 10.000000,-2.333333 C 10.333333,-2.333333 10.666667,-2.666667 11.000000,-2.666667 C 11.333333,-2.666667 11.666667,-2.333333 12.000000,-2.333333 C 12.333333,-2.333333 12.666667,-2.666667 13.000000,-2.666667 C 13.333333,-2.666667 13.666667,-2.333333 14.000000,-2.000000 C 14.333333,-1.666667 14.666667,-1.333333 15.000000,-1.000000 C 15.333333,-0.666667 15.666667,-0.333333 16.000000,-0.333333 C 16.333333,-0.333333 16.666667,-0.666667 17.000000,-1.000000 C 17.333333,-1.333333 17.666667,-1.666667 18.000000,-2.000000 C 18.333333,-2.333333 18.666667,-2.666667 19.000000,-3.000000 C 19.333333,-3.333333 19.666667,-3.666667 20.000000,-3.666667 C 20.333333,-3.666667 20.666667,-3.333333 21.000000,-3.000000 C 21.333333,-2.666667 21.666667,-2.333333 22.000000,-2.333333 C 22.333333,-2.333333 22.666667,-2.666667 23.000000,-3.000000 C 23.333333,-3.333333 23.666667,-3.666667 24.000000,-4.000000 C 24.333333,-4.333333 24.666667,-4.666667 25.000000,-5.000000 C 25.333333,-5.333333 25.666667,-5.666667 26.000000,-6.000000 C 26.333333,-6.333333 26.666667,-6.666667 27.000000,-6.666667 C 27.333333,-6.666667 27.666667,-6.333333 28.000000,-6.333333 C 28.333333,-6.333333 28.666667,-6.666667 29.000000,-7.000000 C 29.333333,-7.333333 29.666667,-7.666667 30.000000,-8.000000 C 30.333333,-8.333333 30.666667,-8.666667 31.000000,-9.000000 C 31.333333,-9.333333 31.666667,-9.666667 32.000000,-10.000000 C 32.333333,-10.333333 32.666667,-10.666667 33.000000,-11.000000 C 33.333333,-11.333333 33.666667,-11.666667 34.000000,-11.666667 C 34.333333,-11.666667 34.666667,-11.333333 35.000000,-11.333333 C 35.333333,-11.333333 35.666667,-11.666667 36.000000,-12.000000 C 36.333333,-12.333333 36.666667,-12.666667 37.000000,-13.000000 C 37.333333,-13.333333 37.666667,-13.666667 38.000000,-13.666667 C 38.333333,-13.666667 38.666667,-13.333333 39.000000,-13.000000 C 39.333333,-12.666667 39.666667,-12.333333 40.000000,-12.333333 C 40.333333,-12.333333 40.666667,-12.666667 41.000000,-13.000000 C 41.333333,-13.333333 41.666667,-13.666667 42.000000,-13.666667 C 42.333333,-13.666667 42.666667,-13.333333 43.000000,-13.333333 C 43.333333,-13.333333 43.666667,-13.666667 44.000000,-13.666667 C 44.333333,-13.666667 44.666667,-13.333333 45.000000,-13.333333 C 45.333333,-13.333333 45.666667,-13.666667 46.000000,-14.000000 C 46.333333,-14.333333 46.666667,-14.666667 47.000000,-15.000000 C 47.333333,-15.333333 47.666667,-15.666667 48.000000,-16.000000 C 48.333333,-16.333333 48.666667,-16.666667 49.000000,-16.666667 C 49.333333,-16.666667 49.666667,-16.333333 50.000000,-16.000000" stroke="#0066ff" opacity="0.1"/>
      <path d="M 0.000000,0.000000 C 0.333333,-0.333333 0.666667,-0.666667 1.000000,-1.000000 C 1.333333,-1.333333 1.666667,-1.666667 2.000000,-1.666667 C 2.333333,-1.666667 2.666667,-1.333333 3.000000,-1.000000 C 3.333333,-0.666667 3.666667,-0.333333 4.000000,-0.333333 C 4.333333,-0.333333 4.666667,-0.666667 5.000000,-0.666667 C 5.333333,-0.666667 5.666667,-0.333333 6.000000,-0.333333 C 6.333333,-0.333333 6.666667,-0.666667 7.000000,-0.666667 C 7.333333,-0.666667 7.666667,-0.333333 8.000000,-0.333333 C 8.333333,-0.333333 8.666667,-0.666667 9.000000,-0.666667 C 9.333333,-0.666667 9.666667,-0.333333 10.000000,-0.333333 C 10.333333,-0.333333 10.666667,-0.666667 11.000000,-0.666667 C 11.333333,-0.666667 11.666667,-0.333333 12.000000,-0.333333 C 12.333333,-0.333333 12.666667,-0.666667 13.000000,-1.000000 C 13.333333,-1.333333 13.666667,-1.666667 14.000000,-2.000000 C 14.333333,-2.333333 14.666667,-2.666667 15.000000,-2.666667 C 15.333333,-2.666667 15.666667,-2.333333 16.000000,-2.333333 C 16.333333,-2.333333 16.666667,-2.666667 17.000000,-3.000000 C 17.333333,-3.333333 17.666667,-3.666667 18.000000,-4.000000 C 18.333333,-4.333333 18.666667,-4.666667 19.000000,-5.000000 C 19.333333,-5.333333 19.666667,-5.666667 20.000000,-5.666667 C 20.333333,-5.666667 20.666667,-5.333333 21.000000,-5.000000 C 21.333333,-4.666667 21.666667,-4.333333 22.000000,-4.333333 C 22.333333,-4.333333 22.666667,-4.666667 23.000000,-4.666667 C 23.333333,-4.666667 23.666667,-4.333333 24.000000,-4.333333 C 24.333333,-4.333333 24.666667,-4.666667 25.000000,-5.000000 C 25.333333,-5.333333 25.666667,-5.666667 26.000000,-6.000000 C 26.333333,-6.333333 26.666667,-6.666667 27.000000,-6.666667 C 27.333333,-6.666667 27.666667,-6.333333 28.000000,-6.333333 C 28.333333,-6.333333 28.666667,-6.666667 29.000000,-7.000000 C 29.333333,-7.333333 29.666667,-7.666667 30.000000,-7.666667 C 30.333333,-7.666667 30.666667,-7.333333 31.000000,-7.000000 C 31.333333,-6.666667 31.666667,-6.333333 32.000000,-6.000000 C 32.333333,-5.666667 32.666667,-5.333333 33.000000,-5.333333 C 33.333333,-5.333333 33.666667,-5.666667 34.000000,-6.000000 C 34.333333,-6.333333 34.666667,-6.666667 35.000000,-7.000000 C 35.333333,-7.333333 35.666667,-7.666667 36.000000,-7.666667 C 36.333333,-7.666667 36.666667,-7.333333 37.000000,-7.000000 C 37.333333,-6.666667 37.666667,-6.333333 38.000000,-6.333333 C 38.333333,-6.333333 38.666667,-6.666667 39.000000,-7.000000 C 39.333333,-7.333333 39.666667,-7.666667 40.000000,-8.000000 C 40.333333,-8.333333 40.666667,-8.666667 41.000000,-9.000000 C 41.333333,-9.333333 41.666667,-9.666667 42.000000,-9.666667 C 42.333333,-9.666667 42.666667,-9.333333 43.000000,-9.000000 C 43.333333,-8.666667 43.666667,-8.333333 44.000000,-8.000000 C 44.333333,-7.666667 44.666667,-7.333333 45.000000,-7.333333 C 45.333333,-7.333333 45.666667,-7.666667 46.000000,-7.666667 C 46.333333,-7.666667 46.666667,-7.333333 47.000000,-7.000000 C 47.333333,-6.666667 47.666667,-6.333333 48.000000,-6.000000 C 48.333333,-5.666667 48.666667,-5.333333 49.000000,-5.333333 C 49.333333,-5.333333 49.666667,-5.666667 50.000000,-6.000000" stroke="#3200ff" opacity="0.1"/>
      <path d="M 0.000000,0.000000 C 0.333333,0.333333 0.666667,0.666667 1.000000,1.000000 C 1.333333,1.333333 1.666667,1.666667 2.000000,1.666667 C 2.333333,1.666667 2.666667,1.333333 3.000000,1.333333 C 3.333333,1.333333 3.666667,1.666667 4.000000,2.000000 C 4.333333,2.333333 4.666667,2.666667 5.000000,2.666667 C 5.333333,2.666667 5.666667,2.333333 6.000000,2.000000 C 6.333333,1.666667 6.666667,1.333333 7.000000,1.000000 C 7.333333,0.666667 7.666667,0.333333 8.000000,0.333333 C 8.333333,0.333333 8.666667,0.666667 9.000000,0.666667 C 9.333333,0.666667 9.666667,0.333333 10.000000,0.333333 C 10.333333,0.333333 10.666667,0.666667 11.000000,0.666667 C 11.333333,0.666667 11.666667,0.333333 12.000000,0.000000 C 12.333333,-0.333333 12.666667,-0.666667 13.000000,-0.666667 C 13.333333,-0.666667 13.666667,-0.333333 14.000000,-0.333333 C 14.333333,-0.333333 14.666667,-0.666667 15.000000,-1.000000 C 15.333333,-1.333333 15.666667,-1.666667 16.000000,-2.000000 C 16.333333,-2.333333 16.666667,-2.666667 17.000000,-2.666667 C 17.333333,-2.666667 17.666667,-2.333333 18.000000,-2.333333 C 18.333333,-2.333333 18.666667,-2.666667 19.000000,-2.666667 C 19.333333,-2.666667 19.666667,-2.333333 20.000000,-2.000000 C 20.333333,-1.666667 20.666667,-1.333333 21.000000,-1.333333 C 21.333333,-1.333333 21.666667,-1.666667 22.000000,-1.666667 C 22.333333,-1.666667 22.666667,-1.333333 23.000000,-1.000000 C 23.333333,-0.666667 23.666667,-0.333333 24.000000,-0.333333 C 24.333333,-0.333333 24.666667,-0.666667 25.000000,-1.000000 C 25.333333,-1.333333 25.666667,-1.666667 26.000000,-2.000000 C 26.333333,-2.333333 26.666667,-2.666667 27.000000,-3.000000 C 27.333333,-3.333333 27.666667,-3.666667 28.000000,-3.666667 C 28.333333,-3.666667 28.666667,-3.333333 29.000000,-3.000000 C 29.333333,-2.666667 29.666667,-2.333333 30.000000,-2.333333 C 30.333333,-2.333333 30.666667,-2.666667 31.000000,-2.666667 C 31.333333,-2.666667 31.666667,-2.333333 32.000000,-2.333333 C 32.333333,-2.333333 32.666667,-2.666667 33.000000,-2.666667 C 33.333333,-2.666667 33.666667,-2.333333 34.000000,-2.333333 C 34.333333,-2.333333 34.666667,-2.666667 35.000000,-3.000000 C 35.333333,-3.333333 35.666667,-3.666667 36.000000,-4.000000 C 36.333333,-4.333333 36.666667,-4.666667 37.000000,-5.000000 C 37.333333,-5.333333 37.666667,-5.666667 38.000000,-6.000000 C 38.333333,-6.333333 38.666667,-6.666667 39.000000,-7.000000 C 39.333333,-7.333333 39.666667,-7.666667 40.000000,-8.000000 C 40.333333,-8.333333 40.666667,-8.666667 41.000000,-8.666667 C 41.333333,-8.666667 41.666667,-8.333333 42.000000,-8.333333 C 42.333333,-8.333333 42.666667,-8.666667 43.000000,-8.666667 C 43.333333,-8.666667 43.666667,-8.333333 44.000000,-8.000000 C 44.333333,-7.666667 44.666667,-7.333333 45.000000,-7.000000 C 45.333333,-6.666667 45.666667,-6.333333 46.000000,-6.000000 C 46.333333,-5.666667 46.666667,-5.333333 47.000000,-5.000000 C 47.333333,-4.666667 47.666667,-4.333333 48.000000,-4.000000 C 48.333333,-3.666667 48.666667,-3.333333 49.000000,-3.000000 C 49.333333,-2.666667 49.666667,-2.333333 50.000000,-2.000000" stroke="#cc00ff" opacity="0.1"/>
      <path d="M 0.000000,0.000000 C 0.333333,-0.333333 0.666667,-0.666667 1.000000,-1.000000 C 1.333333,-1.333333 1.666667,-1.666667 2.000000,-1.666667 C 2.333333,-1.666667 2.666667,-1.333333 3.000000,-1.333333 C 3.333333,-1.333333 3.666667,-1.666667 4.000000,-1.666667 C 4.333333,-1.666667 4.666667,-1.333333 5.000000,-1.333333 C 5.333333,-1.333333 5.666667,-1.666667 6.000000,-2.000000 C 6.333333,-2.333333 6.666667,-2.666667 7.000000,-3.000000 C 7.333333,-3.333333 7.666667,-3.666667 8.000000,-4.000000 C 8.333333,-4.333333 8.666667,-4.666667 9.000000,-5.000000 C 9.333333,-5.333333 9.666667,-5.666667 10.000000,-6.000000 C 10.333333,-6.333333 10.666667,-6.666667 11.000000,-7.000000 C 11.333333,-7.333333 11.666667,-7.666667 12.000000,-7.666667 C 12.333333,-7.666667 12.666667,-7.333333 13.000000,-7.000000 C 13.333333,-6.666667 13.666667,-6.333333 14.000000,-6.333333 C 14.333333,-6.333333 14.666667,-6.666667 15.000000,-7.000000 C 15.333333,-7.333333 15.666667,-7.666667 16.000000,-7.666667 C 16.333333,-7.666667 16.666667,-7.333333 17.000000,-7.333333 C 17.333333,-7.333333 17.666667,-7.666667 18.000000,-7.666667 C 18.333333,-7.666667 18.666667,-7.333333 19.000000,-7.000000 C 19.333333,-6.666667 19.666667,-6.333333 20.000000,-6.000000 C 20.333333,-5.666667 20.666667,-5.333333 21.000000,-5.333333 C 21.333333,-5.333333 21.666667,-5.666667 22.000000,-6.000000 C 22.333333,-6.333333 22.666667,-6.666667 23.000000,-6.666667 C 23.333333,-6.666667 23.666667,-6.333333 24.000000,-6.333333 C 24.333333,-6.333333 24.666667,-6.666667 25.000000,-6.666667 C 25.333333,-6.666667 25.666667,-6.333333 26.000000,-6.000000 C 26.333333,-5.666667 26.666667,-5.333333 27.000000,-5.000000 C 27.333333,-4.666667 27.666667,-4.333333 28.000000,-4.333333 C 28.333333,-4.333333 28.666667,-4.666667 29.000000,-4.666667 C 29.333333,-4.666667 29.666667,-4.333333 30.000000,-4.333333 C 30.333333,-4.333333 30.666667,-4.666667 31.000000,-4.666667 C 31.333333,-4.666667 31.666667,-4.333333 32.000000,-4.333333 C 32.333333,-4.333333 32.666667,-4.666667 33.000000,-4.666667 C 33.333333,-4.666667 33.666667,-4.333333 34.000000,-4.333333 C 34.333333,-4.333333 34.666667,-4.666667 35.000000,-5.000000 C 35.333333,-5.333333 35.666667,-5.666667 36.000000,-6.000000 C 36.333333,-6.333333 36.666667,-6.666667 37.000000,-7.000000 C 37.333333,-7.333333 37.666667,-7.666667 38.000000,-7.666667 C 38.333333,-7.666667 38.666667,-7.333333 39.000000,-7.333333 C 39.333333,-7.333333 39.666667,-7.666667 40.000000,-7.666667 C 40.333333,-7.666667 40.666667,-7.333333 41.000000,-7.000000 C 41.333333,-6.666667 41.666667,-6.333333 42.000000,-6.000000 C 42.333333,-5.666667 42.666667,-5.333333 43.000000,-5.000000 C 43.333333,-4.666667 43.666667,-4.333333 44.000000,-4.000000 C 44.333333,-3.666667 44.666667,-3.333333 45.000000,-3.333333 C 45.333333,-3.333333 45.666667,-3.666667 46.000000,-3.666667 C 46.333333,-3.666667 46.666667,-3.333333 47.000000,-3.000000 C 47.333333,-2.666667 47.666667,-2.333333 48.000000,-2.000000 C 48.333333,-1.666667 48.666667,-1.333333 49.000000,-1.333333 C 49.333333,-1.333333 49.666667,-1.666667 50.000000,-2.000000" stroke="#ff0098" opacity="0.1"/>
    </g>
    <use xlink:href="#_49232d5c3875466d8443f30c39babb48"/>
    <use xlink:href="#_49232d5c3875466d8443f30c39babb48"/>
    <use xlink:href="#_49232d5c3875466d8443f30c39babb48"/>
    <use xlink:href="#_49232d5c3875466d8443f30c39babb48"/>
    <use xlink:href="#_49232d5c3875466d8443f30c39babb48"/>
    <use xlink:href="#_49232d5c3875466d8443f30c39babb48"/>
    <use xlink:href="#_49232d5c3875466d8443f30c39babb48"/>
    <use xlink:href="#_49232d5c3875466d8443f30c39babb48"/>
    <use xlink:href="#_49232d5c3875466d8443f30c39babb48"/>
  </g>
</svg>
